solid OpenSCAD_Model
  facet normal 0.998791 0 -0.0491602
    outer loop
      vertex -15.6918 -5 -13.8334
      vertex -15.7 5 -14
      vertex -15.6918 5 -13.8334
    endloop
  endfacet
  facet normal 0.998791 0 -0.0491602
    outer loop
      vertex -15.7 5 -14
      vertex -15.6918 -5 -13.8334
      vertex -15.7 -5 -14
    endloop
  endfacet
  facet normal 0.671478 0 -0.741024
    outer loop
      vertex -15.2021 -5 -12.7979
      vertex -15.0785 5 -12.6859
      vertex -15.0785 -5 -12.6859
    endloop
  endfacet
  facet normal 0.671478 0 -0.741024
    outer loop
      vertex -15.0785 5 -12.6859
      vertex -15.2021 -5 -12.7979
      vertex -15.2021 5 -12.7979
    endloop
  endfacet
  facet normal -0.0491602 0 0.998791
    outer loop
      vertex -14 5 -15.7
      vertex -13.8334 -5 -15.6918
      vertex -13.8334 5 -15.6918
    endloop
  endfacet
  facet normal -0.0491602 0 0.998791
    outer loop
      vertex -13.8334 -5 -15.6918
      vertex -14 5 -15.7
      vertex -14 -5 -15.7
    endloop
  endfacet
  facet normal 0.904043 0 -0.427442
    outer loop
      vertex -15.4993 -5 -13.1986
      vertex -15.5706 5 -13.3494
      vertex -15.4993 5 -13.1986
    endloop
  endfacet
  facet normal 0.904043 0 -0.427442
    outer loop
      vertex -15.5706 5 -13.3494
      vertex -15.4993 -5 -13.1986
      vertex -15.5706 -5 -13.3494
    endloop
  endfacet
  facet normal 0.741024 0 -0.671478
    outer loop
      vertex -15.2021 -5 -12.7979
      vertex -15.3141 5 -12.9215
      vertex -15.2021 5 -12.7979
    endloop
  endfacet
  facet normal 0.741024 0 -0.671478
    outer loop
      vertex -15.3141 5 -12.9215
      vertex -15.2021 -5 -12.7979
      vertex -15.3141 -5 -12.9215
    endloop
  endfacet
  facet normal -0.803303 0 0.59557
    outer loop
      vertex -12.6859 -5 -15.0785
      vertex -12.6277 5 -15
      vertex -12.6859 5 -15.0785
    endloop
  endfacet
  facet normal -0.803303 0 0.59557
    outer loop
      vertex -12.6277 5 -15
      vertex -12.6859 -5 -15.0785
      vertex -12.6277 -5 -15
    endloop
  endfacet
  facet normal 0.671478 0 0.741024
    outer loop
      vertex -15.2021 5 -15.2021
      vertex -15.0785 -5 -15.3141
      vertex -15.0785 5 -15.3141
    endloop
  endfacet
  facet normal 0.671478 0 0.741024
    outer loop
      vertex -15.0785 -5 -15.3141
      vertex -15.2021 5 -15.2021
      vertex -15.2021 -5 -15.2021
    endloop
  endfacet
  facet normal 0.970072 0 -0.242818
    outer loop
      vertex -15.6268 -5 -13.5065
      vertex -15.6673 5 -13.6683
      vertex -15.6268 5 -13.5065
    endloop
  endfacet
  facet normal 0.970072 0 -0.242818
    outer loop
      vertex -15.6673 5 -13.6683
      vertex -15.6268 -5 -13.5065
      vertex -15.6673 -5 -13.6683
    endloop
  endfacet
  facet normal 0.803154 0 -0.595772
    outer loop
      vertex -15.3141 -5 -12.9215
      vertex -15.4135 5 -13.0555
      vertex -15.3141 5 -12.9215
    endloop
  endfacet
  facet normal 0.803154 0 -0.595772
    outer loop
      vertex -15.4135 5 -13.0555
      vertex -15.3141 -5 -12.9215
      vertex -15.4135 -5 -13.0555
    endloop
  endfacet
  facet normal 0.941566 0 -0.33683
    outer loop
      vertex -15.5706 -5 -13.3494
      vertex -15.6268 5 -13.5065
      vertex -15.5706 5 -13.3494
    endloop
  endfacet
  facet normal 0.941566 0 -0.33683
    outer loop
      vertex -15.6268 5 -13.5065
      vertex -15.5706 -5 -13.3494
      vertex -15.6268 -5 -13.5065
    endloop
  endfacet
  facet normal -0.514231 0 0.857652
    outer loop
      vertex -13.1986 5 -15.4993
      vertex -13.0555 -5 -15.4135
      vertex -13.0555 5 -15.4135
    endloop
  endfacet
  facet normal -0.514231 0 0.857652
    outer loop
      vertex -13.0555 -5 -15.4135
      vertex -13.1986 5 -15.4993
      vertex -13.1986 -5 -15.4993
    endloop
  endfacet
  facet normal 0.33683 0 0.941566
    outer loop
      vertex -14.6506 5 -15.5706
      vertex -14.4935 -5 -15.6268
      vertex -14.4935 5 -15.6268
    endloop
  endfacet
  facet normal 0.33683 0 0.941566
    outer loop
      vertex -14.4935 -5 -15.6268
      vertex -14.6506 5 -15.5706
      vertex -14.6506 -5 -15.5706
    endloop
  endfacet
  facet normal 0.904043 -0 0.427442
    outer loop
      vertex -15.5706 -5 -14.6506
      vertex -15.4993 5 -14.8014
      vertex -15.5706 5 -14.6506
    endloop
  endfacet
  facet normal 0.904043 0 0.427442
    outer loop
      vertex -15.4993 5 -14.8014
      vertex -15.5706 -5 -14.6506
      vertex -15.4993 -5 -14.8014
    endloop
  endfacet
  facet normal 0.998791 -0 0.0491602
    outer loop
      vertex -15.7 -5 -14
      vertex -15.6918 5 -14.1666
      vertex -15.7 5 -14
    endloop
  endfacet
  facet normal 0.998791 0 0.0491602
    outer loop
      vertex -15.6918 5 -14.1666
      vertex -15.7 -5 -14
      vertex -15.6918 -5 -14.1666
    endloop
  endfacet
  facet normal 0.857652 0 -0.514231
    outer loop
      vertex -15.4135 -5 -13.0555
      vertex -15.4993 5 -13.1986
      vertex -15.4135 5 -13.0555
    endloop
  endfacet
  facet normal 0.857652 0 -0.514231
    outer loop
      vertex -15.4993 5 -13.1986
      vertex -15.4135 -5 -13.0555
      vertex -15.4993 -5 -13.1986
    endloop
  endfacet
  facet normal 0.989168 0 -0.146788
    outer loop
      vertex -15.6673 -5 -13.6683
      vertex -15.6918 5 -13.8334
      vertex -15.6673 5 -13.6683
    endloop
  endfacet
  facet normal 0.989168 0 -0.146788
    outer loop
      vertex -15.6918 5 -13.8334
      vertex -15.6673 -5 -13.6683
      vertex -15.6918 -5 -13.8334
    endloop
  endfacet
  facet normal 0.59557 0 -0.803303
    outer loop
      vertex -15.0785 -5 -12.6859
      vertex -15 5 -12.6277
      vertex -15 -5 -12.6277
    endloop
  endfacet
  facet normal 0.59557 0 -0.803303
    outer loop
      vertex -15 5 -12.6277
      vertex -15.0785 -5 -12.6859
      vertex -15.0785 5 -12.6859
    endloop
  endfacet
  facet normal -0.146788 0 0.989168
    outer loop
      vertex -13.8334 5 -15.6918
      vertex -13.6683 -5 -15.6673
      vertex -13.6683 5 -15.6673
    endloop
  endfacet
  facet normal -0.146788 0 0.989168
    outer loop
      vertex -13.6683 -5 -15.6673
      vertex -13.8334 5 -15.6918
      vertex -13.8334 -5 -15.6918
    endloop
  endfacet
  facet normal -0.427442 0 0.904043
    outer loop
      vertex -13.3494 5 -15.5706
      vertex -13.1986 -5 -15.4993
      vertex -13.1986 5 -15.4993
    endloop
  endfacet
  facet normal -0.427442 0 0.904043
    outer loop
      vertex -13.1986 -5 -15.4993
      vertex -13.3494 5 -15.5706
      vertex -13.3494 -5 -15.5706
    endloop
  endfacet
  facet normal -0.242818 0 0.970072
    outer loop
      vertex -13.6683 5 -15.6673
      vertex -13.5065 -5 -15.6268
      vertex -13.5065 5 -15.6268
    endloop
  endfacet
  facet normal -0.242818 0 0.970072
    outer loop
      vertex -13.5065 -5 -15.6268
      vertex -13.6683 5 -15.6673
      vertex -13.6683 -5 -15.6673
    endloop
  endfacet
  facet normal -0.671478 0 0.741024
    outer loop
      vertex -12.9215 5 -15.3141
      vertex -12.7979 -5 -15.2021
      vertex -12.7979 5 -15.2021
    endloop
  endfacet
  facet normal -0.671478 0 0.741024
    outer loop
      vertex -12.7979 -5 -15.2021
      vertex -12.9215 5 -15.3141
      vertex -12.9215 -5 -15.3141
    endloop
  endfacet
  facet normal -0.741024 0 0.671478
    outer loop
      vertex -12.7979 -5 -15.2021
      vertex -12.6859 5 -15.0785
      vertex -12.7979 5 -15.2021
    endloop
  endfacet
  facet normal -0.741024 0 0.671478
    outer loop
      vertex -12.6859 5 -15.0785
      vertex -12.7979 -5 -15.2021
      vertex -12.6859 -5 -15.0785
    endloop
  endfacet
  facet normal -0.595772 0 0.803154
    outer loop
      vertex -13.0555 5 -15.4135
      vertex -12.9215 -5 -15.3141
      vertex -12.9215 5 -15.3141
    endloop
  endfacet
  facet normal -0.595772 0 0.803154
    outer loop
      vertex -12.9215 -5 -15.3141
      vertex -13.0555 5 -15.4135
      vertex -13.0555 -5 -15.4135
    endloop
  endfacet
  facet normal 0.595772 0 0.803154
    outer loop
      vertex -15.0785 5 -15.3141
      vertex -14.9445 -5 -15.4135
      vertex -14.9445 5 -15.4135
    endloop
  endfacet
  facet normal 0.595772 0 0.803154
    outer loop
      vertex -14.9445 -5 -15.4135
      vertex -15.0785 5 -15.3141
      vertex -15.0785 -5 -15.3141
    endloop
  endfacet
  facet normal 0.514231 0 0.857652
    outer loop
      vertex -14.9445 5 -15.4135
      vertex -14.8014 -5 -15.4993
      vertex -14.8014 5 -15.4993
    endloop
  endfacet
  facet normal 0.514231 0 0.857652
    outer loop
      vertex -14.8014 -5 -15.4993
      vertex -14.9445 5 -15.4135
      vertex -14.9445 -5 -15.4135
    endloop
  endfacet
  facet normal 0.427442 0 0.904043
    outer loop
      vertex -14.8014 5 -15.4993
      vertex -14.6506 -5 -15.5706
      vertex -14.6506 5 -15.5706
    endloop
  endfacet
  facet normal 0.427442 0 0.904043
    outer loop
      vertex -14.6506 -5 -15.5706
      vertex -14.8014 5 -15.4993
      vertex -14.8014 -5 -15.4993
    endloop
  endfacet
  facet normal 0.242818 0 0.970072
    outer loop
      vertex -14.4935 5 -15.6268
      vertex -14.3317 -5 -15.6673
      vertex -14.3317 5 -15.6673
    endloop
  endfacet
  facet normal 0.242818 0 0.970072
    outer loop
      vertex -14.3317 -5 -15.6673
      vertex -14.4935 5 -15.6268
      vertex -14.4935 -5 -15.6268
    endloop
  endfacet
  facet normal 0.146788 0 0.989168
    outer loop
      vertex -14.3317 5 -15.6673
      vertex -14.1666 -5 -15.6918
      vertex -14.1666 5 -15.6918
    endloop
  endfacet
  facet normal 0.146788 0 0.989168
    outer loop
      vertex -14.1666 -5 -15.6918
      vertex -14.3317 5 -15.6673
      vertex -14.3317 -5 -15.6673
    endloop
  endfacet
  facet normal 0.0491602 0 0.998791
    outer loop
      vertex -14.1666 5 -15.6918
      vertex -14 -5 -15.7
      vertex -14 5 -15.7
    endloop
  endfacet
  facet normal 0.0491602 0 0.998791
    outer loop
      vertex -14 -5 -15.7
      vertex -14.1666 5 -15.6918
      vertex -14.1666 -5 -15.6918
    endloop
  endfacet
  facet normal 0.857652 -0 0.514231
    outer loop
      vertex -15.4993 -5 -14.8014
      vertex -15.4135 5 -14.9445
      vertex -15.4993 5 -14.8014
    endloop
  endfacet
  facet normal 0.857652 0 0.514231
    outer loop
      vertex -15.4135 5 -14.9445
      vertex -15.4993 -5 -14.8014
      vertex -15.4135 -5 -14.9445
    endloop
  endfacet
  facet normal 0.803154 -0 0.595772
    outer loop
      vertex -15.4135 -5 -14.9445
      vertex -15.3141 5 -15.0785
      vertex -15.4135 5 -14.9445
    endloop
  endfacet
  facet normal 0.803154 0 0.595772
    outer loop
      vertex -15.3141 5 -15.0785
      vertex -15.4135 -5 -14.9445
      vertex -15.3141 -5 -15.0785
    endloop
  endfacet
  facet normal 0.741024 -0 0.671478
    outer loop
      vertex -15.3141 -5 -15.0785
      vertex -15.2021 5 -15.2021
      vertex -15.3141 5 -15.0785
    endloop
  endfacet
  facet normal 0.741024 0 0.671478
    outer loop
      vertex -15.2021 5 -15.2021
      vertex -15.3141 -5 -15.0785
      vertex -15.2021 -5 -15.2021
    endloop
  endfacet
  facet normal 0.970072 -0 0.242818
    outer loop
      vertex -15.6673 -5 -14.3317
      vertex -15.6268 5 -14.4935
      vertex -15.6673 5 -14.3317
    endloop
  endfacet
  facet normal 0.970072 0 0.242818
    outer loop
      vertex -15.6268 5 -14.4935
      vertex -15.6673 -5 -14.3317
      vertex -15.6268 -5 -14.4935
    endloop
  endfacet
  facet normal 0.941566 -0 0.33683
    outer loop
      vertex -15.6268 -5 -14.4935
      vertex -15.5706 5 -14.6506
      vertex -15.6268 5 -14.4935
    endloop
  endfacet
  facet normal 0.941566 0 0.33683
    outer loop
      vertex -15.5706 5 -14.6506
      vertex -15.6268 -5 -14.4935
      vertex -15.5706 -5 -14.6506
    endloop
  endfacet
  facet normal 0.989168 -0 0.146788
    outer loop
      vertex -15.6918 -5 -14.1666
      vertex -15.6673 5 -14.3317
      vertex -15.6918 5 -14.1666
    endloop
  endfacet
  facet normal 0.989168 0 0.146788
    outer loop
      vertex -15.6673 5 -14.3317
      vertex -15.6918 -5 -14.1666
      vertex -15.6673 -5 -14.3317
    endloop
  endfacet
  facet normal -0.33683 0 0.941566
    outer loop
      vertex -13.5065 5 -15.6268
      vertex -13.3494 -5 -15.5706
      vertex -13.3494 5 -15.5706
    endloop
  endfacet
  facet normal -0.33683 0 0.941566
    outer loop
      vertex -13.3494 -5 -15.5706
      vertex -13.5065 5 -15.6268
      vertex -13.5065 -5 -15.6268
    endloop
  endfacet
  facet normal -0.998791 0 -0.0491602
    outer loop
      vertex 15.7 -5 -14
      vertex 15.6918 5 -13.8334
      vertex 15.7 5 -14
    endloop
  endfacet
  facet normal -0.998791 -0 -0.0491602
    outer loop
      vertex 15.6918 5 -13.8334
      vertex 15.7 -5 -14
      vertex 15.6918 -5 -13.8334
    endloop
  endfacet
  facet normal -0.989168 0 -0.146788
    outer loop
      vertex 15.6918 -5 -13.8334
      vertex 15.6673 5 -13.6683
      vertex 15.6918 5 -13.8334
    endloop
  endfacet
  facet normal -0.989168 -0 -0.146788
    outer loop
      vertex 15.6673 5 -13.6683
      vertex 15.6918 -5 -13.8334
      vertex 15.6673 -5 -13.6683
    endloop
  endfacet
  facet normal -0.671478 0 -0.741024
    outer loop
      vertex 15.0785 -5 -12.6859
      vertex 15.2021 5 -12.7979
      vertex 15.2021 -5 -12.7979
    endloop
  endfacet
  facet normal -0.671478 0 -0.741024
    outer loop
      vertex 15.2021 5 -12.7979
      vertex 15.0785 -5 -12.6859
      vertex 15.0785 5 -12.6859
    endloop
  endfacet
  facet normal -0.0491602 0 0.998791
    outer loop
      vertex 14 5 -15.7
      vertex 14.1666 -5 -15.6918
      vertex 14.1666 5 -15.6918
    endloop
  endfacet
  facet normal -0.0491602 0 0.998791
    outer loop
      vertex 14.1666 -5 -15.6918
      vertex 14 5 -15.7
      vertex 14 -5 -15.7
    endloop
  endfacet
  facet normal -0.904043 0 -0.427442
    outer loop
      vertex 15.5706 -5 -13.3494
      vertex 15.4993 5 -13.1986
      vertex 15.5706 5 -13.3494
    endloop
  endfacet
  facet normal -0.904043 -0 -0.427442
    outer loop
      vertex 15.4993 5 -13.1986
      vertex 15.5706 -5 -13.3494
      vertex 15.4993 -5 -13.1986
    endloop
  endfacet
  facet normal -0.741024 0 0.671478
    outer loop
      vertex 15.2021 -5 -15.2021
      vertex 15.3141 5 -15.0785
      vertex 15.2021 5 -15.2021
    endloop
  endfacet
  facet normal -0.741024 0 0.671478
    outer loop
      vertex 15.3141 5 -15.0785
      vertex 15.2021 -5 -15.2021
      vertex 15.3141 -5 -15.0785
    endloop
  endfacet
  facet normal -0.970072 0 0.242818
    outer loop
      vertex 15.6268 -5 -14.4935
      vertex 15.6673 5 -14.3317
      vertex 15.6268 5 -14.4935
    endloop
  endfacet
  facet normal -0.970072 0 0.242818
    outer loop
      vertex 15.6673 5 -14.3317
      vertex 15.6268 -5 -14.4935
      vertex 15.6673 -5 -14.3317
    endloop
  endfacet
  facet normal 0.741024 -0 0.671478
    outer loop
      vertex 12.6859 -5 -15.0785
      vertex 12.7979 5 -15.2021
      vertex 12.6859 5 -15.0785
    endloop
  endfacet
  facet normal 0.741024 0 0.671478
    outer loop
      vertex 12.7979 5 -15.2021
      vertex 12.6859 -5 -15.0785
      vertex 12.7979 -5 -15.2021
    endloop
  endfacet
  facet normal -0.970072 0 -0.242818
    outer loop
      vertex 15.6673 -5 -13.6683
      vertex 15.6268 5 -13.5065
      vertex 15.6673 5 -13.6683
    endloop
  endfacet
  facet normal -0.970072 -0 -0.242818
    outer loop
      vertex 15.6268 5 -13.5065
      vertex 15.6673 -5 -13.6683
      vertex 15.6268 -5 -13.5065
    endloop
  endfacet
  facet normal -0.941566 0 -0.33683
    outer loop
      vertex 15.6268 -5 -13.5065
      vertex 15.5706 5 -13.3494
      vertex 15.6268 5 -13.5065
    endloop
  endfacet
  facet normal -0.941566 -0 -0.33683
    outer loop
      vertex 15.5706 5 -13.3494
      vertex 15.6268 -5 -13.5065
      vertex 15.5706 -5 -13.3494
    endloop
  endfacet
  facet normal -0.803154 0 -0.595772
    outer loop
      vertex 15.4135 -5 -13.0555
      vertex 15.3141 5 -12.9215
      vertex 15.4135 5 -13.0555
    endloop
  endfacet
  facet normal -0.803154 -0 -0.595772
    outer loop
      vertex 15.3141 5 -12.9215
      vertex 15.4135 -5 -13.0555
      vertex 15.3141 -5 -12.9215
    endloop
  endfacet
  facet normal -0.242818 0 0.970072
    outer loop
      vertex 14.3317 5 -15.6673
      vertex 14.4935 -5 -15.6268
      vertex 14.4935 5 -15.6268
    endloop
  endfacet
  facet normal -0.242818 0 0.970072
    outer loop
      vertex 14.4935 -5 -15.6268
      vertex 14.3317 5 -15.6673
      vertex 14.3317 -5 -15.6673
    endloop
  endfacet
  facet normal -0.857652 0 0.514231
    outer loop
      vertex 15.4135 -5 -14.9445
      vertex 15.4993 5 -14.8014
      vertex 15.4135 5 -14.9445
    endloop
  endfacet
  facet normal -0.857652 0 0.514231
    outer loop
      vertex 15.4993 5 -14.8014
      vertex 15.4135 -5 -14.9445
      vertex 15.4993 -5 -14.8014
    endloop
  endfacet
  facet normal -0.904043 0 0.427442
    outer loop
      vertex 15.4993 -5 -14.8014
      vertex 15.5706 5 -14.6506
      vertex 15.4993 5 -14.8014
    endloop
  endfacet
  facet normal -0.904043 0 0.427442
    outer loop
      vertex 15.5706 5 -14.6506
      vertex 15.4993 -5 -14.8014
      vertex 15.5706 -5 -14.6506
    endloop
  endfacet
  facet normal 0.671478 0 0.741024
    outer loop
      vertex 12.7979 5 -15.2021
      vertex 12.9215 -5 -15.3141
      vertex 12.9215 5 -15.3141
    endloop
  endfacet
  facet normal 0.671478 0 0.741024
    outer loop
      vertex 12.9215 -5 -15.3141
      vertex 12.7979 5 -15.2021
      vertex 12.7979 -5 -15.2021
    endloop
  endfacet
  facet normal 0.595772 0 0.803154
    outer loop
      vertex 12.9215 5 -15.3141
      vertex 13.0555 -5 -15.4135
      vertex 13.0555 5 -15.4135
    endloop
  endfacet
  facet normal 0.595772 0 0.803154
    outer loop
      vertex 13.0555 -5 -15.4135
      vertex 12.9215 5 -15.3141
      vertex 12.9215 -5 -15.3141
    endloop
  endfacet
  facet normal 0.33683 0 0.941566
    outer loop
      vertex 13.3494 5 -15.5706
      vertex 13.5065 -5 -15.6268
      vertex 13.5065 5 -15.6268
    endloop
  endfacet
  facet normal 0.33683 0 0.941566
    outer loop
      vertex 13.5065 -5 -15.6268
      vertex 13.3494 5 -15.5706
      vertex 13.3494 -5 -15.5706
    endloop
  endfacet
  facet normal -0.741024 0 -0.671478
    outer loop
      vertex 15.3141 -5 -12.9215
      vertex 15.2021 5 -12.7979
      vertex 15.3141 5 -12.9215
    endloop
  endfacet
  facet normal -0.741024 -0 -0.671478
    outer loop
      vertex 15.2021 5 -12.7979
      vertex 15.3141 -5 -12.9215
      vertex 15.2021 -5 -12.7979
    endloop
  endfacet
  facet normal -0.857652 0 -0.514231
    outer loop
      vertex 15.4993 -5 -13.1986
      vertex 15.4135 5 -13.0555
      vertex 15.4993 5 -13.1986
    endloop
  endfacet
  facet normal -0.857652 -0 -0.514231
    outer loop
      vertex 15.4135 5 -13.0555
      vertex 15.4993 -5 -13.1986
      vertex 15.4135 -5 -13.0555
    endloop
  endfacet
  facet normal -0.59557 0 -0.803303
    outer loop
      vertex 15 -5 -12.6277
      vertex 15.0785 5 -12.6859
      vertex 15.0785 -5 -12.6859
    endloop
  endfacet
  facet normal -0.59557 0 -0.803303
    outer loop
      vertex 15.0785 5 -12.6859
      vertex 15 -5 -12.6277
      vertex 15 5 -12.6277
    endloop
  endfacet
  facet normal -0.146788 0 0.989168
    outer loop
      vertex 14.1666 5 -15.6918
      vertex 14.3317 -5 -15.6673
      vertex 14.3317 5 -15.6673
    endloop
  endfacet
  facet normal -0.146788 0 0.989168
    outer loop
      vertex 14.3317 -5 -15.6673
      vertex 14.1666 5 -15.6918
      vertex 14.1666 -5 -15.6918
    endloop
  endfacet
  facet normal -0.427442 0 0.904043
    outer loop
      vertex 14.6506 5 -15.5706
      vertex 14.8014 -5 -15.4993
      vertex 14.8014 5 -15.4993
    endloop
  endfacet
  facet normal -0.427442 0 0.904043
    outer loop
      vertex 14.8014 -5 -15.4993
      vertex 14.6506 5 -15.5706
      vertex 14.6506 -5 -15.5706
    endloop
  endfacet
  facet normal -0.671478 0 0.741024
    outer loop
      vertex 15.0785 5 -15.3141
      vertex 15.2021 -5 -15.2021
      vertex 15.2021 5 -15.2021
    endloop
  endfacet
  facet normal -0.671478 0 0.741024
    outer loop
      vertex 15.2021 -5 -15.2021
      vertex 15.0785 5 -15.3141
      vertex 15.0785 -5 -15.3141
    endloop
  endfacet
  facet normal -0.514231 0 0.857652
    outer loop
      vertex 14.8014 5 -15.4993
      vertex 14.9445 -5 -15.4135
      vertex 14.9445 5 -15.4135
    endloop
  endfacet
  facet normal -0.514231 0 0.857652
    outer loop
      vertex 14.9445 -5 -15.4135
      vertex 14.8014 5 -15.4993
      vertex 14.8014 -5 -15.4993
    endloop
  endfacet
  facet normal -0.595772 0 0.803154
    outer loop
      vertex 14.9445 5 -15.4135
      vertex 15.0785 -5 -15.3141
      vertex 15.0785 5 -15.3141
    endloop
  endfacet
  facet normal -0.595772 0 0.803154
    outer loop
      vertex 15.0785 -5 -15.3141
      vertex 14.9445 5 -15.4135
      vertex 14.9445 -5 -15.4135
    endloop
  endfacet
  facet normal -0.803154 0 0.595772
    outer loop
      vertex 15.3141 -5 -15.0785
      vertex 15.4135 5 -14.9445
      vertex 15.3141 5 -15.0785
    endloop
  endfacet
  facet normal -0.803154 0 0.595772
    outer loop
      vertex 15.4135 5 -14.9445
      vertex 15.3141 -5 -15.0785
      vertex 15.4135 -5 -14.9445
    endloop
  endfacet
  facet normal -0.941566 0 0.33683
    outer loop
      vertex 15.5706 -5 -14.6506
      vertex 15.6268 5 -14.4935
      vertex 15.5706 5 -14.6506
    endloop
  endfacet
  facet normal -0.941566 0 0.33683
    outer loop
      vertex 15.6268 5 -14.4935
      vertex 15.5706 -5 -14.6506
      vertex 15.6268 -5 -14.4935
    endloop
  endfacet
  facet normal -0.989168 0 0.146788
    outer loop
      vertex 15.6673 -5 -14.3317
      vertex 15.6918 5 -14.1666
      vertex 15.6673 5 -14.3317
    endloop
  endfacet
  facet normal -0.989168 0 0.146788
    outer loop
      vertex 15.6918 5 -14.1666
      vertex 15.6673 -5 -14.3317
      vertex 15.6918 -5 -14.1666
    endloop
  endfacet
  facet normal -0.998791 0 0.0491602
    outer loop
      vertex 15.6918 -5 -14.1666
      vertex 15.7 5 -14
      vertex 15.6918 5 -14.1666
    endloop
  endfacet
  facet normal -0.998791 0 0.0491602
    outer loop
      vertex 15.7 5 -14
      vertex 15.6918 -5 -14.1666
      vertex 15.7 -5 -14
    endloop
  endfacet
  facet normal 0.514231 0 0.857652
    outer loop
      vertex 13.0555 5 -15.4135
      vertex 13.1986 -5 -15.4993
      vertex 13.1986 5 -15.4993
    endloop
  endfacet
  facet normal 0.514231 0 0.857652
    outer loop
      vertex 13.1986 -5 -15.4993
      vertex 13.0555 5 -15.4135
      vertex 13.0555 -5 -15.4135
    endloop
  endfacet
  facet normal 0.427442 0 0.904043
    outer loop
      vertex 13.1986 5 -15.4993
      vertex 13.3494 -5 -15.5706
      vertex 13.3494 5 -15.5706
    endloop
  endfacet
  facet normal 0.427442 0 0.904043
    outer loop
      vertex 13.3494 -5 -15.5706
      vertex 13.1986 5 -15.4993
      vertex 13.1986 -5 -15.4993
    endloop
  endfacet
  facet normal 0.242818 0 0.970072
    outer loop
      vertex 13.5065 5 -15.6268
      vertex 13.6683 -5 -15.6673
      vertex 13.6683 5 -15.6673
    endloop
  endfacet
  facet normal 0.242818 0 0.970072
    outer loop
      vertex 13.6683 -5 -15.6673
      vertex 13.5065 5 -15.6268
      vertex 13.5065 -5 -15.6268
    endloop
  endfacet
  facet normal 0.146788 0 0.989168
    outer loop
      vertex 13.6683 5 -15.6673
      vertex 13.8334 -5 -15.6918
      vertex 13.8334 5 -15.6918
    endloop
  endfacet
  facet normal 0.146788 0 0.989168
    outer loop
      vertex 13.8334 -5 -15.6918
      vertex 13.6683 5 -15.6673
      vertex 13.6683 -5 -15.6673
    endloop
  endfacet
  facet normal 0.0491602 0 0.998791
    outer loop
      vertex 13.8334 5 -15.6918
      vertex 14 -5 -15.7
      vertex 14 5 -15.7
    endloop
  endfacet
  facet normal 0.0491602 0 0.998791
    outer loop
      vertex 14 -5 -15.7
      vertex 13.8334 5 -15.6918
      vertex 13.8334 -5 -15.6918
    endloop
  endfacet
  facet normal 0.803303 -0 0.59557
    outer loop
      vertex 12.6277 -5 -15
      vertex 12.6859 5 -15.0785
      vertex 12.6277 5 -15
    endloop
  endfacet
  facet normal 0.803303 0 0.59557
    outer loop
      vertex 12.6859 5 -15.0785
      vertex 12.6277 -5 -15
      vertex 12.6859 -5 -15.0785
    endloop
  endfacet
  facet normal -0.33683 0 0.941566
    outer loop
      vertex 14.4935 5 -15.6268
      vertex 14.6506 -5 -15.5706
      vertex 14.6506 5 -15.5706
    endloop
  endfacet
  facet normal -0.33683 0 0.941566
    outer loop
      vertex 14.6506 -5 -15.5706
      vertex 14.4935 5 -15.6268
      vertex 14.4935 -5 -15.6268
    endloop
  endfacet
  facet normal -0.904088 -0.427347 0
    outer loop
      vertex -18.6458 -3.41418 -19
      vertex -18.7716 -3.14804 19
      vertex -18.7716 -3.14804 -19
    endloop
  endfacet
  facet normal -0.904088 -0.427347 0
    outer loop
      vertex -18.7716 -3.14804 19
      vertex -18.6458 -3.41418 -19
      vertex -18.6458 -3.41418 19
    endloop
  endfacet
  facet normal 0.941523 0.33695 0
    outer loop
      vertex 18.8708 2.87085 19
      vertex 18.7716 3.14804 -19
      vertex 18.7716 3.14804 19
    endloop
  endfacet
  facet normal 0.941523 0.33695 0
    outer loop
      vertex 18.7716 3.14804 -19
      vertex 18.8708 2.87085 19
      vertex 18.8708 2.87085 -19
    endloop
  endfacet
  facet normal -0.941523 -0.33695 0
    outer loop
      vertex -18.7716 -3.14804 -19
      vertex -18.8708 -2.87085 19
      vertex -18.8708 -2.87085 -19
    endloop
  endfacet
  facet normal -0.941523 -0.33695 0
    outer loop
      vertex -18.8708 -2.87085 19
      vertex -18.7716 -3.14804 -19
      vertex -18.7716 -3.14804 19
    endloop
  endfacet
  facet normal -0.146696 0.989182 0
    outer loop
      vertex -16.294 4.98555 -19
      vertex -16.5853 4.94235 19
      vertex -16.294 4.98555 19
    endloop
  endfacet
  facet normal -0.146696 0.989182 0
    outer loop
      vertex -16.5853 4.94235 19
      vertex -16.294 4.98555 -19
      vertex -16.5853 4.94235 -19
    endloop
  endfacet
  facet normal -0.941523 0.33695 0
    outer loop
      vertex -18.8708 2.87085 -19
      vertex -18.7716 3.14804 19
      vertex -18.7716 3.14804 -19
    endloop
  endfacet
  facet normal -0.941523 0.33695 0
    outer loop
      vertex -18.7716 3.14804 19
      vertex -18.8708 2.87085 -19
      vertex -18.8708 2.87085 19
    endloop
  endfacet
  facet normal 0.146696 0.989182 -0
    outer loop
      vertex 16.5853 4.94235 -19
      vertex 16.294 4.98555 19
      vertex 16.5853 4.94235 19
    endloop
  endfacet
  facet normal 0.146696 0.989182 0
    outer loop
      vertex 16.294 4.98555 19
      vertex 16.5853 4.94235 -19
      vertex 16.294 4.98555 -19
    endloop
  endfacet
  facet normal 0 -1 0
    outer loop
      vertex -16 -5 19
      vertex -15 -5 15
      vertex 16 -5 19
    endloop
  endfacet
  facet normal 0 -1 0
    outer loop
      vertex -15.6268 -5 -13.5065
      vertex -15 -5 15
      vertex -16 -5 19
    endloop
  endfacet
  facet normal 0 -1 -0
    outer loop
      vertex -15 -5 15
      vertex -15.0785 -5 -12.6859
      vertex -15 -5 -12.6277
    endloop
  endfacet
  facet normal 0 -1 0
    outer loop
      vertex -15 -5 15
      vertex -15.2021 -5 -12.7979
      vertex -15.0785 -5 -12.6859
    endloop
  endfacet
  facet normal 0 -1 0
    outer loop
      vertex -15 -5 15
      vertex -15.3141 -5 -12.9215
      vertex -15.2021 -5 -12.7979
    endloop
  endfacet
  facet normal 0 -1 0
    outer loop
      vertex -15 -5 15
      vertex -15.4135 -5 -13.0555
      vertex -15.3141 -5 -12.9215
    endloop
  endfacet
  facet normal 0 -1 0
    outer loop
      vertex -15 -5 15
      vertex -15.4993 -5 -13.1986
      vertex -15.4135 -5 -13.0555
    endloop
  endfacet
  facet normal 0 -1 0
    outer loop
      vertex -15 -5 15
      vertex -15.5706 -5 -13.3494
      vertex -15.4993 -5 -13.1986
    endloop
  endfacet
  facet normal 0 -1 0
    outer loop
      vertex -15 -5 15
      vertex -15.6268 -5 -13.5065
      vertex -15.5706 -5 -13.3494
    endloop
  endfacet
  facet normal 0 -1 0
    outer loop
      vertex -16 -5 19
      vertex -15.6673 -5 -13.6683
      vertex -15.6268 -5 -13.5065
    endloop
  endfacet
  facet normal 0 -1 0
    outer loop
      vertex -16 -5 19
      vertex -15.6918 -5 -13.8334
      vertex -15.6673 -5 -13.6683
    endloop
  endfacet
  facet normal 0 -1 0
    outer loop
      vertex -16 -5 19
      vertex -15.7 -5 -14
      vertex -15.6918 -5 -13.8334
    endloop
  endfacet
  facet normal 0 -1 0
    outer loop
      vertex 13.6683 -5 -15.6673
      vertex 16 -5 -19
      vertex 13.8334 -5 -15.6918
    endloop
  endfacet
  facet normal 0 -1 -0
    outer loop
      vertex -14.1666 -5 -15.6918
      vertex -16 -5 -19
      vertex -14 -5 -15.7
    endloop
  endfacet
  facet normal 0 -1 -0
    outer loop
      vertex -14.3317 -5 -15.6673
      vertex -16 -5 -19
      vertex -14.1666 -5 -15.6918
    endloop
  endfacet
  facet normal 0 -1 -0
    outer loop
      vertex -14.4935 -5 -15.6268
      vertex -16 -5 -19
      vertex -14.3317 -5 -15.6673
    endloop
  endfacet
  facet normal 0 -1 -0
    outer loop
      vertex -14.6506 -5 -15.5706
      vertex -16 -5 -19
      vertex -14.4935 -5 -15.6268
    endloop
  endfacet
  facet normal 0 -1 -0
    outer loop
      vertex -14.8014 -5 -15.4993
      vertex -16 -5 -19
      vertex -14.6506 -5 -15.5706
    endloop
  endfacet
  facet normal 0 -1 -0
    outer loop
      vertex -14.9445 -5 -15.4135
      vertex -16 -5 -19
      vertex -14.8014 -5 -15.4993
    endloop
  endfacet
  facet normal 0 -1 -0
    outer loop
      vertex -15.0785 -5 -15.3141
      vertex -16 -5 -19
      vertex -14.9445 -5 -15.4135
    endloop
  endfacet
  facet normal 0 -1 -0
    outer loop
      vertex -15.2021 -5 -15.2021
      vertex -16 -5 -19
      vertex -15.0785 -5 -15.3141
    endloop
  endfacet
  facet normal 0 -1 -0
    outer loop
      vertex -15.3141 -5 -15.0785
      vertex -16 -5 -19
      vertex -15.2021 -5 -15.2021
    endloop
  endfacet
  facet normal 0 -1 -0
    outer loop
      vertex -15.4135 -5 -14.9445
      vertex -16 -5 -19
      vertex -15.3141 -5 -15.0785
    endloop
  endfacet
  facet normal 0 -1 -0
    outer loop
      vertex -15.4993 -5 -14.8014
      vertex -16 -5 -19
      vertex -15.4135 -5 -14.9445
    endloop
  endfacet
  facet normal 0 -1 -0
    outer loop
      vertex -15.5706 -5 -14.6506
      vertex -16 -5 -19
      vertex -15.4993 -5 -14.8014
    endloop
  endfacet
  facet normal 0 -1 -0
    outer loop
      vertex -15.6268 -5 -14.4935
      vertex -16 -5 -19
      vertex -15.5706 -5 -14.6506
    endloop
  endfacet
  facet normal 0 -1 -0
    outer loop
      vertex -15.6673 -5 -14.3317
      vertex -16 -5 -19
      vertex -15.6268 -5 -14.4935
    endloop
  endfacet
  facet normal 0 -1 -0
    outer loop
      vertex -15.6918 -5 -14.1666
      vertex -16 -5 -19
      vertex -15.6673 -5 -14.3317
    endloop
  endfacet
  facet normal 0 -1 -0
    outer loop
      vertex -15.7 -5 -14
      vertex -16 -5 -19
      vertex -15.6918 -5 -14.1666
    endloop
  endfacet
  facet normal 0 -1 0
    outer loop
      vertex -16 -5 -19
      vertex -15.7 -5 -14
      vertex -16 -5 19
    endloop
  endfacet
  facet normal 0 -1 0
    outer loop
      vertex 15 -5 15
      vertex 16 -5 19
      vertex -15 -5 15
    endloop
  endfacet
  facet normal 0 -1 0
    outer loop
      vertex 15.0785 -5 -12.6859
      vertex 15 -5 15
      vertex 15 -5 -12.6277
    endloop
  endfacet
  facet normal 0 -1 0
    outer loop
      vertex 15.2021 -5 -12.7979
      vertex 15 -5 15
      vertex 15.0785 -5 -12.6859
    endloop
  endfacet
  facet normal 0 -1 0
    outer loop
      vertex 15.3141 -5 -12.9215
      vertex 15 -5 15
      vertex 15.2021 -5 -12.7979
    endloop
  endfacet
  facet normal 0 -1 0
    outer loop
      vertex 15.4135 -5 -13.0555
      vertex 15 -5 15
      vertex 15.3141 -5 -12.9215
    endloop
  endfacet
  facet normal 0 -1 0
    outer loop
      vertex 15.4993 -5 -13.1986
      vertex 15 -5 15
      vertex 15.4135 -5 -13.0555
    endloop
  endfacet
  facet normal 0 -1 0
    outer loop
      vertex 15.5706 -5 -13.3494
      vertex 15 -5 15
      vertex 15.4993 -5 -13.1986
    endloop
  endfacet
  facet normal 0 -1 0
    outer loop
      vertex 15.6268 -5 -13.5065
      vertex 15 -5 15
      vertex 15.5706 -5 -13.3494
    endloop
  endfacet
  facet normal 0 -1 0
    outer loop
      vertex 15 -5 15
      vertex 15.6268 -5 -13.5065
      vertex 16 -5 19
    endloop
  endfacet
  facet normal 0 -1 0
    outer loop
      vertex 15.6673 -5 -13.6683
      vertex 16 -5 19
      vertex 15.6268 -5 -13.5065
    endloop
  endfacet
  facet normal 0 -1 0
    outer loop
      vertex 15.6918 -5 -13.8334
      vertex 16 -5 19
      vertex 15.6673 -5 -13.6683
    endloop
  endfacet
  facet normal 0 -1 0
    outer loop
      vertex 15.7 -5 -14
      vertex 16 -5 19
      vertex 15.6918 -5 -13.8334
    endloop
  endfacet
  facet normal 0 -1 0
    outer loop
      vertex 13.8334 -5 -15.6918
      vertex 16 -5 -19
      vertex 14 -5 -15.7
    endloop
  endfacet
  facet normal 0 -1 0
    outer loop
      vertex 15.7 -5 -14
      vertex 16 -5 -19
      vertex 16 -5 19
    endloop
  endfacet
  facet normal 0 -1 0
    outer loop
      vertex 15.6918 -5 -14.1666
      vertex 16 -5 -19
      vertex 15.7 -5 -14
    endloop
  endfacet
  facet normal 0 -1 0
    outer loop
      vertex 15.6673 -5 -14.3317
      vertex 16 -5 -19
      vertex 15.6918 -5 -14.1666
    endloop
  endfacet
  facet normal 0 -1 0
    outer loop
      vertex 15.6268 -5 -14.4935
      vertex 16 -5 -19
      vertex 15.6673 -5 -14.3317
    endloop
  endfacet
  facet normal 0 -1 0
    outer loop
      vertex 15.5706 -5 -14.6506
      vertex 16 -5 -19
      vertex 15.6268 -5 -14.4935
    endloop
  endfacet
  facet normal 0 -1 0
    outer loop
      vertex 15.4993 -5 -14.8014
      vertex 16 -5 -19
      vertex 15.5706 -5 -14.6506
    endloop
  endfacet
  facet normal 0 -1 0
    outer loop
      vertex 15.4135 -5 -14.9445
      vertex 16 -5 -19
      vertex 15.4993 -5 -14.8014
    endloop
  endfacet
  facet normal 0 -1 0
    outer loop
      vertex 15.3141 -5 -15.0785
      vertex 16 -5 -19
      vertex 15.4135 -5 -14.9445
    endloop
  endfacet
  facet normal 0 -1 0
    outer loop
      vertex 15.2021 -5 -15.2021
      vertex 16 -5 -19
      vertex 15.3141 -5 -15.0785
    endloop
  endfacet
  facet normal 0 -1 0
    outer loop
      vertex 15.0785 -5 -15.3141
      vertex 16 -5 -19
      vertex 15.2021 -5 -15.2021
    endloop
  endfacet
  facet normal 0 -1 0
    outer loop
      vertex 14.9445 -5 -15.4135
      vertex 16 -5 -19
      vertex 15.0785 -5 -15.3141
    endloop
  endfacet
  facet normal 0 -1 0
    outer loop
      vertex 14.8014 -5 -15.4993
      vertex 16 -5 -19
      vertex 14.9445 -5 -15.4135
    endloop
  endfacet
  facet normal 0 -1 0
    outer loop
      vertex 14.6506 -5 -15.5706
      vertex 16 -5 -19
      vertex 14.8014 -5 -15.4993
    endloop
  endfacet
  facet normal 0 -1 0
    outer loop
      vertex 14.4935 -5 -15.6268
      vertex 16 -5 -19
      vertex 14.6506 -5 -15.5706
    endloop
  endfacet
  facet normal 0 -1 0
    outer loop
      vertex 14.3317 -5 -15.6673
      vertex 16 -5 -19
      vertex 14.4935 -5 -15.6268
    endloop
  endfacet
  facet normal 0 -1 0
    outer loop
      vertex 14.1666 -5 -15.6918
      vertex 16 -5 -19
      vertex 14.3317 -5 -15.6673
    endloop
  endfacet
  facet normal 0 -1 0
    outer loop
      vertex 14 -5 -15.7
      vertex 16 -5 -19
      vertex 14.1666 -5 -15.6918
    endloop
  endfacet
  facet normal 0 -1 0
    outer loop
      vertex -12.6859 -5 -15.0785
      vertex 12.6277 -5 -15
      vertex -12.6277 -5 -15
    endloop
  endfacet
  facet normal 0 -1 0
    outer loop
      vertex -12.6859 -5 -15.0785
      vertex 12.6859 -5 -15.0785
      vertex 12.6277 -5 -15
    endloop
  endfacet
  facet normal 0 -1 0
    outer loop
      vertex -12.7979 -5 -15.2021
      vertex 12.6859 -5 -15.0785
      vertex -12.6859 -5 -15.0785
    endloop
  endfacet
  facet normal 0 -1 0
    outer loop
      vertex -12.7979 -5 -15.2021
      vertex 12.7979 -5 -15.2021
      vertex 12.6859 -5 -15.0785
    endloop
  endfacet
  facet normal 0 -1 0
    outer loop
      vertex -12.9215 -5 -15.3141
      vertex 12.7979 -5 -15.2021
      vertex -12.7979 -5 -15.2021
    endloop
  endfacet
  facet normal 0 -1 0
    outer loop
      vertex -12.9215 -5 -15.3141
      vertex 12.9215 -5 -15.3141
      vertex 12.7979 -5 -15.2021
    endloop
  endfacet
  facet normal 0 -1 0
    outer loop
      vertex -16 -5 -19
      vertex -12.9215 -5 -15.3141
      vertex -13.0555 -5 -15.4135
    endloop
  endfacet
  facet normal 0 -1 -0
    outer loop
      vertex -12.9215 -5 -15.3141
      vertex -16 -5 -19
      vertex 12.9215 -5 -15.3141
    endloop
  endfacet
  facet normal 0 -1 0
    outer loop
      vertex -16 -5 -19
      vertex -13.0555 -5 -15.4135
      vertex -13.1986 -5 -15.4993
    endloop
  endfacet
  facet normal 0 -1 0
    outer loop
      vertex 16 -5 -19
      vertex 12.9215 -5 -15.3141
      vertex -16 -5 -19
    endloop
  endfacet
  facet normal 0 -1 0
    outer loop
      vertex -16 -5 -19
      vertex -13.1986 -5 -15.4993
      vertex -13.3494 -5 -15.5706
    endloop
  endfacet
  facet normal 0 -1 0
    outer loop
      vertex 12.9215 -5 -15.3141
      vertex 16 -5 -19
      vertex 13.0555 -5 -15.4135
    endloop
  endfacet
  facet normal 0 -1 0
    outer loop
      vertex -16 -5 -19
      vertex -13.3494 -5 -15.5706
      vertex -13.5065 -5 -15.6268
    endloop
  endfacet
  facet normal 0 -1 0
    outer loop
      vertex 13.0555 -5 -15.4135
      vertex 16 -5 -19
      vertex 13.1986 -5 -15.4993
    endloop
  endfacet
  facet normal 0 -1 0
    outer loop
      vertex -16 -5 -19
      vertex -13.5065 -5 -15.6268
      vertex -13.6683 -5 -15.6673
    endloop
  endfacet
  facet normal 0 -1 0
    outer loop
      vertex 13.1986 -5 -15.4993
      vertex 16 -5 -19
      vertex 13.3494 -5 -15.5706
    endloop
  endfacet
  facet normal 0 -1 0
    outer loop
      vertex -16 -5 -19
      vertex -13.6683 -5 -15.6673
      vertex -13.8334 -5 -15.6918
    endloop
  endfacet
  facet normal 0 -1 0
    outer loop
      vertex 13.3494 -5 -15.5706
      vertex 16 -5 -19
      vertex 13.5065 -5 -15.6268
    endloop
  endfacet
  facet normal 0 -1 0
    outer loop
      vertex -16 -5 -19
      vertex -13.8334 -5 -15.6918
      vertex -14 -5 -15.7
    endloop
  endfacet
  facet normal 0 -1 0
    outer loop
      vertex 13.5065 -5 -15.6268
      vertex 16 -5 -19
      vertex 13.6683 -5 -15.6673
    endloop
  endfacet
  facet normal 0.146696 -0.989182 0
    outer loop
      vertex 16.294 -4.98555 -19
      vertex 16.5853 -4.94235 19
      vertex 16.294 -4.98555 19
    endloop
  endfacet
  facet normal 0.146696 -0.989182 0
    outer loop
      vertex 16.5853 -4.94235 19
      vertex 16.294 -4.98555 -19
      vertex 16.5853 -4.94235 -19
    endloop
  endfacet
  facet normal -1 0 0
    outer loop
      vertex -19 -2 -19
      vertex -19 2 19
      vertex -19 2 -19
    endloop
  endfacet
  facet normal -1 -0 0
    outer loop
      vertex -19 2 19
      vertex -19 -2 -19
      vertex -19 -2 19
    endloop
  endfacet
  facet normal 0.740969 0.671539 0
    outer loop
      vertex 18.319 3.90317 19
      vertex 18.1213 4.12131 -19
      vertex 18.1213 4.12131 19
    endloop
  endfacet
  facet normal 0.740969 0.671539 0
    outer loop
      vertex 18.1213 4.12131 -19
      vertex 18.319 3.90317 19
      vertex 18.319 3.90317 -19
    endloop
  endfacet
  facet normal 0.243031 0.970018 -0
    outer loop
      vertex 16.8708 4.87082 -19
      vertex 16.5853 4.94235 19
      vertex 16.8708 4.87082 19
    endloop
  endfacet
  facet normal 0.243031 0.970018 0
    outer loop
      vertex 16.5853 4.94235 19
      vertex 16.8708 4.87082 -19
      vertex 16.5853 4.94235 -19
    endloop
  endfacet
  facet normal 0 1 0
    outer loop
      vertex 16 5 19
      vertex 15 5 15
      vertex -16 5 19
    endloop
  endfacet
  facet normal 0 1 -0
    outer loop
      vertex 15.6268 5 -13.5065
      vertex 15 5 15
      vertex 16 5 19
    endloop
  endfacet
  facet normal 0 1 0
    outer loop
      vertex 15 5 15
      vertex 15.0785 5 -12.6859
      vertex 15 5 -12.6277
    endloop
  endfacet
  facet normal 0 1 0
    outer loop
      vertex 15 5 15
      vertex 15.2021 5 -12.7979
      vertex 15.0785 5 -12.6859
    endloop
  endfacet
  facet normal 0 1 0
    outer loop
      vertex 15 5 15
      vertex 15.3141 5 -12.9215
      vertex 15.2021 5 -12.7979
    endloop
  endfacet
  facet normal 0 1 0
    outer loop
      vertex 15 5 15
      vertex 15.4135 5 -13.0555
      vertex 15.3141 5 -12.9215
    endloop
  endfacet
  facet normal 0 1 0
    outer loop
      vertex 15 5 15
      vertex 15.4993 5 -13.1986
      vertex 15.4135 5 -13.0555
    endloop
  endfacet
  facet normal 0 1 0
    outer loop
      vertex 15 5 15
      vertex 15.5706 5 -13.3494
      vertex 15.4993 5 -13.1986
    endloop
  endfacet
  facet normal 0 1 0
    outer loop
      vertex 15 5 15
      vertex 15.6268 5 -13.5065
      vertex 15.5706 5 -13.3494
    endloop
  endfacet
  facet normal 0 1 0
    outer loop
      vertex 16 5 19
      vertex 15.6673 5 -13.6683
      vertex 15.6268 5 -13.5065
    endloop
  endfacet
  facet normal 0 1 0
    outer loop
      vertex 16 5 19
      vertex 15.6918 5 -13.8334
      vertex 15.6673 5 -13.6683
    endloop
  endfacet
  facet normal 0 1 0
    outer loop
      vertex 16 5 19
      vertex 15.7 5 -14
      vertex 15.6918 5 -13.8334
    endloop
  endfacet
  facet normal 0 1 0
    outer loop
      vertex -13.6683 5 -15.6673
      vertex -16 5 -19
      vertex -13.8334 5 -15.6918
    endloop
  endfacet
  facet normal 0 1 0
    outer loop
      vertex 14.1666 5 -15.6918
      vertex 16 5 -19
      vertex 14 5 -15.7
    endloop
  endfacet
  facet normal 0 1 0
    outer loop
      vertex 14.3317 5 -15.6673
      vertex 16 5 -19
      vertex 14.1666 5 -15.6918
    endloop
  endfacet
  facet normal 0 1 0
    outer loop
      vertex 14.4935 5 -15.6268
      vertex 16 5 -19
      vertex 14.3317 5 -15.6673
    endloop
  endfacet
  facet normal 0 1 0
    outer loop
      vertex 14.6506 5 -15.5706
      vertex 16 5 -19
      vertex 14.4935 5 -15.6268
    endloop
  endfacet
  facet normal 0 1 0
    outer loop
      vertex 14.8014 5 -15.4993
      vertex 16 5 -19
      vertex 14.6506 5 -15.5706
    endloop
  endfacet
  facet normal 0 1 0
    outer loop
      vertex 14.9445 5 -15.4135
      vertex 16 5 -19
      vertex 14.8014 5 -15.4993
    endloop
  endfacet
  facet normal 0 1 0
    outer loop
      vertex 15.0785 5 -15.3141
      vertex 16 5 -19
      vertex 14.9445 5 -15.4135
    endloop
  endfacet
  facet normal 0 1 0
    outer loop
      vertex 15.2021 5 -15.2021
      vertex 16 5 -19
      vertex 15.0785 5 -15.3141
    endloop
  endfacet
  facet normal 0 1 0
    outer loop
      vertex 15.3141 5 -15.0785
      vertex 16 5 -19
      vertex 15.2021 5 -15.2021
    endloop
  endfacet
  facet normal 0 1 0
    outer loop
      vertex 15.4135 5 -14.9445
      vertex 16 5 -19
      vertex 15.3141 5 -15.0785
    endloop
  endfacet
  facet normal 0 1 0
    outer loop
      vertex 15.4993 5 -14.8014
      vertex 16 5 -19
      vertex 15.4135 5 -14.9445
    endloop
  endfacet
  facet normal 0 1 0
    outer loop
      vertex 15.5706 5 -14.6506
      vertex 16 5 -19
      vertex 15.4993 5 -14.8014
    endloop
  endfacet
  facet normal 0 1 0
    outer loop
      vertex 15.6268 5 -14.4935
      vertex 16 5 -19
      vertex 15.5706 5 -14.6506
    endloop
  endfacet
  facet normal 0 1 0
    outer loop
      vertex 15.6673 5 -14.3317
      vertex 16 5 -19
      vertex 15.6268 5 -14.4935
    endloop
  endfacet
  facet normal 0 1 0
    outer loop
      vertex 15.6918 5 -14.1666
      vertex 16 5 -19
      vertex 15.6673 5 -14.3317
    endloop
  endfacet
  facet normal 0 1 0
    outer loop
      vertex 15.7 5 -14
      vertex 16 5 -19
      vertex 15.6918 5 -14.1666
    endloop
  endfacet
  facet normal 0 1 -0
    outer loop
      vertex 16 5 -19
      vertex 15.7 5 -14
      vertex 16 5 19
    endloop
  endfacet
  facet normal 0 1 -0
    outer loop
      vertex -15 5 15
      vertex -16 5 19
      vertex 15 5 15
    endloop
  endfacet
  facet normal 0 1 0
    outer loop
      vertex -15.0785 5 -12.6859
      vertex -15 5 15
      vertex -15 5 -12.6277
    endloop
  endfacet
  facet normal 0 1 0
    outer loop
      vertex -15.2021 5 -12.7979
      vertex -15 5 15
      vertex -15.0785 5 -12.6859
    endloop
  endfacet
  facet normal 0 1 0
    outer loop
      vertex -15.3141 5 -12.9215
      vertex -15 5 15
      vertex -15.2021 5 -12.7979
    endloop
  endfacet
  facet normal 0 1 0
    outer loop
      vertex -15.4135 5 -13.0555
      vertex -15 5 15
      vertex -15.3141 5 -12.9215
    endloop
  endfacet
  facet normal 0 1 0
    outer loop
      vertex -15.4993 5 -13.1986
      vertex -15 5 15
      vertex -15.4135 5 -13.0555
    endloop
  endfacet
  facet normal 0 1 0
    outer loop
      vertex -15.5706 5 -13.3494
      vertex -15 5 15
      vertex -15.4993 5 -13.1986
    endloop
  endfacet
  facet normal 0 1 0
    outer loop
      vertex -15.6268 5 -13.5065
      vertex -15 5 15
      vertex -15.5706 5 -13.3494
    endloop
  endfacet
  facet normal 0 1 0
    outer loop
      vertex -15 5 15
      vertex -15.6268 5 -13.5065
      vertex -16 5 19
    endloop
  endfacet
  facet normal 0 1 -0
    outer loop
      vertex -15.6673 5 -13.6683
      vertex -16 5 19
      vertex -15.6268 5 -13.5065
    endloop
  endfacet
  facet normal 0 1 -0
    outer loop
      vertex -15.6918 5 -13.8334
      vertex -16 5 19
      vertex -15.6673 5 -13.6683
    endloop
  endfacet
  facet normal 0 1 -0
    outer loop
      vertex -15.7 5 -14
      vertex -16 5 19
      vertex -15.6918 5 -13.8334
    endloop
  endfacet
  facet normal 0 1 0
    outer loop
      vertex -13.8334 5 -15.6918
      vertex -16 5 -19
      vertex -14 5 -15.7
    endloop
  endfacet
  facet normal 0 1 0
    outer loop
      vertex -15.7 5 -14
      vertex -16 5 -19
      vertex -16 5 19
    endloop
  endfacet
  facet normal 0 1 0
    outer loop
      vertex -15.6918 5 -14.1666
      vertex -16 5 -19
      vertex -15.7 5 -14
    endloop
  endfacet
  facet normal 0 1 0
    outer loop
      vertex -15.6673 5 -14.3317
      vertex -16 5 -19
      vertex -15.6918 5 -14.1666
    endloop
  endfacet
  facet normal 0 1 0
    outer loop
      vertex -15.6268 5 -14.4935
      vertex -16 5 -19
      vertex -15.6673 5 -14.3317
    endloop
  endfacet
  facet normal 0 1 0
    outer loop
      vertex -15.5706 5 -14.6506
      vertex -16 5 -19
      vertex -15.6268 5 -14.4935
    endloop
  endfacet
  facet normal 0 1 0
    outer loop
      vertex -15.4993 5 -14.8014
      vertex -16 5 -19
      vertex -15.5706 5 -14.6506
    endloop
  endfacet
  facet normal 0 1 0
    outer loop
      vertex -15.4135 5 -14.9445
      vertex -16 5 -19
      vertex -15.4993 5 -14.8014
    endloop
  endfacet
  facet normal 0 1 0
    outer loop
      vertex -15.3141 5 -15.0785
      vertex -16 5 -19
      vertex -15.4135 5 -14.9445
    endloop
  endfacet
  facet normal 0 1 0
    outer loop
      vertex -15.2021 5 -15.2021
      vertex -16 5 -19
      vertex -15.3141 5 -15.0785
    endloop
  endfacet
  facet normal 0 1 0
    outer loop
      vertex -15.0785 5 -15.3141
      vertex -16 5 -19
      vertex -15.2021 5 -15.2021
    endloop
  endfacet
  facet normal 0 1 0
    outer loop
      vertex -14.9445 5 -15.4135
      vertex -16 5 -19
      vertex -15.0785 5 -15.3141
    endloop
  endfacet
  facet normal 0 1 0
    outer loop
      vertex -14.8014 5 -15.4993
      vertex -16 5 -19
      vertex -14.9445 5 -15.4135
    endloop
  endfacet
  facet normal 0 1 0
    outer loop
      vertex -14.6506 5 -15.5706
      vertex -16 5 -19
      vertex -14.8014 5 -15.4993
    endloop
  endfacet
  facet normal 0 1 0
    outer loop
      vertex -14.4935 5 -15.6268
      vertex -16 5 -19
      vertex -14.6506 5 -15.5706
    endloop
  endfacet
  facet normal 0 1 0
    outer loop
      vertex -14.3317 5 -15.6673
      vertex -16 5 -19
      vertex -14.4935 5 -15.6268
    endloop
  endfacet
  facet normal 0 1 0
    outer loop
      vertex -14.1666 5 -15.6918
      vertex -16 5 -19
      vertex -14.3317 5 -15.6673
    endloop
  endfacet
  facet normal 0 1 0
    outer loop
      vertex -14 5 -15.7
      vertex -16 5 -19
      vertex -14.1666 5 -15.6918
    endloop
  endfacet
  facet normal 0 1 0
    outer loop
      vertex 12.6859 5 -15.0785
      vertex -12.6277 5 -15
      vertex 12.6277 5 -15
    endloop
  endfacet
  facet normal 0 1 0
    outer loop
      vertex 12.6859 5 -15.0785
      vertex -12.6859 5 -15.0785
      vertex -12.6277 5 -15
    endloop
  endfacet
  facet normal 0 1 0
    outer loop
      vertex 12.7979 5 -15.2021
      vertex -12.6859 5 -15.0785
      vertex 12.6859 5 -15.0785
    endloop
  endfacet
  facet normal 0 1 0
    outer loop
      vertex 12.7979 5 -15.2021
      vertex -12.7979 5 -15.2021
      vertex -12.6859 5 -15.0785
    endloop
  endfacet
  facet normal 0 1 0
    outer loop
      vertex 12.9215 5 -15.3141
      vertex -12.7979 5 -15.2021
      vertex 12.7979 5 -15.2021
    endloop
  endfacet
  facet normal 0 1 0
    outer loop
      vertex 12.9215 5 -15.3141
      vertex -12.9215 5 -15.3141
      vertex -12.7979 5 -15.2021
    endloop
  endfacet
  facet normal 0 1 0
    outer loop
      vertex 16 5 -19
      vertex 12.9215 5 -15.3141
      vertex 13.0555 5 -15.4135
    endloop
  endfacet
  facet normal 0 1 0
    outer loop
      vertex 12.9215 5 -15.3141
      vertex 16 5 -19
      vertex -12.9215 5 -15.3141
    endloop
  endfacet
  facet normal 0 1 0
    outer loop
      vertex 16 5 -19
      vertex 13.0555 5 -15.4135
      vertex 13.1986 5 -15.4993
    endloop
  endfacet
  facet normal 0 1 0
    outer loop
      vertex -16 5 -19
      vertex -12.9215 5 -15.3141
      vertex 16 5 -19
    endloop
  endfacet
  facet normal 0 1 0
    outer loop
      vertex 16 5 -19
      vertex 13.1986 5 -15.4993
      vertex 13.3494 5 -15.5706
    endloop
  endfacet
  facet normal 0 1 0
    outer loop
      vertex -12.9215 5 -15.3141
      vertex -16 5 -19
      vertex -13.0555 5 -15.4135
    endloop
  endfacet
  facet normal 0 1 0
    outer loop
      vertex 16 5 -19
      vertex 13.3494 5 -15.5706
      vertex 13.5065 5 -15.6268
    endloop
  endfacet
  facet normal 0 1 0
    outer loop
      vertex -13.0555 5 -15.4135
      vertex -16 5 -19
      vertex -13.1986 5 -15.4993
    endloop
  endfacet
  facet normal 0 1 0
    outer loop
      vertex 16 5 -19
      vertex 13.5065 5 -15.6268
      vertex 13.6683 5 -15.6673
    endloop
  endfacet
  facet normal 0 1 0
    outer loop
      vertex -13.1986 5 -15.4993
      vertex -16 5 -19
      vertex -13.3494 5 -15.5706
    endloop
  endfacet
  facet normal 0 1 0
    outer loop
      vertex 16 5 -19
      vertex 13.6683 5 -15.6673
      vertex 13.8334 5 -15.6918
    endloop
  endfacet
  facet normal 0 1 0
    outer loop
      vertex -13.3494 5 -15.5706
      vertex -16 5 -19
      vertex -13.5065 5 -15.6268
    endloop
  endfacet
  facet normal 0 1 0
    outer loop
      vertex 16 5 -19
      vertex 13.8334 5 -15.6918
      vertex 14 5 -15.7
    endloop
  endfacet
  facet normal 0 1 0
    outer loop
      vertex -13.5065 5 -15.6268
      vertex -16 5 -19
      vertex -13.6683 5 -15.6673
    endloop
  endfacet
  facet normal -0.0490904 0.998794 0
    outer loop
      vertex -16 5 -19
      vertex -16.294 4.98555 19
      vertex -16 5 19
    endloop
  endfacet
  facet normal -0.0490904 0.998794 0
    outer loop
      vertex -16.294 4.98555 19
      vertex -16 5 -19
      vertex -16.294 4.98555 -19
    endloop
  endfacet
  facet normal 0.0490904 0.998794 -0
    outer loop
      vertex 16.294 4.98555 -19
      vertex 16 5 19
      vertex 16.294 4.98555 19
    endloop
  endfacet
  facet normal 0.0490904 0.998794 0
    outer loop
      vertex 16 5 19
      vertex 16.294 4.98555 -19
      vertex 16 5 -19
    endloop
  endfacet
  facet normal -0.427518 0.904007 0
    outer loop
      vertex -17.148 4.77164 -19
      vertex -17.4142 4.64575 19
      vertex -17.148 4.77164 19
    endloop
  endfacet
  facet normal -0.427518 0.904007 0
    outer loop
      vertex -17.4142 4.64575 19
      vertex -17.148 4.77164 -19
      vertex -17.4142 4.64575 -19
    endloop
  endfacet
  facet normal 0 0 -1
    outer loop
      vertex 16 -5 -19
      vertex 19 -2 -19
      vertex 18.9855 -2.29404 -19
    endloop
  endfacet
  facet normal -0 0 -1
    outer loop
      vertex 19 -2 -19
      vertex 16 -5 -19
      vertex 19 2 -19
    endloop
  endfacet
  facet normal 0 0 -1
    outer loop
      vertex 16 -5 -19
      vertex 18.9855 -2.29404 -19
      vertex 18.9424 -2.58527 -19
    endloop
  endfacet
  facet normal 0 0 -1
    outer loop
      vertex 16 5 -19
      vertex 19 2 -19
      vertex 16 -5 -19
    endloop
  endfacet
  facet normal 0 0 -1
    outer loop
      vertex 16 -5 -19
      vertex 18.9424 -2.58527 -19
      vertex 18.8708 -2.87085 -19
    endloop
  endfacet
  facet normal 0 0 -1
    outer loop
      vertex 19 2 -19
      vertex 16 5 -19
      vertex 18.9855 2.29404 -19
    endloop
  endfacet
  facet normal 0 0 -1
    outer loop
      vertex 16 -5 -19
      vertex 18.8708 -2.87085 -19
      vertex 18.7716 -3.14804 -19
    endloop
  endfacet
  facet normal 0 0 -1
    outer loop
      vertex 18.9855 2.29404 -19
      vertex 16 5 -19
      vertex 18.9424 2.58527 -19
    endloop
  endfacet
  facet normal 0 0 -1
    outer loop
      vertex 16 -5 -19
      vertex 18.7716 -3.14804 -19
      vertex 18.6458 -3.41418 -19
    endloop
  endfacet
  facet normal 0 0 -1
    outer loop
      vertex 18.9424 2.58527 -19
      vertex 16 5 -19
      vertex 18.8708 2.87085 -19
    endloop
  endfacet
  facet normal 0 0 -1
    outer loop
      vertex 16 -5 -19
      vertex 18.6458 -3.41418 -19
      vertex 18.4944 -3.6667 -19
    endloop
  endfacet
  facet normal 0 0 -1
    outer loop
      vertex 18.8708 2.87085 -19
      vertex 16 5 -19
      vertex 18.7716 3.14804 -19
    endloop
  endfacet
  facet normal 0 0 -1
    outer loop
      vertex 16 -5 -19
      vertex 18.4944 -3.6667 -19
      vertex 18.319 -3.90317 -19
    endloop
  endfacet
  facet normal 0 0 -1
    outer loop
      vertex 18.7716 3.14804 -19
      vertex 16 5 -19
      vertex 18.6458 3.41418 -19
    endloop
  endfacet
  facet normal 0 0 -1
    outer loop
      vertex 16 -5 -19
      vertex 18.319 -3.90317 -19
      vertex 18.1213 -4.12131 -19
    endloop
  endfacet
  facet normal 0 0 -1
    outer loop
      vertex 18.6458 3.41418 -19
      vertex 16 5 -19
      vertex 18.4944 3.6667 -19
    endloop
  endfacet
  facet normal 0 0 -1
    outer loop
      vertex 16 -5 -19
      vertex 18.1213 -4.12131 -19
      vertex 17.9032 -4.31903 -19
    endloop
  endfacet
  facet normal 0 0 -1
    outer loop
      vertex 18.4944 3.6667 -19
      vertex 16 5 -19
      vertex 18.319 3.90317 -19
    endloop
  endfacet
  facet normal 0 0 -1
    outer loop
      vertex 16 -5 -19
      vertex 17.9032 -4.31903 -19
      vertex 17.6667 -4.4944 -19
    endloop
  endfacet
  facet normal 0 0 -1
    outer loop
      vertex 18.319 3.90317 -19
      vertex 16 5 -19
      vertex 18.1213 4.12131 -19
    endloop
  endfacet
  facet normal 0 0 -1
    outer loop
      vertex 16 -5 -19
      vertex 17.6667 -4.4944 -19
      vertex 17.4142 -4.64575 -19
    endloop
  endfacet
  facet normal 0 0 -1
    outer loop
      vertex 18.1213 4.12131 -19
      vertex 16 5 -19
      vertex 17.9032 4.31903 -19
    endloop
  endfacet
  facet normal 0 0 -1
    outer loop
      vertex 16 -5 -19
      vertex 17.4142 -4.64575 -19
      vertex 17.148 -4.77164 -19
    endloop
  endfacet
  facet normal 0 0 -1
    outer loop
      vertex 17.9032 4.31903 -19
      vertex 16 5 -19
      vertex 17.6667 4.4944 -19
    endloop
  endfacet
  facet normal 0 0 -1
    outer loop
      vertex 16 -5 -19
      vertex 17.148 -4.77164 -19
      vertex 16.8708 -4.87082 -19
    endloop
  endfacet
  facet normal 0 0 -1
    outer loop
      vertex 17.6667 4.4944 -19
      vertex 16 5 -19
      vertex 17.4142 4.64575 -19
    endloop
  endfacet
  facet normal 0 0 -1
    outer loop
      vertex 16 -5 -19
      vertex 16.8708 -4.87082 -19
      vertex 16.5853 -4.94235 -19
    endloop
  endfacet
  facet normal 0 0 -1
    outer loop
      vertex 17.4142 4.64575 -19
      vertex 16 5 -19
      vertex 17.148 4.77164 -19
    endloop
  endfacet
  facet normal 0 0 -1
    outer loop
      vertex 16 -5 -19
      vertex 16.5853 -4.94235 -19
      vertex 16.294 -4.98555 -19
    endloop
  endfacet
  facet normal 0 0 -1
    outer loop
      vertex 17.148 4.77164 -19
      vertex 16 5 -19
      vertex 16.8708 4.87082 -19
    endloop
  endfacet
  facet normal 0 0 -1
    outer loop
      vertex 16.8708 4.87082 -19
      vertex 16 5 -19
      vertex 16.5853 4.94235 -19
    endloop
  endfacet
  facet normal 0 0 -1
    outer loop
      vertex 16.5853 4.94235 -19
      vertex 16 5 -19
      vertex 16.294 4.98555 -19
    endloop
  endfacet
  facet normal 0 0 -1
    outer loop
      vertex -16 -5 -19
      vertex 16 5 -19
      vertex 16 -5 -19
    endloop
  endfacet
  facet normal 0 0 -1
    outer loop
      vertex -16 -5 -19
      vertex -16 5 -19
      vertex 16 5 -19
    endloop
  endfacet
  facet normal 0 0 -1
    outer loop
      vertex -19 -2 -19
      vertex -16 -5 -19
      vertex -16.294 -4.98555 -19
    endloop
  endfacet
  facet normal 0 0 -1
    outer loop
      vertex -16 -5 -19
      vertex -19 -2 -19
      vertex -16 5 -19
    endloop
  endfacet
  facet normal 0 0 -1
    outer loop
      vertex -19 -2 -19
      vertex -16.294 -4.98555 -19
      vertex -16.5853 -4.94235 -19
    endloop
  endfacet
  facet normal 0 0 -1
    outer loop
      vertex -19 2 -19
      vertex -16 5 -19
      vertex -19 -2 -19
    endloop
  endfacet
  facet normal 0 0 -1
    outer loop
      vertex -19 -2 -19
      vertex -16.5853 -4.94235 -19
      vertex -16.8708 -4.87082 -19
    endloop
  endfacet
  facet normal 0 0 -1
    outer loop
      vertex -16 5 -19
      vertex -19 2 -19
      vertex -16.294 4.98555 -19
    endloop
  endfacet
  facet normal 0 0 -1
    outer loop
      vertex -19 -2 -19
      vertex -16.8708 -4.87082 -19
      vertex -17.148 -4.77164 -19
    endloop
  endfacet
  facet normal 0 0 -1
    outer loop
      vertex -16.294 4.98555 -19
      vertex -19 2 -19
      vertex -16.5853 4.94235 -19
    endloop
  endfacet
  facet normal 0 0 -1
    outer loop
      vertex -19 -2 -19
      vertex -17.148 -4.77164 -19
      vertex -17.4142 -4.64575 -19
    endloop
  endfacet
  facet normal 0 0 -1
    outer loop
      vertex -16.5853 4.94235 -19
      vertex -19 2 -19
      vertex -16.8708 4.87082 -19
    endloop
  endfacet
  facet normal 0 0 -1
    outer loop
      vertex -19 -2 -19
      vertex -17.4142 -4.64575 -19
      vertex -17.6667 -4.4944 -19
    endloop
  endfacet
  facet normal 0 0 -1
    outer loop
      vertex -16.8708 4.87082 -19
      vertex -19 2 -19
      vertex -17.148 4.77164 -19
    endloop
  endfacet
  facet normal 0 0 -1
    outer loop
      vertex -19 -2 -19
      vertex -17.6667 -4.4944 -19
      vertex -17.9032 -4.31903 -19
    endloop
  endfacet
  facet normal 0 0 -1
    outer loop
      vertex -17.148 4.77164 -19
      vertex -19 2 -19
      vertex -17.4142 4.64575 -19
    endloop
  endfacet
  facet normal 0 0 -1
    outer loop
      vertex -19 -2 -19
      vertex -17.9032 -4.31903 -19
      vertex -18.1213 -4.12131 -19
    endloop
  endfacet
  facet normal 0 0 -1
    outer loop
      vertex -17.4142 4.64575 -19
      vertex -19 2 -19
      vertex -17.6667 4.4944 -19
    endloop
  endfacet
  facet normal 0 0 -1
    outer loop
      vertex -19 -2 -19
      vertex -18.1213 -4.12131 -19
      vertex -18.319 -3.90317 -19
    endloop
  endfacet
  facet normal 0 0 -1
    outer loop
      vertex -17.6667 4.4944 -19
      vertex -19 2 -19
      vertex -17.9032 4.31903 -19
    endloop
  endfacet
  facet normal 0 0 -1
    outer loop
      vertex -19 -2 -19
      vertex -18.319 -3.90317 -19
      vertex -18.4944 -3.6667 -19
    endloop
  endfacet
  facet normal 0 0 -1
    outer loop
      vertex -17.9032 4.31903 -19
      vertex -19 2 -19
      vertex -18.1213 4.12131 -19
    endloop
  endfacet
  facet normal 0 0 -1
    outer loop
      vertex -19 -2 -19
      vertex -18.4944 -3.6667 -19
      vertex -18.6458 -3.41418 -19
    endloop
  endfacet
  facet normal 0 0 -1
    outer loop
      vertex -18.1213 4.12131 -19
      vertex -19 2 -19
      vertex -18.319 3.90317 -19
    endloop
  endfacet
  facet normal 0 0 -1
    outer loop
      vertex -19 -2 -19
      vertex -18.6458 -3.41418 -19
      vertex -18.7716 -3.14804 -19
    endloop
  endfacet
  facet normal 0 0 -1
    outer loop
      vertex -18.319 3.90317 -19
      vertex -19 2 -19
      vertex -18.4944 3.6667 -19
    endloop
  endfacet
  facet normal 0 0 -1
    outer loop
      vertex -19 -2 -19
      vertex -18.7716 -3.14804 -19
      vertex -18.8708 -2.87085 -19
    endloop
  endfacet
  facet normal 0 0 -1
    outer loop
      vertex -18.4944 3.6667 -19
      vertex -19 2 -19
      vertex -18.6458 3.41418 -19
    endloop
  endfacet
  facet normal 0 0 -1
    outer loop
      vertex -19 -2 -19
      vertex -18.8708 -2.87085 -19
      vertex -18.9424 -2.58527 -19
    endloop
  endfacet
  facet normal 0 0 -1
    outer loop
      vertex -18.6458 3.41418 -19
      vertex -19 2 -19
      vertex -18.7716 3.14804 -19
    endloop
  endfacet
  facet normal 0 0 -1
    outer loop
      vertex -19 -2 -19
      vertex -18.9424 -2.58527 -19
      vertex -18.9855 -2.29404 -19
    endloop
  endfacet
  facet normal 0 0 -1
    outer loop
      vertex -18.7716 3.14804 -19
      vertex -19 2 -19
      vertex -18.8708 2.87085 -19
    endloop
  endfacet
  facet normal 0 0 -1
    outer loop
      vertex -18.8708 2.87085 -19
      vertex -19 2 -19
      vertex -18.9424 2.58527 -19
    endloop
  endfacet
  facet normal 0 0 -1
    outer loop
      vertex -18.9424 2.58527 -19
      vertex -19 2 -19
      vertex -18.9855 2.29404 -19
    endloop
  endfacet
  facet normal 0.427518 -0.904007 0
    outer loop
      vertex 17.148 -4.77164 -19
      vertex 17.4142 -4.64575 19
      vertex 17.148 -4.77164 19
    endloop
  endfacet
  facet normal 0.427518 -0.904007 0
    outer loop
      vertex 17.4142 -4.64575 19
      vertex 17.148 -4.77164 -19
      vertex 17.4142 -4.64575 -19
    endloop
  endfacet
  facet normal 0.941523 -0.33695 0
    outer loop
      vertex 18.7716 -3.14804 19
      vertex 18.8708 -2.87085 -19
      vertex 18.8708 -2.87085 19
    endloop
  endfacet
  facet normal 0.941523 -0.33695 0
    outer loop
      vertex 18.8708 -2.87085 -19
      vertex 18.7716 -3.14804 19
      vertex 18.7716 -3.14804 -19
    endloop
  endfacet
  facet normal 1 -0 0
    outer loop
      vertex 19 -2 19
      vertex 19 2 -19
      vertex 19 2 19
    endloop
  endfacet
  facet normal 1 0 0
    outer loop
      vertex 19 2 -19
      vertex 19 -2 19
      vertex 19 -2 -19
    endloop
  endfacet
  facet normal 0.998786 0.0492532 0
    outer loop
      vertex 19 2 19
      vertex 18.9855 2.29404 -19
      vertex 18.9855 2.29404 19
    endloop
  endfacet
  facet normal 0.998786 0.0492532 0
    outer loop
      vertex 18.9855 2.29404 -19
      vertex 19 2 19
      vertex 19 2 -19
    endloop
  endfacet
  facet normal 0.0490904 -0.998794 0
    outer loop
      vertex 16 -5 -19
      vertex 16.294 -4.98555 19
      vertex 16 -5 19
    endloop
  endfacet
  facet normal 0.0490904 -0.998794 0
    outer loop
      vertex 16.294 -4.98555 19
      vertex 16 -5 -19
      vertex 16.294 -4.98555 -19
    endloop
  endfacet
  facet normal -0.146696 -0.989182 0
    outer loop
      vertex -16.5853 -4.94235 -19
      vertex -16.294 -4.98555 19
      vertex -16.5853 -4.94235 19
    endloop
  endfacet
  facet normal -0.146696 -0.989182 -0
    outer loop
      vertex -16.294 -4.98555 19
      vertex -16.5853 -4.94235 -19
      vertex -16.294 -4.98555 -19
    endloop
  endfacet
  facet normal -0.243031 -0.970018 0
    outer loop
      vertex -16.8708 -4.87082 -19
      vertex -16.5853 -4.94235 19
      vertex -16.8708 -4.87082 19
    endloop
  endfacet
  facet normal -0.243031 -0.970018 -0
    outer loop
      vertex -16.5853 -4.94235 19
      vertex -16.8708 -4.87082 -19
      vertex -16.5853 -4.94235 -19
    endloop
  endfacet
  facet normal 0.803172 0.595747 0
    outer loop
      vertex 18.4944 3.6667 19
      vertex 18.319 3.90317 -19
      vertex 18.319 3.90317 19
    endloop
  endfacet
  facet normal 0.803172 0.595747 0
    outer loop
      vertex 18.319 3.90317 -19
      vertex 18.4944 3.6667 19
      vertex 18.4944 3.6667 -19
    endloop
  endfacet
  facet normal 0.671644 0.740874 -0
    outer loop
      vertex 18.1213 4.12131 -19
      vertex 17.9032 4.31903 19
      vertex 18.1213 4.12131 19
    endloop
  endfacet
  facet normal 0.671644 0.740874 0
    outer loop
      vertex 17.9032 4.31903 19
      vertex 18.1213 4.12131 -19
      vertex 17.9032 4.31903 -19
    endloop
  endfacet
  facet normal 0.595633 0.803257 -0
    outer loop
      vertex 17.9032 4.31903 -19
      vertex 17.6667 4.4944 19
      vertex 17.9032 4.31903 19
    endloop
  endfacet
  facet normal 0.595633 0.803257 0
    outer loop
      vertex 17.6667 4.4944 19
      vertex 17.9032 4.31903 -19
      vertex 17.6667 4.4944 -19
    endloop
  endfacet
  facet normal -0.336879 0.941548 0
    outer loop
      vertex -16.8708 4.87082 -19
      vertex -17.148 4.77164 19
      vertex -16.8708 4.87082 19
    endloop
  endfacet
  facet normal -0.336879 0.941548 0
    outer loop
      vertex -17.148 4.77164 19
      vertex -16.8708 4.87082 -19
      vertex -17.148 4.77164 -19
    endloop
  endfacet
  facet normal -0.243031 0.970018 0
    outer loop
      vertex -16.5853 4.94235 -19
      vertex -16.8708 4.87082 19
      vertex -16.5853 4.94235 19
    endloop
  endfacet
  facet normal -0.243031 0.970018 0
    outer loop
      vertex -16.8708 4.87082 19
      vertex -16.5853 4.94235 -19
      vertex -16.8708 4.87082 -19
    endloop
  endfacet
  facet normal -0.595633 0.803257 0
    outer loop
      vertex -17.6667 4.4944 -19
      vertex -17.9032 4.31903 19
      vertex -17.6667 4.4944 19
    endloop
  endfacet
  facet normal -0.595633 0.803257 0
    outer loop
      vertex -17.9032 4.31903 19
      vertex -17.6667 4.4944 -19
      vertex -17.9032 4.31903 -19
    endloop
  endfacet
  facet normal -0.740969 0.671539 0
    outer loop
      vertex -18.319 3.90317 -19
      vertex -18.1213 4.12131 19
      vertex -18.1213 4.12131 -19
    endloop
  endfacet
  facet normal -0.740969 0.671539 0
    outer loop
      vertex -18.1213 4.12131 19
      vertex -18.319 3.90317 -19
      vertex -18.319 3.90317 19
    endloop
  endfacet
  facet normal -0.904088 0.427347 0
    outer loop
      vertex -18.7716 3.14804 -19
      vertex -18.6458 3.41418 19
      vertex -18.6458 3.41418 -19
    endloop
  endfacet
  facet normal -0.904088 0.427347 0
    outer loop
      vertex -18.6458 3.41418 19
      vertex -18.7716 3.14804 -19
      vertex -18.7716 3.14804 19
    endloop
  endfacet
  facet normal -0.803172 0.595747 0
    outer loop
      vertex -18.4944 3.6667 -19
      vertex -18.319 3.90317 19
      vertex -18.319 3.90317 -19
    endloop
  endfacet
  facet normal -0.803172 0.595747 0
    outer loop
      vertex -18.319 3.90317 19
      vertex -18.4944 3.6667 -19
      vertex -18.4944 3.6667 19
    endloop
  endfacet
  facet normal 0 0 1
    outer loop
      vertex 16 5 19
      vertex 19 2 19
      vertex 18.9855 2.29404 19
    endloop
  endfacet
  facet normal 0 0 1
    outer loop
      vertex 19 2 19
      vertex 16 5 19
      vertex 19 -2 19
    endloop
  endfacet
  facet normal 0 0 1
    outer loop
      vertex 16 5 19
      vertex 18.9855 2.29404 19
      vertex 18.9424 2.58527 19
    endloop
  endfacet
  facet normal 0 0 1
    outer loop
      vertex 16 -5 19
      vertex 19 -2 19
      vertex 16 5 19
    endloop
  endfacet
  facet normal 0 0 1
    outer loop
      vertex 16 5 19
      vertex 18.9424 2.58527 19
      vertex 18.8708 2.87085 19
    endloop
  endfacet
  facet normal 0 0 1
    outer loop
      vertex 19 -2 19
      vertex 16 -5 19
      vertex 18.9855 -2.29404 19
    endloop
  endfacet
  facet normal 0 0 1
    outer loop
      vertex 16 5 19
      vertex 18.8708 2.87085 19
      vertex 18.7716 3.14804 19
    endloop
  endfacet
  facet normal 0 0 1
    outer loop
      vertex 18.9855 -2.29404 19
      vertex 16 -5 19
      vertex 18.9424 -2.58527 19
    endloop
  endfacet
  facet normal 0 0 1
    outer loop
      vertex 16 5 19
      vertex 18.7716 3.14804 19
      vertex 18.6458 3.41418 19
    endloop
  endfacet
  facet normal 0 0 1
    outer loop
      vertex 18.9424 -2.58527 19
      vertex 16 -5 19
      vertex 18.8708 -2.87085 19
    endloop
  endfacet
  facet normal 0 0 1
    outer loop
      vertex 16 5 19
      vertex 18.6458 3.41418 19
      vertex 18.4944 3.6667 19
    endloop
  endfacet
  facet normal 0 0 1
    outer loop
      vertex 18.8708 -2.87085 19
      vertex 16 -5 19
      vertex 18.7716 -3.14804 19
    endloop
  endfacet
  facet normal 0 0 1
    outer loop
      vertex 16 5 19
      vertex 18.4944 3.6667 19
      vertex 18.319 3.90317 19
    endloop
  endfacet
  facet normal 0 0 1
    outer loop
      vertex 18.7716 -3.14804 19
      vertex 16 -5 19
      vertex 18.6458 -3.41418 19
    endloop
  endfacet
  facet normal 0 0 1
    outer loop
      vertex 16 5 19
      vertex 18.319 3.90317 19
      vertex 18.1213 4.12131 19
    endloop
  endfacet
  facet normal 0 0 1
    outer loop
      vertex 18.6458 -3.41418 19
      vertex 16 -5 19
      vertex 18.4944 -3.6667 19
    endloop
  endfacet
  facet normal 0 0 1
    outer loop
      vertex 16 5 19
      vertex 18.1213 4.12131 19
      vertex 17.9032 4.31903 19
    endloop
  endfacet
  facet normal 0 0 1
    outer loop
      vertex 18.4944 -3.6667 19
      vertex 16 -5 19
      vertex 18.319 -3.90317 19
    endloop
  endfacet
  facet normal 0 0 1
    outer loop
      vertex 16 5 19
      vertex 17.9032 4.31903 19
      vertex 17.6667 4.4944 19
    endloop
  endfacet
  facet normal 0 0 1
    outer loop
      vertex 18.319 -3.90317 19
      vertex 16 -5 19
      vertex 18.1213 -4.12131 19
    endloop
  endfacet
  facet normal 0 0 1
    outer loop
      vertex 16 5 19
      vertex 17.6667 4.4944 19
      vertex 17.4142 4.64575 19
    endloop
  endfacet
  facet normal 0 0 1
    outer loop
      vertex 18.1213 -4.12131 19
      vertex 16 -5 19
      vertex 17.9032 -4.31903 19
    endloop
  endfacet
  facet normal 0 0 1
    outer loop
      vertex 16 5 19
      vertex 17.4142 4.64575 19
      vertex 17.148 4.77164 19
    endloop
  endfacet
  facet normal 0 0 1
    outer loop
      vertex 17.9032 -4.31903 19
      vertex 16 -5 19
      vertex 17.6667 -4.4944 19
    endloop
  endfacet
  facet normal 0 0 1
    outer loop
      vertex 16 5 19
      vertex 17.148 4.77164 19
      vertex 16.8708 4.87082 19
    endloop
  endfacet
  facet normal 0 0 1
    outer loop
      vertex 17.6667 -4.4944 19
      vertex 16 -5 19
      vertex 17.4142 -4.64575 19
    endloop
  endfacet
  facet normal 0 0 1
    outer loop
      vertex 16 5 19
      vertex 16.8708 4.87082 19
      vertex 16.5853 4.94235 19
    endloop
  endfacet
  facet normal 0 0 1
    outer loop
      vertex 17.4142 -4.64575 19
      vertex 16 -5 19
      vertex 17.148 -4.77164 19
    endloop
  endfacet
  facet normal 0 0 1
    outer loop
      vertex 16 5 19
      vertex 16.5853 4.94235 19
      vertex 16.294 4.98555 19
    endloop
  endfacet
  facet normal 0 0 1
    outer loop
      vertex 17.148 -4.77164 19
      vertex 16 -5 19
      vertex 16.8708 -4.87082 19
    endloop
  endfacet
  facet normal 0 0 1
    outer loop
      vertex 16.8708 -4.87082 19
      vertex 16 -5 19
      vertex 16.5853 -4.94235 19
    endloop
  endfacet
  facet normal 0 0 1
    outer loop
      vertex 16.5853 -4.94235 19
      vertex 16 -5 19
      vertex 16.294 -4.98555 19
    endloop
  endfacet
  facet normal -0 0 1
    outer loop
      vertex -16 5 19
      vertex 16 -5 19
      vertex 16 5 19
    endloop
  endfacet
  facet normal 0 0 1
    outer loop
      vertex -16 5 19
      vertex -16 -5 19
      vertex 16 -5 19
    endloop
  endfacet
  facet normal 0 0 1
    outer loop
      vertex -19 2 19
      vertex -16 5 19
      vertex -16.294 4.98555 19
    endloop
  endfacet
  facet normal 0 0 1
    outer loop
      vertex -16 5 19
      vertex -19 2 19
      vertex -16 -5 19
    endloop
  endfacet
  facet normal 0 0 1
    outer loop
      vertex -19 2 19
      vertex -16.294 4.98555 19
      vertex -16.5853 4.94235 19
    endloop
  endfacet
  facet normal -0 0 1
    outer loop
      vertex -19 -2 19
      vertex -16 -5 19
      vertex -19 2 19
    endloop
  endfacet
  facet normal 0 0 1
    outer loop
      vertex -19 2 19
      vertex -16.5853 4.94235 19
      vertex -16.8708 4.87082 19
    endloop
  endfacet
  facet normal 0 0 1
    outer loop
      vertex -16 -5 19
      vertex -19 -2 19
      vertex -16.294 -4.98555 19
    endloop
  endfacet
  facet normal 0 0 1
    outer loop
      vertex -19 2 19
      vertex -16.8708 4.87082 19
      vertex -17.148 4.77164 19
    endloop
  endfacet
  facet normal 0 0 1
    outer loop
      vertex -16.294 -4.98555 19
      vertex -19 -2 19
      vertex -16.5853 -4.94235 19
    endloop
  endfacet
  facet normal 0 0 1
    outer loop
      vertex -19 2 19
      vertex -17.148 4.77164 19
      vertex -17.4142 4.64575 19
    endloop
  endfacet
  facet normal 0 0 1
    outer loop
      vertex -16.5853 -4.94235 19
      vertex -19 -2 19
      vertex -16.8708 -4.87082 19
    endloop
  endfacet
  facet normal 0 0 1
    outer loop
      vertex -19 2 19
      vertex -17.4142 4.64575 19
      vertex -17.6667 4.4944 19
    endloop
  endfacet
  facet normal 0 0 1
    outer loop
      vertex -16.8708 -4.87082 19
      vertex -19 -2 19
      vertex -17.148 -4.77164 19
    endloop
  endfacet
  facet normal 0 0 1
    outer loop
      vertex -19 2 19
      vertex -17.6667 4.4944 19
      vertex -17.9032 4.31903 19
    endloop
  endfacet
  facet normal 0 0 1
    outer loop
      vertex -17.148 -4.77164 19
      vertex -19 -2 19
      vertex -17.4142 -4.64575 19
    endloop
  endfacet
  facet normal 0 0 1
    outer loop
      vertex -19 2 19
      vertex -17.9032 4.31903 19
      vertex -18.1213 4.12131 19
    endloop
  endfacet
  facet normal 0 0 1
    outer loop
      vertex -17.4142 -4.64575 19
      vertex -19 -2 19
      vertex -17.6667 -4.4944 19
    endloop
  endfacet
  facet normal 0 0 1
    outer loop
      vertex -19 2 19
      vertex -18.1213 4.12131 19
      vertex -18.319 3.90317 19
    endloop
  endfacet
  facet normal 0 0 1
    outer loop
      vertex -17.6667 -4.4944 19
      vertex -19 -2 19
      vertex -17.9032 -4.31903 19
    endloop
  endfacet
  facet normal 0 0 1
    outer loop
      vertex -19 2 19
      vertex -18.319 3.90317 19
      vertex -18.4944 3.6667 19
    endloop
  endfacet
  facet normal 0 0 1
    outer loop
      vertex -17.9032 -4.31903 19
      vertex -19 -2 19
      vertex -18.1213 -4.12131 19
    endloop
  endfacet
  facet normal 0 0 1
    outer loop
      vertex -19 2 19
      vertex -18.4944 3.6667 19
      vertex -18.6458 3.41418 19
    endloop
  endfacet
  facet normal 0 0 1
    outer loop
      vertex -18.1213 -4.12131 19
      vertex -19 -2 19
      vertex -18.319 -3.90317 19
    endloop
  endfacet
  facet normal 0 0 1
    outer loop
      vertex -19 2 19
      vertex -18.6458 3.41418 19
      vertex -18.7716 3.14804 19
    endloop
  endfacet
  facet normal 0 0 1
    outer loop
      vertex -18.319 -3.90317 19
      vertex -19 -2 19
      vertex -18.4944 -3.6667 19
    endloop
  endfacet
  facet normal 0 0 1
    outer loop
      vertex -19 2 19
      vertex -18.7716 3.14804 19
      vertex -18.8708 2.87085 19
    endloop
  endfacet
  facet normal 0 0 1
    outer loop
      vertex -18.4944 -3.6667 19
      vertex -19 -2 19
      vertex -18.6458 -3.41418 19
    endloop
  endfacet
  facet normal 0 0 1
    outer loop
      vertex -19 2 19
      vertex -18.8708 2.87085 19
      vertex -18.9424 2.58527 19
    endloop
  endfacet
  facet normal 0 0 1
    outer loop
      vertex -18.6458 -3.41418 19
      vertex -19 -2 19
      vertex -18.7716 -3.14804 19
    endloop
  endfacet
  facet normal 0 0 1
    outer loop
      vertex -19 2 19
      vertex -18.9424 2.58527 19
      vertex -18.9855 2.29404 19
    endloop
  endfacet
  facet normal 0 0 1
    outer loop
      vertex -18.7716 -3.14804 19
      vertex -19 -2 19
      vertex -18.8708 -2.87085 19
    endloop
  endfacet
  facet normal 0 0 1
    outer loop
      vertex -18.8708 -2.87085 19
      vertex -19 -2 19
      vertex -18.9424 -2.58527 19
    endloop
  endfacet
  facet normal 0 0 1
    outer loop
      vertex -18.9424 -2.58527 19
      vertex -19 -2 19
      vertex -18.9855 -2.29404 19
    endloop
  endfacet
  facet normal -0.989226 -0.146398 0
    outer loop
      vertex -18.9424 -2.58527 -19
      vertex -18.9855 -2.29404 19
      vertex -18.9855 -2.29404 -19
    endloop
  endfacet
  facet normal -0.989226 -0.146398 0
    outer loop
      vertex -18.9855 -2.29404 19
      vertex -18.9424 -2.58527 -19
      vertex -18.9424 -2.58527 19
    endloop
  endfacet
  facet normal -0.998786 -0.0492532 0
    outer loop
      vertex -18.9855 -2.29404 -19
      vertex -19 -2 19
      vertex -19 -2 -19
    endloop
  endfacet
  facet normal -0.998786 -0.0492532 0
    outer loop
      vertex -19 -2 19
      vertex -18.9855 -2.29404 -19
      vertex -18.9855 -2.29404 19
    endloop
  endfacet
  facet normal -0.969978 -0.243191 0
    outer loop
      vertex -18.8708 -2.87085 -19
      vertex -18.9424 -2.58527 19
      vertex -18.9424 -2.58527 -19
    endloop
  endfacet
  facet normal -0.969978 -0.243191 0
    outer loop
      vertex -18.9424 -2.58527 19
      vertex -18.8708 -2.87085 -19
      vertex -18.8708 -2.87085 19
    endloop
  endfacet
  facet normal 0.989226 0.146398 0
    outer loop
      vertex 18.9855 2.29404 19
      vertex 18.9424 2.58527 -19
      vertex 18.9424 2.58527 19
    endloop
  endfacet
  facet normal 0.989226 0.146398 0
    outer loop
      vertex 18.9424 2.58527 -19
      vertex 18.9855 2.29404 19
      vertex 18.9855 2.29404 -19
    endloop
  endfacet
  facet normal 0.243031 -0.970018 0
    outer loop
      vertex 16.5853 -4.94235 -19
      vertex 16.8708 -4.87082 19
      vertex 16.5853 -4.94235 19
    endloop
  endfacet
  facet normal 0.243031 -0.970018 0
    outer loop
      vertex 16.8708 -4.87082 19
      vertex 16.5853 -4.94235 -19
      vertex 16.8708 -4.87082 -19
    endloop
  endfacet
  facet normal 0.336879 -0.941548 0
    outer loop
      vertex 16.8708 -4.87082 -19
      vertex 17.148 -4.77164 19
      vertex 16.8708 -4.87082 19
    endloop
  endfacet
  facet normal 0.336879 -0.941548 0
    outer loop
      vertex 17.148 -4.77164 19
      vertex 16.8708 -4.87082 -19
      vertex 17.148 -4.77164 -19
    endloop
  endfacet
  facet normal 0.969978 -0.243191 0
    outer loop
      vertex 18.8708 -2.87085 19
      vertex 18.9424 -2.58527 -19
      vertex 18.9424 -2.58527 19
    endloop
  endfacet
  facet normal 0.969978 -0.243191 0
    outer loop
      vertex 18.9424 -2.58527 -19
      vertex 18.8708 -2.87085 19
      vertex 18.8708 -2.87085 -19
    endloop
  endfacet
  facet normal 0.998786 -0.0492532 0
    outer loop
      vertex 18.9855 -2.29404 19
      vertex 19 -2 -19
      vertex 19 -2 19
    endloop
  endfacet
  facet normal 0.998786 -0.0492532 0
    outer loop
      vertex 19 -2 -19
      vertex 18.9855 -2.29404 19
      vertex 18.9855 -2.29404 -19
    endloop
  endfacet
  facet normal 0.969978 0.243191 0
    outer loop
      vertex 18.9424 2.58527 19
      vertex 18.8708 2.87085 -19
      vertex 18.8708 2.87085 19
    endloop
  endfacet
  facet normal 0.969978 0.243191 0
    outer loop
      vertex 18.8708 2.87085 -19
      vertex 18.9424 2.58527 19
      vertex 18.9424 2.58527 -19
    endloop
  endfacet
  facet normal -0.514121 -0.857718 0
    outer loop
      vertex -17.6667 -4.4944 -19
      vertex -17.4142 -4.64575 19
      vertex -17.6667 -4.4944 19
    endloop
  endfacet
  facet normal -0.514121 -0.857718 -0
    outer loop
      vertex -17.4142 -4.64575 19
      vertex -17.6667 -4.4944 -19
      vertex -17.4142 -4.64575 -19
    endloop
  endfacet
  facet normal -0.857661 -0.514216 0
    outer loop
      vertex -18.4944 -3.6667 -19
      vertex -18.6458 -3.41418 19
      vertex -18.6458 -3.41418 -19
    endloop
  endfacet
  facet normal -0.857661 -0.514216 0
    outer loop
      vertex -18.6458 -3.41418 19
      vertex -18.4944 -3.6667 -19
      vertex -18.4944 -3.6667 19
    endloop
  endfacet
  facet normal 0.857661 0.514216 0
    outer loop
      vertex 18.6458 3.41418 19
      vertex 18.4944 3.6667 -19
      vertex 18.4944 3.6667 19
    endloop
  endfacet
  facet normal 0.857661 0.514216 0
    outer loop
      vertex 18.4944 3.6667 -19
      vertex 18.6458 3.41418 19
      vertex 18.6458 3.41418 -19
    endloop
  endfacet
  facet normal 0.904088 0.427347 0
    outer loop
      vertex 18.7716 3.14804 19
      vertex 18.6458 3.41418 -19
      vertex 18.6458 3.41418 19
    endloop
  endfacet
  facet normal 0.904088 0.427347 0
    outer loop
      vertex 18.6458 3.41418 -19
      vertex 18.7716 3.14804 19
      vertex 18.7716 3.14804 -19
    endloop
  endfacet
  facet normal 0.336879 0.941548 -0
    outer loop
      vertex 17.148 4.77164 -19
      vertex 16.8708 4.87082 19
      vertex 17.148 4.77164 19
    endloop
  endfacet
  facet normal 0.336879 0.941548 0
    outer loop
      vertex 16.8708 4.87082 19
      vertex 17.148 4.77164 -19
      vertex 16.8708 4.87082 -19
    endloop
  endfacet
  facet normal 0.514121 0.857718 -0
    outer loop
      vertex 17.6667 4.4944 -19
      vertex 17.4142 4.64575 19
      vertex 17.6667 4.4944 19
    endloop
  endfacet
  facet normal 0.514121 0.857718 0
    outer loop
      vertex 17.4142 4.64575 19
      vertex 17.6667 4.4944 -19
      vertex 17.4142 4.64575 -19
    endloop
  endfacet
  facet normal 0.427518 0.904007 -0
    outer loop
      vertex 17.4142 4.64575 -19
      vertex 17.148 4.77164 19
      vertex 17.4142 4.64575 19
    endloop
  endfacet
  facet normal 0.427518 0.904007 0
    outer loop
      vertex 17.148 4.77164 19
      vertex 17.4142 4.64575 -19
      vertex 17.148 4.77164 -19
    endloop
  endfacet
  facet normal -0.514121 0.857718 0
    outer loop
      vertex -17.4142 4.64575 -19
      vertex -17.6667 4.4944 19
      vertex -17.4142 4.64575 19
    endloop
  endfacet
  facet normal -0.514121 0.857718 0
    outer loop
      vertex -17.6667 4.4944 19
      vertex -17.4142 4.64575 -19
      vertex -17.6667 4.4944 -19
    endloop
  endfacet
  facet normal -0.857661 0.514216 0
    outer loop
      vertex -18.6458 3.41418 -19
      vertex -18.4944 3.6667 19
      vertex -18.4944 3.6667 -19
    endloop
  endfacet
  facet normal -0.857661 0.514216 0
    outer loop
      vertex -18.4944 3.6667 19
      vertex -18.6458 3.41418 -19
      vertex -18.6458 3.41418 19
    endloop
  endfacet
  facet normal -0.671644 0.740874 0
    outer loop
      vertex -17.9032 4.31903 -19
      vertex -18.1213 4.12131 19
      vertex -17.9032 4.31903 19
    endloop
  endfacet
  facet normal -0.671644 0.740874 0
    outer loop
      vertex -18.1213 4.12131 19
      vertex -17.9032 4.31903 -19
      vertex -18.1213 4.12131 -19
    endloop
  endfacet
  facet normal 0.595633 -0.803257 0
    outer loop
      vertex 17.6667 -4.4944 -19
      vertex 17.9032 -4.31903 19
      vertex 17.6667 -4.4944 19
    endloop
  endfacet
  facet normal 0.595633 -0.803257 0
    outer loop
      vertex 17.9032 -4.31903 19
      vertex 17.6667 -4.4944 -19
      vertex 17.9032 -4.31903 -19
    endloop
  endfacet
  facet normal 0.857661 -0.514216 0
    outer loop
      vertex 18.4944 -3.6667 19
      vertex 18.6458 -3.41418 -19
      vertex 18.6458 -3.41418 19
    endloop
  endfacet
  facet normal 0.857661 -0.514216 0
    outer loop
      vertex 18.6458 -3.41418 -19
      vertex 18.4944 -3.6667 19
      vertex 18.4944 -3.6667 -19
    endloop
  endfacet
  facet normal 0.803172 -0.595747 0
    outer loop
      vertex 18.319 -3.90317 19
      vertex 18.4944 -3.6667 -19
      vertex 18.4944 -3.6667 19
    endloop
  endfacet
  facet normal 0.803172 -0.595747 0
    outer loop
      vertex 18.4944 -3.6667 -19
      vertex 18.319 -3.90317 19
      vertex 18.319 -3.90317 -19
    endloop
  endfacet
  facet normal 0.671644 -0.740874 0
    outer loop
      vertex 17.9032 -4.31903 -19
      vertex 18.1213 -4.12131 19
      vertex 17.9032 -4.31903 19
    endloop
  endfacet
  facet normal 0.671644 -0.740874 0
    outer loop
      vertex 18.1213 -4.12131 19
      vertex 17.9032 -4.31903 -19
      vertex 18.1213 -4.12131 -19
    endloop
  endfacet
  facet normal 0.989226 -0.146398 0
    outer loop
      vertex 18.9424 -2.58527 19
      vertex 18.9855 -2.29404 -19
      vertex 18.9855 -2.29404 19
    endloop
  endfacet
  facet normal 0.989226 -0.146398 0
    outer loop
      vertex 18.9855 -2.29404 -19
      vertex 18.9424 -2.58527 19
      vertex 18.9424 -2.58527 -19
    endloop
  endfacet
  facet normal -0.0490904 -0.998794 0
    outer loop
      vertex -16.294 -4.98555 -19
      vertex -16 -5 19
      vertex -16.294 -4.98555 19
    endloop
  endfacet
  facet normal -0.0490904 -0.998794 -0
    outer loop
      vertex -16 -5 19
      vertex -16.294 -4.98555 -19
      vertex -16 -5 -19
    endloop
  endfacet
  facet normal -0.336879 -0.941548 0
    outer loop
      vertex -17.148 -4.77164 -19
      vertex -16.8708 -4.87082 19
      vertex -17.148 -4.77164 19
    endloop
  endfacet
  facet normal -0.336879 -0.941548 -0
    outer loop
      vertex -16.8708 -4.87082 19
      vertex -17.148 -4.77164 -19
      vertex -16.8708 -4.87082 -19
    endloop
  endfacet
  facet normal -0.740969 -0.671539 0
    outer loop
      vertex -18.1213 -4.12131 -19
      vertex -18.319 -3.90317 19
      vertex -18.319 -3.90317 -19
    endloop
  endfacet
  facet normal -0.740969 -0.671539 0
    outer loop
      vertex -18.319 -3.90317 19
      vertex -18.1213 -4.12131 -19
      vertex -18.1213 -4.12131 19
    endloop
  endfacet
  facet normal -0.595633 -0.803257 0
    outer loop
      vertex -17.9032 -4.31903 -19
      vertex -17.6667 -4.4944 19
      vertex -17.9032 -4.31903 19
    endloop
  endfacet
  facet normal -0.595633 -0.803257 -0
    outer loop
      vertex -17.6667 -4.4944 19
      vertex -17.9032 -4.31903 -19
      vertex -17.6667 -4.4944 -19
    endloop
  endfacet
  facet normal -0.803172 -0.595747 0
    outer loop
      vertex -18.319 -3.90317 -19
      vertex -18.4944 -3.6667 19
      vertex -18.4944 -3.6667 -19
    endloop
  endfacet
  facet normal -0.803172 -0.595747 0
    outer loop
      vertex -18.4944 -3.6667 19
      vertex -18.319 -3.90317 -19
      vertex -18.319 -3.90317 19
    endloop
  endfacet
  facet normal -0.998786 0.0492532 0
    outer loop
      vertex -19 2 -19
      vertex -18.9855 2.29404 19
      vertex -18.9855 2.29404 -19
    endloop
  endfacet
  facet normal -0.998786 0.0492532 0
    outer loop
      vertex -18.9855 2.29404 19
      vertex -19 2 -19
      vertex -19 2 19
    endloop
  endfacet
  facet normal -0.989226 0.146398 0
    outer loop
      vertex -18.9855 2.29404 -19
      vertex -18.9424 2.58527 19
      vertex -18.9424 2.58527 -19
    endloop
  endfacet
  facet normal -0.989226 0.146398 0
    outer loop
      vertex -18.9424 2.58527 19
      vertex -18.9855 2.29404 -19
      vertex -18.9855 2.29404 19
    endloop
  endfacet
  facet normal -0.969978 0.243191 0
    outer loop
      vertex -18.9424 2.58527 -19
      vertex -18.8708 2.87085 19
      vertex -18.8708 2.87085 -19
    endloop
  endfacet
  facet normal -0.969978 0.243191 0
    outer loop
      vertex -18.8708 2.87085 19
      vertex -18.9424 2.58527 -19
      vertex -18.9424 2.58527 19
    endloop
  endfacet
  facet normal 0.514121 -0.857718 0
    outer loop
      vertex 17.4142 -4.64575 -19
      vertex 17.6667 -4.4944 19
      vertex 17.4142 -4.64575 19
    endloop
  endfacet
  facet normal 0.514121 -0.857718 0
    outer loop
      vertex 17.6667 -4.4944 19
      vertex 17.4142 -4.64575 -19
      vertex 17.6667 -4.4944 -19
    endloop
  endfacet
  facet normal 0.904088 -0.427347 0
    outer loop
      vertex 18.6458 -3.41418 19
      vertex 18.7716 -3.14804 -19
      vertex 18.7716 -3.14804 19
    endloop
  endfacet
  facet normal 0.904088 -0.427347 0
    outer loop
      vertex 18.7716 -3.14804 -19
      vertex 18.6458 -3.41418 19
      vertex 18.6458 -3.41418 -19
    endloop
  endfacet
  facet normal 0.740969 -0.671539 0
    outer loop
      vertex 18.1213 -4.12131 19
      vertex 18.319 -3.90317 -19
      vertex 18.319 -3.90317 19
    endloop
  endfacet
  facet normal 0.740969 -0.671539 0
    outer loop
      vertex 18.319 -3.90317 -19
      vertex 18.1213 -4.12131 19
      vertex 18.1213 -4.12131 -19
    endloop
  endfacet
  facet normal -0.427518 -0.904007 0
    outer loop
      vertex -17.4142 -4.64575 -19
      vertex -17.148 -4.77164 19
      vertex -17.4142 -4.64575 19
    endloop
  endfacet
  facet normal -0.427518 -0.904007 -0
    outer loop
      vertex -17.148 -4.77164 19
      vertex -17.4142 -4.64575 -19
      vertex -17.148 -4.77164 -19
    endloop
  endfacet
  facet normal -0.671644 -0.740874 0
    outer loop
      vertex -18.1213 -4.12131 -19
      vertex -17.9032 -4.31903 19
      vertex -18.1213 -4.12131 19
    endloop
  endfacet
  facet normal -0.671644 -0.740874 -0
    outer loop
      vertex -17.9032 -4.31903 19
      vertex -18.1213 -4.12131 -19
      vertex -17.9032 -4.31903 -19
    endloop
  endfacet
  facet normal 1 -0 0
    outer loop
      vertex -15 -5 15
      vertex -15 5 -12.6277
      vertex -15 5 15
    endloop
  endfacet
  facet normal 1 0 0
    outer loop
      vertex -15 5 -12.6277
      vertex -15 -5 15
      vertex -15 -5 -12.6277
    endloop
  endfacet
  facet normal 0 0 -1
    outer loop
      vertex -15 -5 15
      vertex 15 5 15
      vertex 15 -5 15
    endloop
  endfacet
  facet normal -0 0 -1
    outer loop
      vertex 15 5 15
      vertex -15 -5 15
      vertex -15 5 15
    endloop
  endfacet
  facet normal -1 0 0
    outer loop
      vertex 15 -5 -12.6277
      vertex 15 5 15
      vertex 15 5 -12.6277
    endloop
  endfacet
  facet normal -1 -0 0
    outer loop
      vertex 15 5 15
      vertex 15 -5 -12.6277
      vertex 15 -5 15
    endloop
  endfacet
  facet normal -0 0 1
    outer loop
      vertex -12.6277 5 -15
      vertex 12.6277 -5 -15
      vertex 12.6277 5 -15
    endloop
  endfacet
  facet normal 0 0 1
    outer loop
      vertex 12.6277 -5 -15
      vertex -12.6277 5 -15
      vertex -12.6277 -5 -15
    endloop
  endfacet
endsolid OpenSCAD_Model
