solid OpenSCAD_Model
  facet normal -0.998791 0 -0.0491602
    outer loop
      vertex -22.3 -11 -20
      vertex -22.3082 11 -19.8334
      vertex -22.3 11 -20
    endloop
  endfacet
  facet normal -0.998791 -0 -0.0491602
    outer loop
      vertex -22.3082 11 -19.8334
      vertex -22.3 -11 -20
      vertex -22.3082 -11 -19.8334
    endloop
  endfacet
  facet normal -0.989168 0 -0.146788
    outer loop
      vertex -22.3082 -11 -19.8334
      vertex -22.3327 11 -19.6683
      vertex -22.3082 11 -19.8334
    endloop
  endfacet
  facet normal -0.989168 -0 -0.146788
    outer loop
      vertex -22.3327 11 -19.6683
      vertex -22.3082 -11 -19.8334
      vertex -22.3327 -11 -19.6683
    endloop
  endfacet
  facet normal -0.0491602 0 -0.998791
    outer loop
      vertex -24 -11 -18.3
      vertex -23.8334 11 -18.3082
      vertex -23.8334 -11 -18.3082
    endloop
  endfacet
  facet normal -0.0491602 0 -0.998791
    outer loop
      vertex -23.8334 11 -18.3082
      vertex -24 -11 -18.3
      vertex -24 11 -18.3
    endloop
  endfacet
  facet normal -0.427584 0 -0.903976
    outer loop
      vertex -23.3494 -11 -18.4294
      vertex -23.2179 11 -18.4916
      vertex -23.2179 -11 -18.4916
    endloop
  endfacet
  facet normal -0.427584 0 -0.903976
    outer loop
      vertex -23.2179 11 -18.4916
      vertex -23.3494 -11 -18.4294
      vertex -23.3494 11 -18.4294
    endloop
  endfacet
  facet normal 0.742393 0 -0.669965
    outer loop
      vertex -25.2021 -11 -18.7979
      vertex -25.2169 11 -18.8143
      vertex -25.2021 11 -18.7979
    endloop
  endfacet
  facet normal 0.742393 0 -0.669965
    outer loop
      vertex -25.2169 11 -18.8143
      vertex -25.2021 -11 -18.7979
      vertex -25.2169 -11 -18.8143
    endloop
  endfacet
  facet normal 0.146788 0 -0.989168
    outer loop
      vertex -24.3317 -11 -18.3327
      vertex -24.1666 11 -18.3082
      vertex -24.1666 -11 -18.3082
    endloop
  endfacet
  facet normal 0.146788 0 -0.989168
    outer loop
      vertex -24.1666 11 -18.3082
      vertex -24.3317 -11 -18.3327
      vertex -24.3317 11 -18.3327
    endloop
  endfacet
  facet normal -0.803154 0 0.595772
    outer loop
      vertex -22.6859 -11 -21.0785
      vertex -22.5865 11 -20.9445
      vertex -22.6859 11 -21.0785
    endloop
  endfacet
  facet normal -0.803154 0 0.595772
    outer loop
      vertex -22.5865 11 -20.9445
      vertex -22.6859 -11 -21.0785
      vertex -22.5865 -11 -20.9445
    endloop
  endfacet
  facet normal -0.970072 0 0.242818
    outer loop
      vertex -22.3732 -11 -20.4935
      vertex -22.3327 11 -20.3317
      vertex -22.3732 11 -20.4935
    endloop
  endfacet
  facet normal -0.970072 0 0.242818
    outer loop
      vertex -22.3327 11 -20.3317
      vertex -22.3732 -11 -20.4935
      vertex -22.3327 -11 -20.3317
    endloop
  endfacet
  facet normal -0.970072 0 -0.242818
    outer loop
      vertex -22.3327 -11 -19.6683
      vertex -22.3732 11 -19.5065
      vertex -22.3327 11 -19.6683
    endloop
  endfacet
  facet normal -0.970072 -0 -0.242818
    outer loop
      vertex -22.3732 11 -19.5065
      vertex -22.3327 -11 -19.6683
      vertex -22.3732 -11 -19.5065
    endloop
  endfacet
  facet normal -0.242818 0 -0.970072
    outer loop
      vertex -23.6683 -11 -18.3327
      vertex -23.5065 11 -18.3732
      vertex -23.5065 -11 -18.3732
    endloop
  endfacet
  facet normal -0.242818 0 -0.970072
    outer loop
      vertex -23.5065 11 -18.3732
      vertex -23.6683 -11 -18.3327
      vertex -23.6683 11 -18.3327
    endloop
  endfacet
  facet normal -0.33683 0 -0.941566
    outer loop
      vertex -23.5065 -11 -18.3732
      vertex -23.3494 11 -18.4294
      vertex -23.3494 -11 -18.4294
    endloop
  endfacet
  facet normal -0.33683 0 -0.941566
    outer loop
      vertex -23.3494 11 -18.4294
      vertex -23.5065 -11 -18.3732
      vertex -23.5065 11 -18.3732
    endloop
  endfacet
  facet normal 0.514231 0 -0.857652
    outer loop
      vertex -24.9445 -11 -18.5865
      vertex -24.8014 11 -18.5007
      vertex -24.8014 -11 -18.5007
    endloop
  endfacet
  facet normal 0.514231 0 -0.857652
    outer loop
      vertex -24.8014 11 -18.5007
      vertex -24.9445 -11 -18.5865
      vertex -24.9445 11 -18.5865
    endloop
  endfacet
  facet normal 0.427442 0 -0.904043
    outer loop
      vertex -24.8014 -11 -18.5007
      vertex -24.6506 11 -18.4294
      vertex -24.6506 -11 -18.4294
    endloop
  endfacet
  facet normal 0.427442 0 -0.904043
    outer loop
      vertex -24.6506 11 -18.4294
      vertex -24.8014 -11 -18.5007
      vertex -24.8014 11 -18.5007
    endloop
  endfacet
  facet normal 0.0491602 0 -0.998791
    outer loop
      vertex -24.1666 -11 -18.3082
      vertex -24 11 -18.3
      vertex -24 -11 -18.3
    endloop
  endfacet
  facet normal 0.0491602 0 -0.998791
    outer loop
      vertex -24 11 -18.3
      vertex -24.1666 -11 -18.3082
      vertex -24.1666 11 -18.3082
    endloop
  endfacet
  facet normal -0.942008 0 -0.33559
    outer loop
      vertex -22.3732 -11 -19.5065
      vertex -22.3846 11 -19.4745
      vertex -22.3732 11 -19.5065
    endloop
  endfacet
  facet normal -0.942008 -0 -0.33559
    outer loop
      vertex -22.3846 11 -19.4745
      vertex -22.3732 -11 -19.5065
      vertex -22.3846 -11 -19.4745
    endloop
  endfacet
  facet normal -0.146788 0 -0.989168
    outer loop
      vertex -23.8334 -11 -18.3082
      vertex -23.6683 11 -18.3327
      vertex -23.6683 -11 -18.3327
    endloop
  endfacet
  facet normal -0.146788 0 -0.989168
    outer loop
      vertex -23.6683 11 -18.3327
      vertex -23.8334 -11 -18.3082
      vertex -23.8334 11 -18.3082
    endloop
  endfacet
  facet normal 0.595772 0 -0.803154
    outer loop
      vertex -25.0785 -11 -18.6859
      vertex -24.9445 11 -18.5865
      vertex -24.9445 -11 -18.5865
    endloop
  endfacet
  facet normal 0.595772 0 -0.803154
    outer loop
      vertex -24.9445 11 -18.5865
      vertex -25.0785 -11 -18.6859
      vertex -25.0785 11 -18.6859
    endloop
  endfacet
  facet normal 0.671478 0 -0.741024
    outer loop
      vertex -25.2021 -11 -18.7979
      vertex -25.0785 11 -18.6859
      vertex -25.0785 -11 -18.6859
    endloop
  endfacet
  facet normal 0.671478 0 -0.741024
    outer loop
      vertex -25.0785 11 -18.6859
      vertex -25.2021 -11 -18.7979
      vertex -25.2021 11 -18.7979
    endloop
  endfacet
  facet normal 0.242818 0 -0.970072
    outer loop
      vertex -24.4935 -11 -18.3732
      vertex -24.3317 11 -18.3327
      vertex -24.3317 -11 -18.3327
    endloop
  endfacet
  facet normal 0.242818 0 -0.970072
    outer loop
      vertex -24.3317 11 -18.3327
      vertex -24.4935 -11 -18.3732
      vertex -24.4935 11 -18.3732
    endloop
  endfacet
  facet normal 0.33683 0 -0.941566
    outer loop
      vertex -24.6506 -11 -18.4294
      vertex -24.4935 11 -18.3732
      vertex -24.4935 -11 -18.3732
    endloop
  endfacet
  facet normal 0.33683 0 -0.941566
    outer loop
      vertex -24.4935 11 -18.3732
      vertex -24.6506 -11 -18.4294
      vertex -24.6506 11 -18.4294
    endloop
  endfacet
  facet normal -0.671478 0 0.741024
    outer loop
      vertex -22.9215 11 -21.3141
      vertex -22.7979 -11 -21.2021
      vertex -22.7979 11 -21.2021
    endloop
  endfacet
  facet normal -0.671478 0 0.741024
    outer loop
      vertex -22.7979 -11 -21.2021
      vertex -22.9215 11 -21.3141
      vertex -22.9215 -11 -21.3141
    endloop
  endfacet
  facet normal -0.741024 0 0.671478
    outer loop
      vertex -22.7979 -11 -21.2021
      vertex -22.6859 11 -21.0785
      vertex -22.7979 11 -21.2021
    endloop
  endfacet
  facet normal -0.741024 0 0.671478
    outer loop
      vertex -22.6859 11 -21.0785
      vertex -22.7979 -11 -21.2021
      vertex -22.6859 -11 -21.0785
    endloop
  endfacet
  facet normal -0.595834 0 0.803107
    outer loop
      vertex -23.0544 11 -21.4127
      vertex -22.9215 -11 -21.3141
      vertex -22.9215 11 -21.3141
    endloop
  endfacet
  facet normal -0.595834 0 0.803107
    outer loop
      vertex -22.9215 -11 -21.3141
      vertex -23.0544 11 -21.4127
      vertex -23.0544 -11 -21.4127
    endloop
  endfacet
  facet normal -0.857652 0 0.514231
    outer loop
      vertex -22.5865 -11 -20.9445
      vertex -22.5007 11 -20.8014
      vertex -22.5865 11 -20.9445
    endloop
  endfacet
  facet normal -0.857652 0 0.514231
    outer loop
      vertex -22.5007 11 -20.8014
      vertex -22.5865 -11 -20.9445
      vertex -22.5007 -11 -20.8014
    endloop
  endfacet
  facet normal -0.904043 0 0.427442
    outer loop
      vertex -22.5007 -11 -20.8014
      vertex -22.4294 11 -20.6506
      vertex -22.5007 11 -20.8014
    endloop
  endfacet
  facet normal -0.904043 0 0.427442
    outer loop
      vertex -22.4294 11 -20.6506
      vertex -22.5007 -11 -20.8014
      vertex -22.4294 -11 -20.6506
    endloop
  endfacet
  facet normal -0.941566 0 0.33683
    outer loop
      vertex -22.4294 -11 -20.6506
      vertex -22.3732 11 -20.4935
      vertex -22.4294 11 -20.6506
    endloop
  endfacet
  facet normal -0.941566 0 0.33683
    outer loop
      vertex -22.3732 11 -20.4935
      vertex -22.4294 -11 -20.6506
      vertex -22.3732 -11 -20.4935
    endloop
  endfacet
  facet normal -0.989168 0 0.146788
    outer loop
      vertex -22.3327 -11 -20.3317
      vertex -22.3082 11 -20.1666
      vertex -22.3327 11 -20.3317
    endloop
  endfacet
  facet normal -0.989168 0 0.146788
    outer loop
      vertex -22.3082 11 -20.1666
      vertex -22.3327 -11 -20.3317
      vertex -22.3082 -11 -20.1666
    endloop
  endfacet
  facet normal -0.998791 0 0.0491602
    outer loop
      vertex -22.3082 -11 -20.1666
      vertex -22.3 11 -20
      vertex -22.3082 11 -20.1666
    endloop
  endfacet
  facet normal -0.998791 0 0.0491602
    outer loop
      vertex -22.3 11 -20
      vertex -22.3082 -11 -20.1666
      vertex -22.3 -11 -20
    endloop
  endfacet
  facet normal 0.998791 0 -0.0491602
    outer loop
      vertex 22.3082 -11 -19.8334
      vertex 22.3 11 -20
      vertex 22.3082 11 -19.8334
    endloop
  endfacet
  facet normal 0.998791 0 -0.0491602
    outer loop
      vertex 22.3 11 -20
      vertex 22.3082 -11 -19.8334
      vertex 22.3 -11 -20
    endloop
  endfacet
  facet normal -0.0491602 0 -0.998791
    outer loop
      vertex 24 -11 -18.3
      vertex 24.1666 11 -18.3082
      vertex 24.1666 -11 -18.3082
    endloop
  endfacet
  facet normal -0.0491602 0 -0.998791
    outer loop
      vertex 24.1666 11 -18.3082
      vertex 24 -11 -18.3
      vertex 24 11 -18.3
    endloop
  endfacet
  facet normal -0.671478 0 -0.741024
    outer loop
      vertex 25.0785 -11 -18.6859
      vertex 25.2021 11 -18.7979
      vertex 25.2021 -11 -18.7979
    endloop
  endfacet
  facet normal -0.671478 0 -0.741024
    outer loop
      vertex 25.2021 11 -18.7979
      vertex 25.0785 -11 -18.6859
      vertex 25.0785 11 -18.6859
    endloop
  endfacet
  facet normal -0.427442 0 -0.904043
    outer loop
      vertex 24.6506 -11 -18.4294
      vertex 24.8014 11 -18.5007
      vertex 24.8014 -11 -18.5007
    endloop
  endfacet
  facet normal -0.427442 0 -0.904043
    outer loop
      vertex 24.8014 11 -18.5007
      vertex 24.6506 -11 -18.4294
      vertex 24.6506 11 -18.4294
    endloop
  endfacet
  facet normal -0.514231 0 -0.857652
    outer loop
      vertex 24.8014 -11 -18.5007
      vertex 24.9445 11 -18.5865
      vertex 24.9445 -11 -18.5865
    endloop
  endfacet
  facet normal -0.514231 0 -0.857652
    outer loop
      vertex 24.9445 11 -18.5865
      vertex 24.8014 -11 -18.5007
      vertex 24.8014 11 -18.5007
    endloop
  endfacet
  facet normal 0.146788 0 -0.989168
    outer loop
      vertex 23.6683 -11 -18.3327
      vertex 23.8334 11 -18.3082
      vertex 23.8334 -11 -18.3082
    endloop
  endfacet
  facet normal 0.146788 0 -0.989168
    outer loop
      vertex 23.8334 11 -18.3082
      vertex 23.6683 -11 -18.3327
      vertex 23.6683 11 -18.3327
    endloop
  endfacet
  facet normal 0.671478 0 0.741024
    outer loop
      vertex 22.7979 11 -21.2021
      vertex 22.9215 -11 -21.3141
      vertex 22.9215 11 -21.3141
    endloop
  endfacet
  facet normal 0.671478 0 0.741024
    outer loop
      vertex 22.9215 -11 -21.3141
      vertex 22.7979 11 -21.2021
      vertex 22.7979 -11 -21.2021
    endloop
  endfacet
  facet normal -0.242818 0 -0.970072
    outer loop
      vertex 24.3317 -11 -18.3327
      vertex 24.4935 11 -18.3732
      vertex 24.4935 -11 -18.3732
    endloop
  endfacet
  facet normal -0.242818 0 -0.970072
    outer loop
      vertex 24.4935 11 -18.3732
      vertex 24.3317 -11 -18.3327
      vertex 24.3317 11 -18.3327
    endloop
  endfacet
  facet normal -0.33683 0 -0.941566
    outer loop
      vertex 24.4935 -11 -18.3732
      vertex 24.6506 11 -18.4294
      vertex 24.6506 -11 -18.4294
    endloop
  endfacet
  facet normal -0.33683 0 -0.941566
    outer loop
      vertex 24.6506 11 -18.4294
      vertex 24.4935 -11 -18.3732
      vertex 24.4935 11 -18.3732
    endloop
  endfacet
  facet normal -0.595772 0 -0.803154
    outer loop
      vertex 24.9445 -11 -18.5865
      vertex 25.0785 11 -18.6859
      vertex 25.0785 -11 -18.6859
    endloop
  endfacet
  facet normal -0.595772 0 -0.803154
    outer loop
      vertex 25.0785 11 -18.6859
      vertex 24.9445 -11 -18.5865
      vertex 24.9445 11 -18.5865
    endloop
  endfacet
  facet normal 0.970072 0 -0.242818
    outer loop
      vertex 22.3732 -11 -19.5065
      vertex 22.3327 11 -19.6683
      vertex 22.3732 11 -19.5065
    endloop
  endfacet
  facet normal 0.970072 0 -0.242818
    outer loop
      vertex 22.3327 11 -19.6683
      vertex 22.3732 -11 -19.5065
      vertex 22.3327 -11 -19.6683
    endloop
  endfacet
  facet normal 0.942008 0 -0.33559
    outer loop
      vertex 22.3846 -11 -19.4745
      vertex 22.3732 11 -19.5065
      vertex 22.3846 11 -19.4745
    endloop
  endfacet
  facet normal 0.942008 0 -0.33559
    outer loop
      vertex 22.3732 11 -19.5065
      vertex 22.3846 -11 -19.4745
      vertex 22.3732 -11 -19.5065
    endloop
  endfacet
  facet normal 0.427584 0 -0.903976
    outer loop
      vertex 23.2179 -11 -18.4916
      vertex 23.3494 11 -18.4294
      vertex 23.3494 -11 -18.4294
    endloop
  endfacet
  facet normal 0.427584 0 -0.903976
    outer loop
      vertex 23.3494 11 -18.4294
      vertex 23.2179 -11 -18.4916
      vertex 23.2179 11 -18.4916
    endloop
  endfacet
  facet normal 0.0491602 0 -0.998791
    outer loop
      vertex 23.8334 -11 -18.3082
      vertex 24 11 -18.3
      vertex 24 -11 -18.3
    endloop
  endfacet
  facet normal 0.0491602 0 -0.998791
    outer loop
      vertex 24 11 -18.3
      vertex 23.8334 -11 -18.3082
      vertex 23.8334 11 -18.3082
    endloop
  endfacet
  facet normal 0.857652 -0 0.514231
    outer loop
      vertex 22.5007 -11 -20.8014
      vertex 22.5865 11 -20.9445
      vertex 22.5007 11 -20.8014
    endloop
  endfacet
  facet normal 0.857652 0 0.514231
    outer loop
      vertex 22.5865 11 -20.9445
      vertex 22.5007 -11 -20.8014
      vertex 22.5865 -11 -20.9445
    endloop
  endfacet
  facet normal 0.904043 -0 0.427442
    outer loop
      vertex 22.4294 -11 -20.6506
      vertex 22.5007 11 -20.8014
      vertex 22.4294 11 -20.6506
    endloop
  endfacet
  facet normal 0.904043 0 0.427442
    outer loop
      vertex 22.5007 11 -20.8014
      vertex 22.4294 -11 -20.6506
      vertex 22.5007 -11 -20.8014
    endloop
  endfacet
  facet normal 0.970072 -0 0.242818
    outer loop
      vertex 22.3327 -11 -20.3317
      vertex 22.3732 11 -20.4935
      vertex 22.3327 11 -20.3317
    endloop
  endfacet
  facet normal 0.970072 0 0.242818
    outer loop
      vertex 22.3732 11 -20.4935
      vertex 22.3327 -11 -20.3317
      vertex 22.3732 -11 -20.4935
    endloop
  endfacet
  facet normal 0.941566 -0 0.33683
    outer loop
      vertex 22.3732 -11 -20.4935
      vertex 22.4294 11 -20.6506
      vertex 22.3732 11 -20.4935
    endloop
  endfacet
  facet normal 0.941566 0 0.33683
    outer loop
      vertex 22.4294 11 -20.6506
      vertex 22.3732 -11 -20.4935
      vertex 22.4294 -11 -20.6506
    endloop
  endfacet
  facet normal 0.998791 -0 0.0491602
    outer loop
      vertex 22.3 -11 -20
      vertex 22.3082 11 -20.1666
      vertex 22.3 11 -20
    endloop
  endfacet
  facet normal 0.998791 0 0.0491602
    outer loop
      vertex 22.3082 11 -20.1666
      vertex 22.3 -11 -20
      vertex 22.3082 -11 -20.1666
    endloop
  endfacet
  facet normal -0.742393 0 -0.669965
    outer loop
      vertex 25.2169 -11 -18.8143
      vertex 25.2021 11 -18.7979
      vertex 25.2169 11 -18.8143
    endloop
  endfacet
  facet normal -0.742393 -0 -0.669965
    outer loop
      vertex 25.2021 11 -18.7979
      vertex 25.2169 -11 -18.8143
      vertex 25.2021 -11 -18.7979
    endloop
  endfacet
  facet normal -0.146788 0 -0.989168
    outer loop
      vertex 24.1666 -11 -18.3082
      vertex 24.3317 11 -18.3327
      vertex 24.3317 -11 -18.3327
    endloop
  endfacet
  facet normal -0.146788 0 -0.989168
    outer loop
      vertex 24.3317 11 -18.3327
      vertex 24.1666 -11 -18.3082
      vertex 24.1666 11 -18.3082
    endloop
  endfacet
  facet normal 0.989168 0 -0.146788
    outer loop
      vertex 22.3327 -11 -19.6683
      vertex 22.3082 11 -19.8334
      vertex 22.3327 11 -19.6683
    endloop
  endfacet
  facet normal 0.989168 0 -0.146788
    outer loop
      vertex 22.3082 11 -19.8334
      vertex 22.3327 -11 -19.6683
      vertex 22.3082 -11 -19.8334
    endloop
  endfacet
  facet normal 0.242818 0 -0.970072
    outer loop
      vertex 23.5065 -11 -18.3732
      vertex 23.6683 11 -18.3327
      vertex 23.6683 -11 -18.3327
    endloop
  endfacet
  facet normal 0.242818 0 -0.970072
    outer loop
      vertex 23.6683 11 -18.3327
      vertex 23.5065 -11 -18.3732
      vertex 23.5065 11 -18.3732
    endloop
  endfacet
  facet normal 0.33683 0 -0.941566
    outer loop
      vertex 23.3494 -11 -18.4294
      vertex 23.5065 11 -18.3732
      vertex 23.5065 -11 -18.3732
    endloop
  endfacet
  facet normal 0.33683 0 -0.941566
    outer loop
      vertex 23.5065 11 -18.3732
      vertex 23.3494 -11 -18.4294
      vertex 23.3494 11 -18.4294
    endloop
  endfacet
  facet normal 0.595834 0 0.803107
    outer loop
      vertex 22.9215 11 -21.3141
      vertex 23.0544 -11 -21.4127
      vertex 23.0544 11 -21.4127
    endloop
  endfacet
  facet normal 0.595834 0 0.803107
    outer loop
      vertex 23.0544 -11 -21.4127
      vertex 22.9215 11 -21.3141
      vertex 22.9215 -11 -21.3141
    endloop
  endfacet
  facet normal 0.803154 -0 0.595772
    outer loop
      vertex 22.5865 -11 -20.9445
      vertex 22.6859 11 -21.0785
      vertex 22.5865 11 -20.9445
    endloop
  endfacet
  facet normal 0.803154 0 0.595772
    outer loop
      vertex 22.6859 11 -21.0785
      vertex 22.5865 -11 -20.9445
      vertex 22.6859 -11 -21.0785
    endloop
  endfacet
  facet normal 0.741024 -0 0.671478
    outer loop
      vertex 22.6859 -11 -21.0785
      vertex 22.7979 11 -21.2021
      vertex 22.6859 11 -21.0785
    endloop
  endfacet
  facet normal 0.741024 0 0.671478
    outer loop
      vertex 22.7979 11 -21.2021
      vertex 22.6859 -11 -21.0785
      vertex 22.7979 -11 -21.2021
    endloop
  endfacet
  facet normal 0.989168 -0 0.146788
    outer loop
      vertex 22.3082 -11 -20.1666
      vertex 22.3327 11 -20.3317
      vertex 22.3082 11 -20.1666
    endloop
  endfacet
  facet normal 0.989168 0 0.146788
    outer loop
      vertex 22.3327 11 -20.3317
      vertex 22.3082 -11 -20.1666
      vertex 22.3327 -11 -20.3317
    endloop
  endfacet
  facet normal 0.998795 -0 0.0490738
    outer loop
      vertex 31.3483 -11 3.08754
      vertex 31.5 11 0
      vertex 31.3483 11 3.08754
    endloop
  endfacet
  facet normal 0.998795 0 0.0490738
    outer loop
      vertex 31.5 11 0
      vertex 31.3483 -11 3.08754
      vertex 31.5 -11 0
    endloop
  endfacet
  facet normal 0.998795 0 -0.0490738
    outer loop
      vertex 31.5 -11 0
      vertex 31.3483 11 -3.08754
      vertex 31.5 11 0
    endloop
  endfacet
  facet normal 0.998795 0 -0.0490738
    outer loop
      vertex 31.3483 11 -3.08754
      vertex 31.5 -11 0
      vertex 31.3483 -11 -3.08754
    endloop
  endfacet
  facet normal 0 1 0
    outer loop
      vertex 24.6946 11 -16.5004
      vertex 24.1666 11 -18.3082
      vertex 24 11 -18.3
    endloop
  endfacet
  facet normal 0 1 0
    outer loop
      vertex 24.6946 11 -16.5004
      vertex 24.3317 11 -18.3327
      vertex 24.1666 11 -18.3082
    endloop
  endfacet
  facet normal 0 1 0
    outer loop
      vertex 24.6946 11 -16.5004
      vertex 24.4935 11 -18.3732
      vertex 24.3317 11 -18.3327
    endloop
  endfacet
  facet normal 0 1 0
    outer loop
      vertex 24.6946 11 -16.5004
      vertex 24.6506 11 -18.4294
      vertex 24.4935 11 -18.3732
    endloop
  endfacet
  facet normal 0 1 0
    outer loop
      vertex 26.1913 11 -17.5005
      vertex 24.8014 11 -18.5007
      vertex 24.6506 11 -18.4294
    endloop
  endfacet
  facet normal 0 1 0
    outer loop
      vertex 26.1913 11 -17.5005
      vertex 24.9445 11 -18.5865
      vertex 24.8014 11 -18.5007
    endloop
  endfacet
  facet normal 0 1 0
    outer loop
      vertex 26.1913 11 -17.5005
      vertex 25.0785 11 -18.6859
      vertex 24.9445 11 -18.5865
    endloop
  endfacet
  facet normal 0 1 0
    outer loop
      vertex 26.1913 11 -17.5005
      vertex 25.2021 11 -18.7979
      vertex 25.0785 11 -18.6859
    endloop
  endfacet
  facet normal -0 1 0
    outer loop
      vertex 25.2021 11 -18.7979
      vertex 26.1913 11 -17.5005
      vertex 25.2169 11 -18.8143
    endloop
  endfacet
  facet normal 0 1 0
    outer loop
      vertex 28.4211 11 8.62145
      vertex 29.8373 11 10
      vertex 30.1436 11 9.14397
    endloop
  endfacet
  facet normal 0 1 0
    outer loop
      vertex 29.8373 11 10
      vertex 28.4211 11 8.62145
      vertex 27.9279 11 10
    endloop
  endfacet
  facet normal 0 1 0
    outer loop
      vertex 30.8947 11 6.14534
      vertex 28.4211 11 8.62145
      vertex 30.1436 11 9.14397
    endloop
  endfacet
  facet normal 0 1 0
    outer loop
      vertex 30.8947 11 6.14534
      vertex 29.1293 11 5.79418
      vertex 28.4211 11 8.62145
    endloop
  endfacet
  facet normal 0 1 0
    outer loop
      vertex 31.3483 11 3.08754
      vertex 29.1293 11 5.79418
      vertex 30.8947 11 6.14534
    endloop
  endfacet
  facet normal 0 1 0
    outer loop
      vertex 31.3483 11 3.08754
      vertex 29.557 11 2.91111
      vertex 29.1293 11 5.79418
    endloop
  endfacet
  facet normal 0 1 0
    outer loop
      vertex 31.5 11 0
      vertex 29.557 11 2.91111
      vertex 31.3483 11 3.08754
    endloop
  endfacet
  facet normal 0 1 0
    outer loop
      vertex 31.5 11 0
      vertex 29.7 11 0
      vertex 29.557 11 2.91111
    endloop
  endfacet
  facet normal 0 1 0
    outer loop
      vertex 31.5 11 0
      vertex 29.557 11 -2.91111
      vertex 29.7 11 0
    endloop
  endfacet
  facet normal 0 1 -0
    outer loop
      vertex 31.3483 11 -3.08754
      vertex 29.557 11 -2.91111
      vertex 31.5 11 0
    endloop
  endfacet
  facet normal 0 1 0
    outer loop
      vertex 31.3483 11 -3.08754
      vertex 29.1293 11 -5.79418
      vertex 29.557 11 -2.91111
    endloop
  endfacet
  facet normal 0 1 -0
    outer loop
      vertex 30.8947 11 -6.14534
      vertex 29.1293 11 -5.79418
      vertex 31.3483 11 -3.08754
    endloop
  endfacet
  facet normal 0 1 0
    outer loop
      vertex 30.8947 11 -6.14534
      vertex 28.4211 11 -8.62145
      vertex 29.1293 11 -5.79418
    endloop
  endfacet
  facet normal 0 1 -0
    outer loop
      vertex 30.1436 11 -9.14397
      vertex 28.4211 11 -8.62145
      vertex 30.8947 11 -6.14534
    endloop
  endfacet
  facet normal 0 1 0
    outer loop
      vertex 30.1436 11 -9.14397
      vertex 27.4392 11 -11.3657
      vertex 28.4211 11 -8.62145
    endloop
  endfacet
  facet normal 0 1 -0
    outer loop
      vertex 29.1022 11 -12.0545
      vertex 27.4392 11 -11.3657
      vertex 30.1436 11 -9.14397
    endloop
  endfacet
  facet normal 0 1 0
    outer loop
      vertex 29.1022 11 -12.0545
      vertex 26.1931 11 -14.0005
      vertex 27.4392 11 -11.3657
    endloop
  endfacet
  facet normal 0 1 -0
    outer loop
      vertex 27.7805 11 -14.849
      vertex 26.1931 11 -14.0005
      vertex 29.1022 11 -12.0545
    endloop
  endfacet
  facet normal 0 1 0
    outer loop
      vertex 27.7805 11 -14.849
      vertex 24.6946 11 -16.5004
      vertex 26.1931 11 -14.0005
    endloop
  endfacet
  facet normal 0 1 -0
    outer loop
      vertex 26.1913 11 -17.5005
      vertex 24.6946 11 -16.5004
      vertex 27.7805 11 -14.849
    endloop
  endfacet
  facet normal 0 1 0
    outer loop
      vertex 24.6506 11 -18.4294
      vertex 24.6946 11 -16.5004
      vertex 26.1913 11 -17.5005
    endloop
  endfacet
  facet normal 0 1 0
    outer loop
      vertex 23.8334 11 -18.3082
      vertex 24.6946 11 -16.5004
      vertex 24 11 -18.3
    endloop
  endfacet
  facet normal 0 1 0
    outer loop
      vertex 23.6683 11 -18.3327
      vertex 24.6946 11 -16.5004
      vertex 23.8334 11 -18.3082
    endloop
  endfacet
  facet normal 0 1 0
    outer loop
      vertex 23.5065 11 -18.3732
      vertex 24.6946 11 -16.5004
      vertex 23.6683 11 -18.3327
    endloop
  endfacet
  facet normal 0 1 0
    outer loop
      vertex 23.3494 11 -18.4294
      vertex 24.6946 11 -16.5004
      vertex 23.5065 11 -18.3732
    endloop
  endfacet
  facet normal 0 1 0
    outer loop
      vertex 24.6946 11 -16.5004
      vertex 23.3494 11 -18.4294
      vertex 23.2179 11 -18.4916
    endloop
  endfacet
  facet normal 0 1 -0
    outer loop
      vertex -28.4211 11 8.62145
      vertex -29.8373 11 10
      vertex -27.9279 11 10
    endloop
  endfacet
  facet normal 0 1 0
    outer loop
      vertex -29.8373 11 10
      vertex -28.4211 11 8.62145
      vertex -30.1436 11 9.14397
    endloop
  endfacet
  facet normal 0 1 0
    outer loop
      vertex -28.4211 11 8.62145
      vertex -30.8947 11 6.14534
      vertex -30.1436 11 9.14397
    endloop
  endfacet
  facet normal 0 1 -0
    outer loop
      vertex -29.1293 11 5.79418
      vertex -30.8947 11 6.14534
      vertex -28.4211 11 8.62145
    endloop
  endfacet
  facet normal 0 1 0
    outer loop
      vertex -29.1293 11 5.79418
      vertex -31.3483 11 3.08754
      vertex -30.8947 11 6.14534
    endloop
  endfacet
  facet normal 0 1 -0
    outer loop
      vertex -29.557 11 2.91111
      vertex -31.3483 11 3.08754
      vertex -29.1293 11 5.79418
    endloop
  endfacet
  facet normal 0 1 -0
    outer loop
      vertex -29.7 11 0
      vertex -31.3483 11 3.08754
      vertex -29.557 11 2.91111
    endloop
  endfacet
  facet normal 0 1 0
    outer loop
      vertex -29.7 11 0
      vertex -31.5 11 0
      vertex -31.3483 11 3.08754
    endloop
  endfacet
  facet normal 0 1 0
    outer loop
      vertex -29.557 11 -2.91111
      vertex -31.5 11 0
      vertex -29.7 11 0
    endloop
  endfacet
  facet normal 0 1 0
    outer loop
      vertex -29.557 11 -2.91111
      vertex -31.3483 11 -3.08754
      vertex -31.5 11 0
    endloop
  endfacet
  facet normal 0 1 0
    outer loop
      vertex -29.1293 11 -5.79418
      vertex -31.3483 11 -3.08754
      vertex -29.557 11 -2.91111
    endloop
  endfacet
  facet normal 0 1 0
    outer loop
      vertex -29.1293 11 -5.79418
      vertex -30.8947 11 -6.14534
      vertex -31.3483 11 -3.08754
    endloop
  endfacet
  facet normal 0 1 0
    outer loop
      vertex -28.4211 11 -8.62145
      vertex -30.8947 11 -6.14534
      vertex -29.1293 11 -5.79418
    endloop
  endfacet
  facet normal 0 1 0
    outer loop
      vertex -28.4211 11 -8.62145
      vertex -30.1436 11 -9.14397
      vertex -30.8947 11 -6.14534
    endloop
  endfacet
  facet normal 0 1 0
    outer loop
      vertex -27.4392 11 -11.3657
      vertex -30.1436 11 -9.14397
      vertex -28.4211 11 -8.62145
    endloop
  endfacet
  facet normal 0 1 0
    outer loop
      vertex -27.4392 11 -11.3657
      vertex -29.1022 11 -12.0545
      vertex -30.1436 11 -9.14397
    endloop
  endfacet
  facet normal 0 1 0
    outer loop
      vertex -26.1931 11 -14.0005
      vertex -29.1022 11 -12.0545
      vertex -27.4392 11 -11.3657
    endloop
  endfacet
  facet normal 0 1 0
    outer loop
      vertex -26.1931 11 -14.0005
      vertex -27.7805 11 -14.849
      vertex -29.1022 11 -12.0545
    endloop
  endfacet
  facet normal 0 1 0
    outer loop
      vertex -24.6946 11 -16.5004
      vertex -27.7805 11 -14.849
      vertex -26.1931 11 -14.0005
    endloop
  endfacet
  facet normal 0 1 0
    outer loop
      vertex -24.6946 11 -16.5004
      vertex -26.1913 11 -17.5005
      vertex -27.7805 11 -14.849
    endloop
  endfacet
  facet normal 0 1 -0
    outer loop
      vertex -24.1666 11 -18.3082
      vertex -24.6946 11 -16.5004
      vertex -24 11 -18.3
    endloop
  endfacet
  facet normal 0 1 0
    outer loop
      vertex -24.6946 11 -16.5004
      vertex -23.8334 11 -18.3082
      vertex -24 11 -18.3
    endloop
  endfacet
  facet normal 0 1 0
    outer loop
      vertex -24.6946 11 -16.5004
      vertex -23.6683 11 -18.3327
      vertex -23.8334 11 -18.3082
    endloop
  endfacet
  facet normal 0 1 0
    outer loop
      vertex -24.6946 11 -16.5004
      vertex -23.5065 11 -18.3732
      vertex -23.6683 11 -18.3327
    endloop
  endfacet
  facet normal 0 1 0
    outer loop
      vertex -24.6946 11 -16.5004
      vertex -23.3494 11 -18.4294
      vertex -23.5065 11 -18.3732
    endloop
  endfacet
  facet normal -0 1 -0
    outer loop
      vertex -23.3494 11 -18.4294
      vertex -24.6946 11 -16.5004
      vertex -23.2179 11 -18.4916
    endloop
  endfacet
  facet normal 0 1 -0
    outer loop
      vertex -24.3317 11 -18.3327
      vertex -24.6946 11 -16.5004
      vertex -24.1666 11 -18.3082
    endloop
  endfacet
  facet normal 0 1 -0
    outer loop
      vertex -24.4935 11 -18.3732
      vertex -24.6946 11 -16.5004
      vertex -24.3317 11 -18.3327
    endloop
  endfacet
  facet normal 0 1 -0
    outer loop
      vertex -24.6506 11 -18.4294
      vertex -24.6946 11 -16.5004
      vertex -24.4935 11 -18.3732
    endloop
  endfacet
  facet normal 0 1 0
    outer loop
      vertex -24.6946 11 -16.5004
      vertex -24.6506 11 -18.4294
      vertex -26.1913 11 -17.5005
    endloop
  endfacet
  facet normal 0 1 -0
    outer loop
      vertex -24.8014 11 -18.5007
      vertex -26.1913 11 -17.5005
      vertex -24.6506 11 -18.4294
    endloop
  endfacet
  facet normal 0 1 -0
    outer loop
      vertex -24.9445 11 -18.5865
      vertex -26.1913 11 -17.5005
      vertex -24.8014 11 -18.5007
    endloop
  endfacet
  facet normal 0 1 -0
    outer loop
      vertex -25.0785 11 -18.6859
      vertex -26.1913 11 -17.5005
      vertex -24.9445 11 -18.5865
    endloop
  endfacet
  facet normal 0 1 -0
    outer loop
      vertex -25.2021 11 -18.7979
      vertex -26.1913 11 -17.5005
      vertex -25.0785 11 -18.6859
    endloop
  endfacet
  facet normal 0 1 0
    outer loop
      vertex -26.1913 11 -17.5005
      vertex -25.2021 11 -18.7979
      vertex -25.2169 11 -18.8143
    endloop
  endfacet
  facet normal 0 1 -0
    outer loop
      vertex 22.3732 11 -19.5065
      vertex 21.0011 11 -21.0011
      vertex 22.3846 11 -19.4745
    endloop
  endfacet
  facet normal 0 1 -0
    outer loop
      vertex 22.3327 11 -19.6683
      vertex 21.0011 11 -21.0011
      vertex 22.3732 11 -19.5065
    endloop
  endfacet
  facet normal 0 1 -0
    outer loop
      vertex 22.3082 11 -19.8334
      vertex 21.0011 11 -21.0011
      vertex 22.3327 11 -19.6683
    endloop
  endfacet
  facet normal 0 1 -0
    outer loop
      vertex 22.3 11 -20
      vertex 21.0011 11 -21.0011
      vertex 22.3082 11 -19.8334
    endloop
  endfacet
  facet normal 0 1 0
    outer loop
      vertex 22.3082 11 -20.1666
      vertex 21.0011 11 -21.0011
      vertex 22.3 11 -20
    endloop
  endfacet
  facet normal 0 1 0
    outer loop
      vertex 22.3327 11 -20.3317
      vertex 21.0011 11 -21.0011
      vertex 22.3082 11 -20.1666
    endloop
  endfacet
  facet normal 0 1 0
    outer loop
      vertex 22.3732 11 -20.4935
      vertex 21.0011 11 -21.0011
      vertex 22.3327 11 -20.3317
    endloop
  endfacet
  facet normal 0 1 0
    outer loop
      vertex 22.4294 11 -20.6506
      vertex 21.0011 11 -21.0011
      vertex 22.3732 11 -20.4935
    endloop
  endfacet
  facet normal 0 1 0
    outer loop
      vertex 22.5007 11 -20.8014
      vertex 21.0011 11 -21.0011
      vertex 22.4294 11 -20.6506
    endloop
  endfacet
  facet normal 0 1 0
    outer loop
      vertex 22.5865 11 -20.9445
      vertex 21.0011 11 -21.0011
      vertex 22.5007 11 -20.8014
    endloop
  endfacet
  facet normal 0 1 0
    outer loop
      vertex 22.2739 11 -22.2739
      vertex 22.5865 11 -20.9445
      vertex 22.6859 11 -21.0785
    endloop
  endfacet
  facet normal 0 1 0
    outer loop
      vertex 22.2739 11 -22.2739
      vertex 22.6859 11 -21.0785
      vertex 22.7979 11 -21.2021
    endloop
  endfacet
  facet normal 0 1 0
    outer loop
      vertex 22.2739 11 -22.2739
      vertex 22.7979 11 -21.2021
      vertex 22.9215 11 -21.3141
    endloop
  endfacet
  facet normal 0 1 0
    outer loop
      vertex 22.2739 11 -22.2739
      vertex 22.9215 11 -21.3141
      vertex 23.0544 11 -21.4127
    endloop
  endfacet
  facet normal 0 1 0
    outer loop
      vertex 22.5865 11 -20.9445
      vertex 22.2739 11 -22.2739
      vertex 21.0011 11 -21.0011
    endloop
  endfacet
  facet normal 0 1 0
    outer loop
      vertex 22.2739 11 -22.2739
      vertex 18.8415 11 -22.9584
      vertex 21.0011 11 -21.0011
    endloop
  endfacet
  facet normal 0 1 -0
    outer loop
      vertex 19.9834 11 -24.3498
      vertex 18.8415 11 -22.9584
      vertex 22.2739 11 -22.2739
    endloop
  endfacet
  facet normal 0 1 0
    outer loop
      vertex 19.9834 11 -24.3498
      vertex 16.5004 11 -24.6946
      vertex 18.8415 11 -22.9584
    endloop
  endfacet
  facet normal 0 1 -0
    outer loop
      vertex 17.5005 11 -26.1913
      vertex 16.5004 11 -24.6946
      vertex 19.9834 11 -24.3498
    endloop
  endfacet
  facet normal 0 1 0
    outer loop
      vertex 17.5005 11 -26.1913
      vertex 14.0005 11 -26.1931
      vertex 16.5004 11 -24.6946
    endloop
  endfacet
  facet normal 0 1 -0
    outer loop
      vertex 14.849 11 -27.7805
      vertex 14.0005 11 -26.1931
      vertex 17.5005 11 -26.1913
    endloop
  endfacet
  facet normal 0 1 0
    outer loop
      vertex 14.0005 11 -26.1931
      vertex 14.849 11 -27.7805
      vertex 11.3657 11 -27.4392
    endloop
  endfacet
  facet normal 0 1 -0
    outer loop
      vertex 12.0545 11 -29.1022
      vertex 11.3657 11 -27.4392
      vertex 14.849 11 -27.7805
    endloop
  endfacet
  facet normal 0 1 0
    outer loop
      vertex 11.3657 11 -27.4392
      vertex 12.0545 11 -29.1022
      vertex 8.62145 11 -28.4211
    endloop
  endfacet
  facet normal 0 1 -0
    outer loop
      vertex 9.14397 11 -30.1436
      vertex 8.62145 11 -28.4211
      vertex 12.0545 11 -29.1022
    endloop
  endfacet
  facet normal 0 1 0
    outer loop
      vertex 8.62145 11 -28.4211
      vertex 9.14397 11 -30.1436
      vertex 5.79418 11 -29.1293
    endloop
  endfacet
  facet normal 0 1 0
    outer loop
      vertex 5.79418 11 -29.1293
      vertex 6.14534 11 -30.8947
      vertex 2.91111 11 -29.557
    endloop
  endfacet
  facet normal 0 1 -0
    outer loop
      vertex 6.14534 11 -30.8947
      vertex 5.79418 11 -29.1293
      vertex 9.14397 11 -30.1436
    endloop
  endfacet
  facet normal 0 1 0
    outer loop
      vertex -21.0011 11 -21.0011
      vertex -22.3732 11 -19.5065
      vertex -22.3846 11 -19.4745
    endloop
  endfacet
  facet normal 0 1 0
    outer loop
      vertex -21.0011 11 -21.0011
      vertex -22.3327 11 -19.6683
      vertex -22.3732 11 -19.5065
    endloop
  endfacet
  facet normal 0 1 0
    outer loop
      vertex -21.0011 11 -21.0011
      vertex -22.3082 11 -19.8334
      vertex -22.3327 11 -19.6683
    endloop
  endfacet
  facet normal 0 1 0
    outer loop
      vertex -21.0011 11 -21.0011
      vertex -22.3 11 -20
      vertex -22.3082 11 -19.8334
    endloop
  endfacet
  facet normal 0 1 0
    outer loop
      vertex -21.0011 11 -21.0011
      vertex -22.3082 11 -20.1666
      vertex -22.3 11 -20
    endloop
  endfacet
  facet normal 0 1 0
    outer loop
      vertex -21.0011 11 -21.0011
      vertex -22.3327 11 -20.3317
      vertex -22.3082 11 -20.1666
    endloop
  endfacet
  facet normal 0 1 0
    outer loop
      vertex -21.0011 11 -21.0011
      vertex -22.3732 11 -20.4935
      vertex -22.3327 11 -20.3317
    endloop
  endfacet
  facet normal 0 1 0
    outer loop
      vertex -21.0011 11 -21.0011
      vertex -22.4294 11 -20.6506
      vertex -22.3732 11 -20.4935
    endloop
  endfacet
  facet normal 0 1 0
    outer loop
      vertex -21.0011 11 -21.0011
      vertex -22.5007 11 -20.8014
      vertex -22.4294 11 -20.6506
    endloop
  endfacet
  facet normal 0 1 0
    outer loop
      vertex -21.0011 11 -21.0011
      vertex -22.5865 11 -20.9445
      vertex -22.5007 11 -20.8014
    endloop
  endfacet
  facet normal 0 1 -0
    outer loop
      vertex -22.2739 11 -22.2739
      vertex -22.5865 11 -20.9445
      vertex -21.0011 11 -21.0011
    endloop
  endfacet
  facet normal 0 1 0
    outer loop
      vertex -22.5865 11 -20.9445
      vertex -22.2739 11 -22.2739
      vertex -22.6859 11 -21.0785
    endloop
  endfacet
  facet normal 0 1 0
    outer loop
      vertex -22.6859 11 -21.0785
      vertex -22.2739 11 -22.2739
      vertex -22.7979 11 -21.2021
    endloop
  endfacet
  facet normal 0 1 0
    outer loop
      vertex -22.7979 11 -21.2021
      vertex -22.2739 11 -22.2739
      vertex -22.9215 11 -21.3141
    endloop
  endfacet
  facet normal 0 1 0
    outer loop
      vertex -22.9215 11 -21.3141
      vertex -22.2739 11 -22.2739
      vertex -23.0544 11 -21.4127
    endloop
  endfacet
  facet normal 0 1 0
    outer loop
      vertex -18.8415 11 -22.9584
      vertex -22.2739 11 -22.2739
      vertex -21.0011 11 -21.0011
    endloop
  endfacet
  facet normal 0 1 0
    outer loop
      vertex -18.8415 11 -22.9584
      vertex -19.9834 11 -24.3498
      vertex -22.2739 11 -22.2739
    endloop
  endfacet
  facet normal 0 1 0
    outer loop
      vertex -16.5004 11 -24.6946
      vertex -19.9834 11 -24.3498
      vertex -18.8415 11 -22.9584
    endloop
  endfacet
  facet normal 0 1 0
    outer loop
      vertex -16.5004 11 -24.6946
      vertex -17.5005 11 -26.1913
      vertex -19.9834 11 -24.3498
    endloop
  endfacet
  facet normal 0 1 0
    outer loop
      vertex -14.0005 11 -26.1931
      vertex -17.5005 11 -26.1913
      vertex -16.5004 11 -24.6946
    endloop
  endfacet
  facet normal 0 1 0
    outer loop
      vertex -14.849 11 -27.7805
      vertex -14.0005 11 -26.1931
      vertex -11.3657 11 -27.4392
    endloop
  endfacet
  facet normal 0 1 0
    outer loop
      vertex -14.0005 11 -26.1931
      vertex -14.849 11 -27.7805
      vertex -17.5005 11 -26.1913
    endloop
  endfacet
  facet normal 0 1 0
    outer loop
      vertex -12.0545 11 -29.1022
      vertex -11.3657 11 -27.4392
      vertex -8.62145 11 -28.4211
    endloop
  endfacet
  facet normal 0 1 0
    outer loop
      vertex -11.3657 11 -27.4392
      vertex -12.0545 11 -29.1022
      vertex -14.849 11 -27.7805
    endloop
  endfacet
  facet normal 0 1 0
    outer loop
      vertex -9.14397 11 -30.1436
      vertex -8.62145 11 -28.4211
      vertex -5.79418 11 -29.1293
    endloop
  endfacet
  facet normal 0 1 0
    outer loop
      vertex -6.14534 11 -30.8947
      vertex -5.79418 11 -29.1293
      vertex -2.91111 11 -29.557
    endloop
  endfacet
  facet normal 0 1 0
    outer loop
      vertex -8.62145 11 -28.4211
      vertex -9.14397 11 -30.1436
      vertex -12.0545 11 -29.1022
    endloop
  endfacet
  facet normal 0 1 0
    outer loop
      vertex -3.08754 11 -31.3483
      vertex -2.91111 11 -29.557
      vertex 0 11 -29.7
    endloop
  endfacet
  facet normal 0 1 -0
    outer loop
      vertex 3.08754 11 -31.3483
      vertex 2.91111 11 -29.557
      vertex 6.14534 11 -30.8947
    endloop
  endfacet
  facet normal 0 1 0
    outer loop
      vertex 2.91111 11 -29.557
      vertex 3.08754 11 -31.3483
      vertex 0 11 -29.7
    endloop
  endfacet
  facet normal 0 1 0
    outer loop
      vertex -5.79418 11 -29.1293
      vertex -6.14534 11 -30.8947
      vertex -9.14397 11 -30.1436
    endloop
  endfacet
  facet normal 0 1 0
    outer loop
      vertex 0 11 -31.5
      vertex 0 11 -29.7
      vertex 3.08754 11 -31.3483
    endloop
  endfacet
  facet normal 0 1 0
    outer loop
      vertex -2.91111 11 -29.557
      vertex -3.08754 11 -31.3483
      vertex -6.14534 11 -30.8947
    endloop
  endfacet
  facet normal 0 1 0
    outer loop
      vertex 0 11 -29.7
      vertex 0 11 -31.5
      vertex -3.08754 11 -31.3483
    endloop
  endfacet
  facet normal 0.989176 -0 0.146736
    outer loop
      vertex 30.8947 -11 6.14534
      vertex 31.3483 11 3.08754
      vertex 30.8947 11 6.14534
    endloop
  endfacet
  facet normal 0.989176 0 0.146736
    outer loop
      vertex 31.3483 11 3.08754
      vertex 30.8947 -11 6.14534
      vertex 31.3483 -11 3.08754
    endloop
  endfacet
  facet normal 0.970033 -0 0.242975
    outer loop
      vertex 30.1436 -11 9.14397
      vertex 30.8947 11 6.14534
      vertex 30.1436 11 9.14397
    endloop
  endfacet
  facet normal 0.970033 0 0.242975
    outer loop
      vertex 30.8947 11 6.14534
      vertex 30.1436 -11 9.14397
      vertex 30.8947 -11 6.14534
    endloop
  endfacet
  facet normal -0.998795 0 0.0490738
    outer loop
      vertex -31.5 -11 0
      vertex -31.3483 11 3.08754
      vertex -31.5 11 0
    endloop
  endfacet
  facet normal -0.998795 0 0.0490738
    outer loop
      vertex -31.3483 11 3.08754
      vertex -31.5 -11 0
      vertex -31.3483 -11 3.08754
    endloop
  endfacet
  facet normal 0 -1 0
    outer loop
      vertex -22.3732 -11 -19.5065
      vertex -21.0011 -11 -21.0011
      vertex -22.3846 -11 -19.4745
    endloop
  endfacet
  facet normal 0 -1 0
    outer loop
      vertex -22.3327 -11 -19.6683
      vertex -21.0011 -11 -21.0011
      vertex -22.3732 -11 -19.5065
    endloop
  endfacet
  facet normal 0 -1 0
    outer loop
      vertex -22.3082 -11 -19.8334
      vertex -21.0011 -11 -21.0011
      vertex -22.3327 -11 -19.6683
    endloop
  endfacet
  facet normal 0 -1 0
    outer loop
      vertex -22.3 -11 -20
      vertex -21.0011 -11 -21.0011
      vertex -22.3082 -11 -19.8334
    endloop
  endfacet
  facet normal 0 -1 0
    outer loop
      vertex -22.3082 -11 -20.1666
      vertex -21.0011 -11 -21.0011
      vertex -22.3 -11 -20
    endloop
  endfacet
  facet normal 0 -1 0
    outer loop
      vertex -22.3327 -11 -20.3317
      vertex -21.0011 -11 -21.0011
      vertex -22.3082 -11 -20.1666
    endloop
  endfacet
  facet normal 0 -1 0
    outer loop
      vertex -22.3732 -11 -20.4935
      vertex -21.0011 -11 -21.0011
      vertex -22.3327 -11 -20.3317
    endloop
  endfacet
  facet normal 0 -1 0
    outer loop
      vertex -22.4294 -11 -20.6506
      vertex -21.0011 -11 -21.0011
      vertex -22.3732 -11 -20.4935
    endloop
  endfacet
  facet normal 0 -1 0
    outer loop
      vertex -22.5007 -11 -20.8014
      vertex -21.0011 -11 -21.0011
      vertex -22.4294 -11 -20.6506
    endloop
  endfacet
  facet normal 0 -1 0
    outer loop
      vertex -22.5865 -11 -20.9445
      vertex -21.0011 -11 -21.0011
      vertex -22.5007 -11 -20.8014
    endloop
  endfacet
  facet normal 0 -1 0
    outer loop
      vertex -22.2739 -11 -22.2739
      vertex -22.5865 -11 -20.9445
      vertex -22.6859 -11 -21.0785
    endloop
  endfacet
  facet normal 0 -1 0
    outer loop
      vertex -22.2739 -11 -22.2739
      vertex -22.6859 -11 -21.0785
      vertex -22.7979 -11 -21.2021
    endloop
  endfacet
  facet normal 0 -1 0
    outer loop
      vertex -22.2739 -11 -22.2739
      vertex -22.7979 -11 -21.2021
      vertex -22.9215 -11 -21.3141
    endloop
  endfacet
  facet normal 0 -1 0
    outer loop
      vertex -22.2739 -11 -22.2739
      vertex -22.9215 -11 -21.3141
      vertex -23.0544 -11 -21.4127
    endloop
  endfacet
  facet normal 0 -1 0
    outer loop
      vertex -22.5865 -11 -20.9445
      vertex -22.2739 -11 -22.2739
      vertex -21.0011 -11 -21.0011
    endloop
  endfacet
  facet normal 0 -1 0
    outer loop
      vertex -22.2739 -11 -22.2739
      vertex -18.8415 -11 -22.9584
      vertex -21.0011 -11 -21.0011
    endloop
  endfacet
  facet normal 0 -1 0
    outer loop
      vertex -19.9834 -11 -24.3498
      vertex -18.8415 -11 -22.9584
      vertex -22.2739 -11 -22.2739
    endloop
  endfacet
  facet normal 0 -1 0
    outer loop
      vertex -19.9834 -11 -24.3498
      vertex -16.5004 -11 -24.6946
      vertex -18.8415 -11 -22.9584
    endloop
  endfacet
  facet normal 0 -1 0
    outer loop
      vertex -17.5005 -11 -26.1913
      vertex -16.5004 -11 -24.6946
      vertex -19.9834 -11 -24.3498
    endloop
  endfacet
  facet normal 0 -1 0
    outer loop
      vertex -17.5005 -11 -26.1913
      vertex -14.0005 -11 -26.1931
      vertex -16.5004 -11 -24.6946
    endloop
  endfacet
  facet normal 0 -1 0
    outer loop
      vertex -14.849 -11 -27.7805
      vertex -14.0005 -11 -26.1931
      vertex -17.5005 -11 -26.1913
    endloop
  endfacet
  facet normal 0 -1 -0
    outer loop
      vertex -14.0005 -11 -26.1931
      vertex -14.849 -11 -27.7805
      vertex -11.3657 -11 -27.4392
    endloop
  endfacet
  facet normal 0 -1 0
    outer loop
      vertex -12.0545 -11 -29.1022
      vertex -11.3657 -11 -27.4392
      vertex -14.849 -11 -27.7805
    endloop
  endfacet
  facet normal 0 -1 -0
    outer loop
      vertex -11.3657 -11 -27.4392
      vertex -12.0545 -11 -29.1022
      vertex -8.62145 -11 -28.4211
    endloop
  endfacet
  facet normal 0 -1 0
    outer loop
      vertex -9.14397 -11 -30.1436
      vertex -8.62145 -11 -28.4211
      vertex -12.0545 -11 -29.1022
    endloop
  endfacet
  facet normal 0 -1 -0
    outer loop
      vertex -8.62145 -11 -28.4211
      vertex -9.14397 -11 -30.1436
      vertex -5.79418 -11 -29.1293
    endloop
  endfacet
  facet normal 0 -1 -0
    outer loop
      vertex -5.79418 -11 -29.1293
      vertex -6.14534 -11 -30.8947
      vertex -2.91111 -11 -29.557
    endloop
  endfacet
  facet normal 0 -1 0
    outer loop
      vertex -6.14534 -11 -30.8947
      vertex -5.79418 -11 -29.1293
      vertex -9.14397 -11 -30.1436
    endloop
  endfacet
  facet normal 0 -1 0
    outer loop
      vertex 21.0011 -11 -21.0011
      vertex 22.3732 -11 -19.5065
      vertex 22.3846 -11 -19.4745
    endloop
  endfacet
  facet normal 0 -1 0
    outer loop
      vertex 21.0011 -11 -21.0011
      vertex 22.3327 -11 -19.6683
      vertex 22.3732 -11 -19.5065
    endloop
  endfacet
  facet normal 0 -1 0
    outer loop
      vertex 21.0011 -11 -21.0011
      vertex 22.3082 -11 -19.8334
      vertex 22.3327 -11 -19.6683
    endloop
  endfacet
  facet normal 0 -1 0
    outer loop
      vertex 21.0011 -11 -21.0011
      vertex 22.3 -11 -20
      vertex 22.3082 -11 -19.8334
    endloop
  endfacet
  facet normal 0 -1 0
    outer loop
      vertex 21.0011 -11 -21.0011
      vertex 22.3082 -11 -20.1666
      vertex 22.3 -11 -20
    endloop
  endfacet
  facet normal 0 -1 0
    outer loop
      vertex 21.0011 -11 -21.0011
      vertex 22.3327 -11 -20.3317
      vertex 22.3082 -11 -20.1666
    endloop
  endfacet
  facet normal 0 -1 0
    outer loop
      vertex 21.0011 -11 -21.0011
      vertex 22.3732 -11 -20.4935
      vertex 22.3327 -11 -20.3317
    endloop
  endfacet
  facet normal 0 -1 0
    outer loop
      vertex 21.0011 -11 -21.0011
      vertex 22.4294 -11 -20.6506
      vertex 22.3732 -11 -20.4935
    endloop
  endfacet
  facet normal 0 -1 0
    outer loop
      vertex 21.0011 -11 -21.0011
      vertex 22.5007 -11 -20.8014
      vertex 22.4294 -11 -20.6506
    endloop
  endfacet
  facet normal 0 -1 0
    outer loop
      vertex 21.0011 -11 -21.0011
      vertex 22.5865 -11 -20.9445
      vertex 22.5007 -11 -20.8014
    endloop
  endfacet
  facet normal 0 -1 0
    outer loop
      vertex 22.2739 -11 -22.2739
      vertex 22.5865 -11 -20.9445
      vertex 21.0011 -11 -21.0011
    endloop
  endfacet
  facet normal 0 -1 -0
    outer loop
      vertex 22.5865 -11 -20.9445
      vertex 22.2739 -11 -22.2739
      vertex 22.6859 -11 -21.0785
    endloop
  endfacet
  facet normal 0 -1 -0
    outer loop
      vertex 22.6859 -11 -21.0785
      vertex 22.2739 -11 -22.2739
      vertex 22.7979 -11 -21.2021
    endloop
  endfacet
  facet normal 0 -1 -0
    outer loop
      vertex 22.7979 -11 -21.2021
      vertex 22.2739 -11 -22.2739
      vertex 22.9215 -11 -21.3141
    endloop
  endfacet
  facet normal 0 -1 -0
    outer loop
      vertex 22.9215 -11 -21.3141
      vertex 22.2739 -11 -22.2739
      vertex 23.0544 -11 -21.4127
    endloop
  endfacet
  facet normal 0 -1 0
    outer loop
      vertex 18.8415 -11 -22.9584
      vertex 22.2739 -11 -22.2739
      vertex 21.0011 -11 -21.0011
    endloop
  endfacet
  facet normal 0 -1 0
    outer loop
      vertex 18.8415 -11 -22.9584
      vertex 19.9834 -11 -24.3498
      vertex 22.2739 -11 -22.2739
    endloop
  endfacet
  facet normal 0 -1 0
    outer loop
      vertex 16.5004 -11 -24.6946
      vertex 19.9834 -11 -24.3498
      vertex 18.8415 -11 -22.9584
    endloop
  endfacet
  facet normal 0 -1 0
    outer loop
      vertex 16.5004 -11 -24.6946
      vertex 17.5005 -11 -26.1913
      vertex 19.9834 -11 -24.3498
    endloop
  endfacet
  facet normal 0 -1 0
    outer loop
      vertex 14.0005 -11 -26.1931
      vertex 17.5005 -11 -26.1913
      vertex 16.5004 -11 -24.6946
    endloop
  endfacet
  facet normal 0 -1 0
    outer loop
      vertex 14.849 -11 -27.7805
      vertex 14.0005 -11 -26.1931
      vertex 11.3657 -11 -27.4392
    endloop
  endfacet
  facet normal 0 -1 0
    outer loop
      vertex 14.0005 -11 -26.1931
      vertex 14.849 -11 -27.7805
      vertex 17.5005 -11 -26.1913
    endloop
  endfacet
  facet normal 0 -1 0
    outer loop
      vertex 12.0545 -11 -29.1022
      vertex 11.3657 -11 -27.4392
      vertex 8.62145 -11 -28.4211
    endloop
  endfacet
  facet normal 0 -1 0
    outer loop
      vertex 11.3657 -11 -27.4392
      vertex 12.0545 -11 -29.1022
      vertex 14.849 -11 -27.7805
    endloop
  endfacet
  facet normal 0 -1 0
    outer loop
      vertex 9.14397 -11 -30.1436
      vertex 8.62145 -11 -28.4211
      vertex 5.79418 -11 -29.1293
    endloop
  endfacet
  facet normal 0 -1 0
    outer loop
      vertex 6.14534 -11 -30.8947
      vertex 5.79418 -11 -29.1293
      vertex 2.91111 -11 -29.557
    endloop
  endfacet
  facet normal 0 -1 0
    outer loop
      vertex 8.62145 -11 -28.4211
      vertex 9.14397 -11 -30.1436
      vertex 12.0545 -11 -29.1022
    endloop
  endfacet
  facet normal 0 -1 0
    outer loop
      vertex 3.08754 -11 -31.3483
      vertex 2.91111 -11 -29.557
      vertex 0 -11 -29.7
    endloop
  endfacet
  facet normal 0 -1 0
    outer loop
      vertex -3.08754 -11 -31.3483
      vertex -2.91111 -11 -29.557
      vertex -6.14534 -11 -30.8947
    endloop
  endfacet
  facet normal 0 -1 -0
    outer loop
      vertex -2.91111 -11 -29.557
      vertex -3.08754 -11 -31.3483
      vertex 0 -11 -29.7
    endloop
  endfacet
  facet normal 0 -1 0
    outer loop
      vertex 5.79418 -11 -29.1293
      vertex 6.14534 -11 -30.8947
      vertex 9.14397 -11 -30.1436
    endloop
  endfacet
  facet normal 0 -1 0
    outer loop
      vertex 0 -11 -31.5
      vertex 0 -11 -29.7
      vertex -3.08754 -11 -31.3483
    endloop
  endfacet
  facet normal 0 -1 0
    outer loop
      vertex 2.91111 -11 -29.557
      vertex 3.08754 -11 -31.3483
      vertex 6.14534 -11 -30.8947
    endloop
  endfacet
  facet normal 0 -1 0
    outer loop
      vertex 0 -11 -29.7
      vertex 0 -11 -31.5
      vertex 3.08754 -11 -31.3483
    endloop
  endfacet
  facet normal 0 -1 0
    outer loop
      vertex 28.4211 -11 8.62145
      vertex 29.8373 -11 10
      vertex 27.9279 -11 10
    endloop
  endfacet
  facet normal 0 -1 -0
    outer loop
      vertex 29.8373 -11 10
      vertex 28.4211 -11 8.62145
      vertex 30.1436 -11 9.14397
    endloop
  endfacet
  facet normal 0 -1 0
    outer loop
      vertex 28.4211 -11 8.62145
      vertex 30.8947 -11 6.14534
      vertex 30.1436 -11 9.14397
    endloop
  endfacet
  facet normal 0 -1 0
    outer loop
      vertex 29.1293 -11 5.79418
      vertex 30.8947 -11 6.14534
      vertex 28.4211 -11 8.62145
    endloop
  endfacet
  facet normal 0 -1 0
    outer loop
      vertex 29.1293 -11 5.79418
      vertex 31.3483 -11 3.08754
      vertex 30.8947 -11 6.14534
    endloop
  endfacet
  facet normal 0 -1 0
    outer loop
      vertex 29.557 -11 2.91111
      vertex 31.3483 -11 3.08754
      vertex 29.1293 -11 5.79418
    endloop
  endfacet
  facet normal 0 -1 0
    outer loop
      vertex 29.7 -11 0
      vertex 31.3483 -11 3.08754
      vertex 29.557 -11 2.91111
    endloop
  endfacet
  facet normal 0 -1 0
    outer loop
      vertex 29.7 -11 0
      vertex 31.5 -11 0
      vertex 31.3483 -11 3.08754
    endloop
  endfacet
  facet normal 0 -1 0
    outer loop
      vertex 29.557 -11 -2.91111
      vertex 31.5 -11 0
      vertex 29.7 -11 0
    endloop
  endfacet
  facet normal 0 -1 0
    outer loop
      vertex 29.557 -11 -2.91111
      vertex 31.3483 -11 -3.08754
      vertex 31.5 -11 0
    endloop
  endfacet
  facet normal 0 -1 0
    outer loop
      vertex 29.1293 -11 -5.79418
      vertex 31.3483 -11 -3.08754
      vertex 29.557 -11 -2.91111
    endloop
  endfacet
  facet normal 0 -1 0
    outer loop
      vertex 29.1293 -11 -5.79418
      vertex 30.8947 -11 -6.14534
      vertex 31.3483 -11 -3.08754
    endloop
  endfacet
  facet normal 0 -1 0
    outer loop
      vertex 28.4211 -11 -8.62145
      vertex 30.8947 -11 -6.14534
      vertex 29.1293 -11 -5.79418
    endloop
  endfacet
  facet normal 0 -1 0
    outer loop
      vertex 28.4211 -11 -8.62145
      vertex 30.1436 -11 -9.14397
      vertex 30.8947 -11 -6.14534
    endloop
  endfacet
  facet normal 0 -1 0
    outer loop
      vertex 27.4392 -11 -11.3657
      vertex 30.1436 -11 -9.14397
      vertex 28.4211 -11 -8.62145
    endloop
  endfacet
  facet normal 0 -1 0
    outer loop
      vertex 27.4392 -11 -11.3657
      vertex 29.1022 -11 -12.0545
      vertex 30.1436 -11 -9.14397
    endloop
  endfacet
  facet normal 0 -1 0
    outer loop
      vertex 26.1931 -11 -14.0005
      vertex 29.1022 -11 -12.0545
      vertex 27.4392 -11 -11.3657
    endloop
  endfacet
  facet normal 0 -1 0
    outer loop
      vertex 26.1931 -11 -14.0005
      vertex 27.7805 -11 -14.849
      vertex 29.1022 -11 -12.0545
    endloop
  endfacet
  facet normal 0 -1 0
    outer loop
      vertex 24.6946 -11 -16.5004
      vertex 27.7805 -11 -14.849
      vertex 26.1931 -11 -14.0005
    endloop
  endfacet
  facet normal 0 -1 0
    outer loop
      vertex 24.6946 -11 -16.5004
      vertex 26.1913 -11 -17.5005
      vertex 27.7805 -11 -14.849
    endloop
  endfacet
  facet normal 0 -1 0
    outer loop
      vertex 24.1666 -11 -18.3082
      vertex 24.6946 -11 -16.5004
      vertex 24 -11 -18.3
    endloop
  endfacet
  facet normal 0 -1 0
    outer loop
      vertex 24.6946 -11 -16.5004
      vertex 23.8334 -11 -18.3082
      vertex 24 -11 -18.3
    endloop
  endfacet
  facet normal 0 -1 0
    outer loop
      vertex 24.6946 -11 -16.5004
      vertex 23.6683 -11 -18.3327
      vertex 23.8334 -11 -18.3082
    endloop
  endfacet
  facet normal 0 -1 0
    outer loop
      vertex 24.6946 -11 -16.5004
      vertex 23.5065 -11 -18.3732
      vertex 23.6683 -11 -18.3327
    endloop
  endfacet
  facet normal 0 -1 0
    outer loop
      vertex 24.6946 -11 -16.5004
      vertex 23.3494 -11 -18.4294
      vertex 23.5065 -11 -18.3732
    endloop
  endfacet
  facet normal -0 -1 0
    outer loop
      vertex 23.3494 -11 -18.4294
      vertex 24.6946 -11 -16.5004
      vertex 23.2179 -11 -18.4916
    endloop
  endfacet
  facet normal 0 -1 0
    outer loop
      vertex 24.3317 -11 -18.3327
      vertex 24.6946 -11 -16.5004
      vertex 24.1666 -11 -18.3082
    endloop
  endfacet
  facet normal 0 -1 0
    outer loop
      vertex 24.4935 -11 -18.3732
      vertex 24.6946 -11 -16.5004
      vertex 24.3317 -11 -18.3327
    endloop
  endfacet
  facet normal 0 -1 0
    outer loop
      vertex 24.6506 -11 -18.4294
      vertex 24.6946 -11 -16.5004
      vertex 24.4935 -11 -18.3732
    endloop
  endfacet
  facet normal 0 -1 -0
    outer loop
      vertex 24.6946 -11 -16.5004
      vertex 24.6506 -11 -18.4294
      vertex 26.1913 -11 -17.5005
    endloop
  endfacet
  facet normal 0 -1 0
    outer loop
      vertex 24.8014 -11 -18.5007
      vertex 26.1913 -11 -17.5005
      vertex 24.6506 -11 -18.4294
    endloop
  endfacet
  facet normal 0 -1 0
    outer loop
      vertex 24.9445 -11 -18.5865
      vertex 26.1913 -11 -17.5005
      vertex 24.8014 -11 -18.5007
    endloop
  endfacet
  facet normal 0 -1 0
    outer loop
      vertex 25.0785 -11 -18.6859
      vertex 26.1913 -11 -17.5005
      vertex 24.9445 -11 -18.5865
    endloop
  endfacet
  facet normal 0 -1 0
    outer loop
      vertex 25.2021 -11 -18.7979
      vertex 26.1913 -11 -17.5005
      vertex 25.0785 -11 -18.6859
    endloop
  endfacet
  facet normal 0 -1 0
    outer loop
      vertex 26.1913 -11 -17.5005
      vertex 25.2021 -11 -18.7979
      vertex 25.2169 -11 -18.8143
    endloop
  endfacet
  facet normal 0 -1 0
    outer loop
      vertex -24.6946 -11 -16.5004
      vertex -24.1666 -11 -18.3082
      vertex -24 -11 -18.3
    endloop
  endfacet
  facet normal 0 -1 0
    outer loop
      vertex -24.6946 -11 -16.5004
      vertex -24.3317 -11 -18.3327
      vertex -24.1666 -11 -18.3082
    endloop
  endfacet
  facet normal 0 -1 0
    outer loop
      vertex -24.6946 -11 -16.5004
      vertex -24.4935 -11 -18.3732
      vertex -24.3317 -11 -18.3327
    endloop
  endfacet
  facet normal 0 -1 0
    outer loop
      vertex -24.6946 -11 -16.5004
      vertex -24.6506 -11 -18.4294
      vertex -24.4935 -11 -18.3732
    endloop
  endfacet
  facet normal 0 -1 0
    outer loop
      vertex -26.1913 -11 -17.5005
      vertex -24.8014 -11 -18.5007
      vertex -24.6506 -11 -18.4294
    endloop
  endfacet
  facet normal 0 -1 0
    outer loop
      vertex -26.1913 -11 -17.5005
      vertex -24.9445 -11 -18.5865
      vertex -24.8014 -11 -18.5007
    endloop
  endfacet
  facet normal 0 -1 0
    outer loop
      vertex -26.1913 -11 -17.5005
      vertex -25.0785 -11 -18.6859
      vertex -24.9445 -11 -18.5865
    endloop
  endfacet
  facet normal 0 -1 0
    outer loop
      vertex -26.1913 -11 -17.5005
      vertex -25.2021 -11 -18.7979
      vertex -25.0785 -11 -18.6859
    endloop
  endfacet
  facet normal -0 -1 0
    outer loop
      vertex -25.2021 -11 -18.7979
      vertex -26.1913 -11 -17.5005
      vertex -25.2169 -11 -18.8143
    endloop
  endfacet
  facet normal 0 -1 0
    outer loop
      vertex -28.4211 -11 8.62145
      vertex -29.8373 -11 10
      vertex -30.1436 -11 9.14397
    endloop
  endfacet
  facet normal 0 -1 0
    outer loop
      vertex -29.8373 -11 10
      vertex -28.4211 -11 8.62145
      vertex -27.9279 -11 10
    endloop
  endfacet
  facet normal 0 -1 0
    outer loop
      vertex -30.8947 -11 6.14534
      vertex -28.4211 -11 8.62145
      vertex -30.1436 -11 9.14397
    endloop
  endfacet
  facet normal 0 -1 0
    outer loop
      vertex -30.8947 -11 6.14534
      vertex -29.1293 -11 5.79418
      vertex -28.4211 -11 8.62145
    endloop
  endfacet
  facet normal 0 -1 0
    outer loop
      vertex -31.3483 -11 3.08754
      vertex -29.1293 -11 5.79418
      vertex -30.8947 -11 6.14534
    endloop
  endfacet
  facet normal 0 -1 0
    outer loop
      vertex -31.3483 -11 3.08754
      vertex -29.557 -11 2.91111
      vertex -29.1293 -11 5.79418
    endloop
  endfacet
  facet normal 0 -1 0
    outer loop
      vertex -31.5 -11 0
      vertex -29.557 -11 2.91111
      vertex -31.3483 -11 3.08754
    endloop
  endfacet
  facet normal 0 -1 0
    outer loop
      vertex -31.5 -11 0
      vertex -29.7 -11 0
      vertex -29.557 -11 2.91111
    endloop
  endfacet
  facet normal 0 -1 0
    outer loop
      vertex -31.5 -11 0
      vertex -29.557 -11 -2.91111
      vertex -29.7 -11 0
    endloop
  endfacet
  facet normal 0 -1 0
    outer loop
      vertex -31.3483 -11 -3.08754
      vertex -29.557 -11 -2.91111
      vertex -31.5 -11 0
    endloop
  endfacet
  facet normal 0 -1 0
    outer loop
      vertex -31.3483 -11 -3.08754
      vertex -29.1293 -11 -5.79418
      vertex -29.557 -11 -2.91111
    endloop
  endfacet
  facet normal 0 -1 0
    outer loop
      vertex -30.8947 -11 -6.14534
      vertex -29.1293 -11 -5.79418
      vertex -31.3483 -11 -3.08754
    endloop
  endfacet
  facet normal 0 -1 0
    outer loop
      vertex -30.8947 -11 -6.14534
      vertex -28.4211 -11 -8.62145
      vertex -29.1293 -11 -5.79418
    endloop
  endfacet
  facet normal 0 -1 0
    outer loop
      vertex -30.1436 -11 -9.14397
      vertex -28.4211 -11 -8.62145
      vertex -30.8947 -11 -6.14534
    endloop
  endfacet
  facet normal 0 -1 0
    outer loop
      vertex -30.1436 -11 -9.14397
      vertex -27.4392 -11 -11.3657
      vertex -28.4211 -11 -8.62145
    endloop
  endfacet
  facet normal 0 -1 0
    outer loop
      vertex -29.1022 -11 -12.0545
      vertex -27.4392 -11 -11.3657
      vertex -30.1436 -11 -9.14397
    endloop
  endfacet
  facet normal 0 -1 0
    outer loop
      vertex -29.1022 -11 -12.0545
      vertex -26.1931 -11 -14.0005
      vertex -27.4392 -11 -11.3657
    endloop
  endfacet
  facet normal 0 -1 0
    outer loop
      vertex -27.7805 -11 -14.849
      vertex -26.1931 -11 -14.0005
      vertex -29.1022 -11 -12.0545
    endloop
  endfacet
  facet normal 0 -1 0
    outer loop
      vertex -27.7805 -11 -14.849
      vertex -24.6946 -11 -16.5004
      vertex -26.1931 -11 -14.0005
    endloop
  endfacet
  facet normal 0 -1 0
    outer loop
      vertex -26.1913 -11 -17.5005
      vertex -24.6946 -11 -16.5004
      vertex -27.7805 -11 -14.849
    endloop
  endfacet
  facet normal 0 -1 0
    outer loop
      vertex -24.6506 -11 -18.4294
      vertex -24.6946 -11 -16.5004
      vertex -26.1913 -11 -17.5005
    endloop
  endfacet
  facet normal 0 -1 0
    outer loop
      vertex -23.8334 -11 -18.3082
      vertex -24.6946 -11 -16.5004
      vertex -24 -11 -18.3
    endloop
  endfacet
  facet normal 0 -1 0
    outer loop
      vertex -23.6683 -11 -18.3327
      vertex -24.6946 -11 -16.5004
      vertex -23.8334 -11 -18.3082
    endloop
  endfacet
  facet normal 0 -1 0
    outer loop
      vertex -23.5065 -11 -18.3732
      vertex -24.6946 -11 -16.5004
      vertex -23.6683 -11 -18.3327
    endloop
  endfacet
  facet normal 0 -1 0
    outer loop
      vertex -23.3494 -11 -18.4294
      vertex -24.6946 -11 -16.5004
      vertex -23.5065 -11 -18.3732
    endloop
  endfacet
  facet normal 0 -1 0
    outer loop
      vertex -24.6946 -11 -16.5004
      vertex -23.3494 -11 -18.4294
      vertex -23.2179 -11 -18.4916
    endloop
  endfacet
  facet normal -0.941541 0 0.336897
    outer loop
      vertex -30.1436 -11 9.14397
      vertex -29.8373 11 10
      vertex -30.1436 11 9.14397
    endloop
  endfacet
  facet normal -0.941541 0 0.336897
    outer loop
      vertex -29.8373 11 10
      vertex -30.1436 -11 9.14397
      vertex -29.8373 -11 10
    endloop
  endfacet
  facet normal -0.970033 0 0.242975
    outer loop
      vertex -30.8947 -11 6.14534
      vertex -30.1436 11 9.14397
      vertex -30.8947 11 6.14534
    endloop
  endfacet
  facet normal -0.970033 0 0.242975
    outer loop
      vertex -30.1436 11 9.14397
      vertex -30.8947 -11 6.14534
      vertex -30.1436 -11 9.14397
    endloop
  endfacet
  facet normal 0.970033 0 -0.242975
    outer loop
      vertex 30.8947 -11 -6.14534
      vertex 30.1436 11 -9.14397
      vertex 30.8947 11 -6.14534
    endloop
  endfacet
  facet normal 0.970033 0 -0.242975
    outer loop
      vertex 30.1436 11 -9.14397
      vertex 30.8947 -11 -6.14534
      vertex 30.1436 -11 -9.14397
    endloop
  endfacet
  facet normal 0.0490738 0 -0.998795
    outer loop
      vertex 0 -11 -31.5
      vertex 3.08754 11 -31.3483
      vertex 3.08754 -11 -31.3483
    endloop
  endfacet
  facet normal 0.0490738 0 -0.998795
    outer loop
      vertex 3.08754 11 -31.3483
      vertex 0 -11 -31.5
      vertex 0 11 -31.5
    endloop
  endfacet
  facet normal 0.514091 0 -0.857735
    outer loop
      vertex 14.849 -11 -27.7805
      vertex 17.5005 11 -26.1913
      vertex 17.5005 -11 -26.1913
    endloop
  endfacet
  facet normal 0.514091 0 -0.857735
    outer loop
      vertex 17.5005 11 -26.1913
      vertex 14.849 -11 -27.7805
      vertex 14.849 11 -27.7805
    endloop
  endfacet
  facet normal 0.803202 0 -0.595707
    outer loop
      vertex 26.1913 -11 -17.5005
      vertex 25.2169 11 -18.8143
      vertex 26.1913 11 -17.5005
    endloop
  endfacet
  facet normal 0.803202 0 -0.595707
    outer loop
      vertex 25.2169 11 -18.8143
      vertex 26.1913 -11 -17.5005
      vertex 25.2169 -11 -18.8143
    endloop
  endfacet
  facet normal -0.336889 0 -0.941545
    outer loop
      vertex -12.0545 -11 -29.1022
      vertex -9.14397 11 -30.1436
      vertex -9.14397 -11 -30.1436
    endloop
  endfacet
  facet normal -0.336889 0 -0.941545
    outer loop
      vertex -9.14397 11 -30.1436
      vertex -12.0545 -11 -29.1022
      vertex -12.0545 11 -29.1022
    endloop
  endfacet
  facet normal -0.671543 0 -0.740965
    outer loop
      vertex -22.2739 -11 -22.2739
      vertex -19.9834 11 -24.3498
      vertex -19.9834 -11 -24.3498
    endloop
  endfacet
  facet normal -0.671543 0 -0.740965
    outer loop
      vertex -19.9834 11 -24.3498
      vertex -22.2739 -11 -22.2739
      vertex -22.2739 11 -22.2739
    endloop
  endfacet
  facet normal -0.998795 0 -0.0490738
    outer loop
      vertex -31.3483 -11 -3.08754
      vertex -31.5 11 0
      vertex -31.3483 11 -3.08754
    endloop
  endfacet
  facet normal -0.998795 -0 -0.0490738
    outer loop
      vertex -31.5 11 0
      vertex -31.3483 -11 -3.08754
      vertex -31.5 -11 0
    endloop
  endfacet
  facet normal -0.903989 0 -0.427555
    outer loop
      vertex -27.7805 -11 -14.849
      vertex -29.1022 11 -12.0545
      vertex -27.7805 11 -14.849
    endloop
  endfacet
  facet normal -0.903989 -0 -0.427555
    outer loop
      vertex -29.1022 11 -12.0545
      vertex -27.7805 -11 -14.849
      vertex -29.1022 -11 -12.0545
    endloop
  endfacet
  facet normal 0.941541 -0 0.336897
    outer loop
      vertex 29.8373 -11 10
      vertex 30.1436 11 9.14397
      vertex 29.8373 11 10
    endloop
  endfacet
  facet normal 0.941541 0 0.336897
    outer loop
      vertex 30.1436 11 9.14397
      vertex 29.8373 -11 10
      vertex 30.1436 -11 9.14397
    endloop
  endfacet
  facet normal -0.989176 0 0.146736
    outer loop
      vertex -31.3483 -11 3.08754
      vertex -30.8947 11 6.14534
      vertex -31.3483 11 3.08754
    endloop
  endfacet
  facet normal -0.989176 0 0.146736
    outer loop
      vertex -30.8947 11 6.14534
      vertex -31.3483 -11 3.08754
      vertex -30.8947 -11 6.14534
    endloop
  endfacet
  facet normal 0.989176 0 -0.146736
    outer loop
      vertex 31.3483 -11 -3.08754
      vertex 30.8947 11 -6.14534
      vertex 31.3483 11 -3.08754
    endloop
  endfacet
  facet normal 0.989176 0 -0.146736
    outer loop
      vertex 30.8947 11 -6.14534
      vertex 31.3483 -11 -3.08754
      vertex 30.8947 -11 -6.14534
    endloop
  endfacet
  facet normal 0.146736 0 -0.989176
    outer loop
      vertex 3.08754 -11 -31.3483
      vertex 6.14534 11 -30.8947
      vertex 6.14534 -11 -30.8947
    endloop
  endfacet
  facet normal 0.146736 0 -0.989176
    outer loop
      vertex 6.14534 11 -30.8947
      vertex 3.08754 -11 -31.3483
      vertex 3.08754 11 -31.3483
    endloop
  endfacet
  facet normal 0.242975 0 -0.970033
    outer loop
      vertex 6.14534 -11 -30.8947
      vertex 9.14397 11 -30.1436
      vertex 9.14397 -11 -30.1436
    endloop
  endfacet
  facet normal 0.242975 0 -0.970033
    outer loop
      vertex 9.14397 11 -30.1436
      vertex 6.14534 -11 -30.8947
      vertex 6.14534 11 -30.8947
    endloop
  endfacet
  facet normal 0.671543 0 -0.740965
    outer loop
      vertex 19.9834 -11 -24.3498
      vertex 22.2739 11 -22.2739
      vertex 22.2739 -11 -22.2739
    endloop
  endfacet
  facet normal 0.671543 0 -0.740965
    outer loop
      vertex 22.2739 11 -22.2739
      vertex 19.9834 -11 -24.3498
      vertex 19.9834 11 -24.3498
    endloop
  endfacet
  facet normal 0.740971 0 -0.671537
    outer loop
      vertex 23.0544 -11 -21.4127
      vertex 22.2739 11 -22.2739
      vertex 23.0544 11 -21.4127
    endloop
  endfacet
  facet normal 0.740971 0 -0.671537
    outer loop
      vertex 22.2739 11 -22.2739
      vertex 23.0544 -11 -21.4127
      vertex 22.2739 -11 -22.2739
    endloop
  endfacet
  facet normal 0.595711 0 -0.803199
    outer loop
      vertex 17.5005 -11 -26.1913
      vertex 19.9834 11 -24.3498
      vertex 19.9834 -11 -24.3498
    endloop
  endfacet
  facet normal 0.595711 0 -0.803199
    outer loop
      vertex 19.9834 11 -24.3498
      vertex 17.5005 -11 -26.1913
      vertex 17.5005 11 -26.1913
    endloop
  endfacet
  facet normal 0.903989 0 -0.427555
    outer loop
      vertex 29.1022 -11 -12.0545
      vertex 27.7805 11 -14.849
      vertex 29.1022 11 -12.0545
    endloop
  endfacet
  facet normal 0.903989 0 -0.427555
    outer loop
      vertex 27.7805 11 -14.849
      vertex 29.1022 -11 -12.0545
      vertex 27.7805 -11 -14.849
    endloop
  endfacet
  facet normal 0.941545 0 -0.336889
    outer loop
      vertex 30.1436 -11 -9.14397
      vertex 29.1022 11 -12.0545
      vertex 30.1436 11 -9.14397
    endloop
  endfacet
  facet normal 0.941545 0 -0.336889
    outer loop
      vertex 29.1022 11 -12.0545
      vertex 30.1436 -11 -9.14397
      vertex 29.1022 -11 -12.0545
    endloop
  endfacet
  facet normal 0.857735 0 -0.514091
    outer loop
      vertex 27.7805 -11 -14.849
      vertex 26.1913 11 -17.5005
      vertex 27.7805 11 -14.849
    endloop
  endfacet
  facet normal 0.857735 0 -0.514091
    outer loop
      vertex 26.1913 11 -17.5005
      vertex 27.7805 -11 -14.849
      vertex 26.1913 -11 -17.5005
    endloop
  endfacet
  facet normal -0.146736 0 -0.989176
    outer loop
      vertex -6.14534 -11 -30.8947
      vertex -3.08754 11 -31.3483
      vertex -3.08754 -11 -31.3483
    endloop
  endfacet
  facet normal -0.146736 0 -0.989176
    outer loop
      vertex -3.08754 11 -31.3483
      vertex -6.14534 -11 -30.8947
      vertex -6.14534 11 -30.8947
    endloop
  endfacet
  facet normal -0.0490738 0 -0.998795
    outer loop
      vertex -3.08754 -11 -31.3483
      vertex 0 11 -31.5
      vertex 0 -11 -31.5
    endloop
  endfacet
  facet normal -0.0490738 0 -0.998795
    outer loop
      vertex 0 11 -31.5
      vertex -3.08754 -11 -31.3483
      vertex -3.08754 11 -31.3483
    endloop
  endfacet
  facet normal -0.242975 0 -0.970033
    outer loop
      vertex -9.14397 -11 -30.1436
      vertex -6.14534 11 -30.8947
      vertex -6.14534 -11 -30.8947
    endloop
  endfacet
  facet normal -0.242975 0 -0.970033
    outer loop
      vertex -6.14534 11 -30.8947
      vertex -9.14397 -11 -30.1436
      vertex -9.14397 11 -30.1436
    endloop
  endfacet
  facet normal -0.514091 0 -0.857735
    outer loop
      vertex -17.5005 -11 -26.1913
      vertex -14.849 11 -27.7805
      vertex -14.849 -11 -27.7805
    endloop
  endfacet
  facet normal -0.514091 0 -0.857735
    outer loop
      vertex -14.849 11 -27.7805
      vertex -17.5005 -11 -26.1913
      vertex -17.5005 11 -26.1913
    endloop
  endfacet
  facet normal -0.427555 0 -0.903989
    outer loop
      vertex -14.849 -11 -27.7805
      vertex -12.0545 11 -29.1022
      vertex -12.0545 -11 -29.1022
    endloop
  endfacet
  facet normal -0.427555 0 -0.903989
    outer loop
      vertex -12.0545 11 -29.1022
      vertex -14.849 -11 -27.7805
      vertex -14.849 11 -27.7805
    endloop
  endfacet
  facet normal -0.595711 0 -0.803199
    outer loop
      vertex -19.9834 -11 -24.3498
      vertex -17.5005 11 -26.1913
      vertex -17.5005 -11 -26.1913
    endloop
  endfacet
  facet normal -0.595711 0 -0.803199
    outer loop
      vertex -17.5005 11 -26.1913
      vertex -19.9834 -11 -24.3498
      vertex -19.9834 11 -24.3498
    endloop
  endfacet
  facet normal -0.970033 0 -0.242975
    outer loop
      vertex -30.1436 -11 -9.14397
      vertex -30.8947 11 -6.14534
      vertex -30.1436 11 -9.14397
    endloop
  endfacet
  facet normal -0.970033 -0 -0.242975
    outer loop
      vertex -30.8947 11 -6.14534
      vertex -30.1436 -11 -9.14397
      vertex -30.8947 -11 -6.14534
    endloop
  endfacet
  facet normal -0.941545 0 -0.336889
    outer loop
      vertex -29.1022 -11 -12.0545
      vertex -30.1436 11 -9.14397
      vertex -29.1022 11 -12.0545
    endloop
  endfacet
  facet normal -0.941545 -0 -0.336889
    outer loop
      vertex -30.1436 11 -9.14397
      vertex -29.1022 -11 -12.0545
      vertex -30.1436 -11 -9.14397
    endloop
  endfacet
  facet normal -0.989176 0 -0.146736
    outer loop
      vertex -30.8947 -11 -6.14534
      vertex -31.3483 11 -3.08754
      vertex -30.8947 11 -6.14534
    endloop
  endfacet
  facet normal -0.989176 -0 -0.146736
    outer loop
      vertex -31.3483 11 -3.08754
      vertex -30.8947 -11 -6.14534
      vertex -31.3483 -11 -3.08754
    endloop
  endfacet
  facet normal -0.857735 0 -0.514091
    outer loop
      vertex -26.1913 -11 -17.5005
      vertex -27.7805 11 -14.849
      vertex -26.1913 11 -17.5005
    endloop
  endfacet
  facet normal -0.857735 -0 -0.514091
    outer loop
      vertex -27.7805 11 -14.849
      vertex -26.1913 -11 -17.5005
      vertex -27.7805 -11 -14.849
    endloop
  endfacet
  facet normal -0.803202 0 -0.595707
    outer loop
      vertex -25.2169 -11 -18.8143
      vertex -26.1913 11 -17.5005
      vertex -25.2169 11 -18.8143
    endloop
  endfacet
  facet normal -0.803202 -0 -0.595707
    outer loop
      vertex -26.1913 11 -17.5005
      vertex -25.2169 -11 -18.8143
      vertex -26.1913 -11 -17.5005
    endloop
  endfacet
  facet normal -0.740971 0 -0.671537
    outer loop
      vertex -22.2739 -11 -22.2739
      vertex -23.0544 11 -21.4127
      vertex -22.2739 11 -22.2739
    endloop
  endfacet
  facet normal -0.740971 -0 -0.671537
    outer loop
      vertex -23.0544 11 -21.4127
      vertex -22.2739 -11 -22.2739
      vertex -23.0544 -11 -21.4127
    endloop
  endfacet
  facet normal 0.336889 0 -0.941545
    outer loop
      vertex 9.14397 -11 -30.1436
      vertex 12.0545 11 -29.1022
      vertex 12.0545 -11 -29.1022
    endloop
  endfacet
  facet normal 0.336889 0 -0.941545
    outer loop
      vertex 12.0545 11 -29.1022
      vertex 9.14397 -11 -30.1436
      vertex 9.14397 11 -30.1436
    endloop
  endfacet
  facet normal 0.427555 0 -0.903989
    outer loop
      vertex 12.0545 -11 -29.1022
      vertex 14.849 11 -27.7805
      vertex 14.849 -11 -27.7805
    endloop
  endfacet
  facet normal 0.427555 0 -0.903989
    outer loop
      vertex 14.849 11 -27.7805
      vertex 12.0545 -11 -29.1022
      vertex 12.0545 11 -29.1022
    endloop
  endfacet
  facet normal -0.998796 0 -0.049063
    outer loop
      vertex 29.7 -11 0
      vertex 29.557 11 2.91111
      vertex 29.7 11 0
    endloop
  endfacet
  facet normal -0.998796 -0 -0.049063
    outer loop
      vertex 29.557 11 2.91111
      vertex 29.7 -11 0
      vertex 29.557 -11 2.91111
    endloop
  endfacet
  facet normal -0.998796 0 0.049063
    outer loop
      vertex 29.557 -11 -2.91111
      vertex 29.7 11 0
      vertex 29.557 11 -2.91111
    endloop
  endfacet
  facet normal -0.998796 0 0.049063
    outer loop
      vertex 29.7 11 0
      vertex 29.557 -11 -2.91111
      vertex 29.7 -11 0
    endloop
  endfacet
  facet normal -0.803222 0 0.59568
    outer loop
      vertex 23.2179 -11 -18.4916
      vertex 24.6946 11 -16.5004
      vertex 23.2179 11 -18.4916
    endloop
  endfacet
  facet normal -0.803222 0 0.59568
    outer loop
      vertex 24.6946 11 -16.5004
      vertex 23.2179 -11 -18.4916
      vertex 24.6946 -11 -16.5004
    endloop
  endfacet
  facet normal -0.989175 0 -0.146743
    outer loop
      vertex 29.557 -11 2.91111
      vertex 29.1293 11 5.79418
      vertex 29.557 11 2.91111
    endloop
  endfacet
  facet normal -0.989175 -0 -0.146743
    outer loop
      vertex 29.1293 11 5.79418
      vertex 29.557 -11 2.91111
      vertex 29.1293 -11 5.79418
    endloop
  endfacet
  facet normal -0.970031 0 -0.242982
    outer loop
      vertex 29.1293 -11 5.79418
      vertex 28.4211 11 8.62145
      vertex 29.1293 11 5.79418
    endloop
  endfacet
  facet normal -0.970031 -0 -0.242982
    outer loop
      vertex 28.4211 11 8.62145
      vertex 29.1293 -11 5.79418
      vertex 28.4211 -11 8.62145
    endloop
  endfacet
  facet normal 0.998796 0 -0.049063
    outer loop
      vertex -29.557 -11 2.91111
      vertex -29.7 11 0
      vertex -29.557 11 2.91111
    endloop
  endfacet
  facet normal 0.998796 0 -0.049063
    outer loop
      vertex -29.7 11 0
      vertex -29.557 -11 2.91111
      vertex -29.7 -11 0
    endloop
  endfacet
  facet normal 0.941556 0 -0.336858
    outer loop
      vertex -27.9279 -11 10
      vertex -28.4211 11 8.62145
      vertex -27.9279 11 10
    endloop
  endfacet
  facet normal 0.941556 0 -0.336858
    outer loop
      vertex -28.4211 11 8.62145
      vertex -27.9279 -11 10
      vertex -28.4211 -11 8.62145
    endloop
  endfacet
  facet normal 0.970031 0 -0.242982
    outer loop
      vertex -28.4211 -11 8.62145
      vertex -29.1293 11 5.79418
      vertex -28.4211 11 8.62145
    endloop
  endfacet
  facet normal 0.970031 0 -0.242982
    outer loop
      vertex -29.1293 11 5.79418
      vertex -28.4211 -11 8.62145
      vertex -29.1293 -11 5.79418
    endloop
  endfacet
  facet normal -0.989175 0 0.146743
    outer loop
      vertex 29.1293 -11 -5.79418
      vertex 29.557 11 -2.91111
      vertex 29.1293 11 -5.79418
    endloop
  endfacet
  facet normal -0.989175 0 0.146743
    outer loop
      vertex 29.557 11 -2.91111
      vertex 29.1293 -11 -5.79418
      vertex 29.557 -11 -2.91111
    endloop
  endfacet
  facet normal -0.857711 0 0.514132
    outer loop
      vertex 24.6946 -11 -16.5004
      vertex 26.1931 11 -14.0005
      vertex 24.6946 11 -16.5004
    endloop
  endfacet
  facet normal -0.857711 0 0.514132
    outer loop
      vertex 26.1931 11 -14.0005
      vertex 24.6946 -11 -16.5004
      vertex 26.1931 -11 -14.0005
    endloop
  endfacet
  facet normal -0.049063 0 0.998796
    outer loop
      vertex 0 11 -29.7
      vertex 2.91111 -11 -29.557
      vertex 2.91111 11 -29.557
    endloop
  endfacet
  facet normal -0.049063 0 0.998796
    outer loop
      vertex 2.91111 -11 -29.557
      vertex 0 11 -29.7
      vertex 0 -11 -29.7
    endloop
  endfacet
  facet normal 0.336887 0 0.941545
    outer loop
      vertex -11.3657 11 -27.4392
      vertex -8.62145 -11 -28.4211
      vertex -8.62145 11 -28.4211
    endloop
  endfacet
  facet normal 0.336887 0 0.941545
    outer loop
      vertex -8.62145 -11 -28.4211
      vertex -11.3657 11 -27.4392
      vertex -11.3657 -11 -27.4392
    endloop
  endfacet
  facet normal 0.67155 0 0.740959
    outer loop
      vertex -21.0011 11 -21.0011
      vertex -18.8415 -11 -22.9584
      vertex -18.8415 11 -22.9584
    endloop
  endfacet
  facet normal 0.67155 0 0.740959
    outer loop
      vertex -18.8415 -11 -22.9584
      vertex -21.0011 11 -21.0011
      vertex -21.0011 -11 -21.0011
    endloop
  endfacet
  facet normal 0.998796 -0 0.049063
    outer loop
      vertex -29.7 -11 0
      vertex -29.557 11 -2.91111
      vertex -29.7 11 0
    endloop
  endfacet
  facet normal 0.998796 0 0.049063
    outer loop
      vertex -29.557 11 -2.91111
      vertex -29.7 -11 0
      vertex -29.557 -11 -2.91111
    endloop
  endfacet
  facet normal 0.803222 -0 0.59568
    outer loop
      vertex -24.6946 -11 -16.5004
      vertex -23.2179 11 -18.4916
      vertex -24.6946 11 -16.5004
    endloop
  endfacet
  facet normal 0.803222 0 0.59568
    outer loop
      vertex -23.2179 11 -18.4916
      vertex -24.6946 -11 -16.5004
      vertex -23.2179 -11 -18.4916
    endloop
  endfacet
  facet normal -0.941556 0 -0.336858
    outer loop
      vertex 28.4211 -11 8.62145
      vertex 27.9279 11 10
      vertex 28.4211 11 8.62145
    endloop
  endfacet
  facet normal -0.941556 -0 -0.336858
    outer loop
      vertex 27.9279 11 10
      vertex 28.4211 -11 8.62145
      vertex 27.9279 -11 10
    endloop
  endfacet
  facet normal 0.989175 0 -0.146743
    outer loop
      vertex -29.1293 -11 5.79418
      vertex -29.557 11 2.91111
      vertex -29.1293 11 5.79418
    endloop
  endfacet
  facet normal 0.989175 0 -0.146743
    outer loop
      vertex -29.557 11 2.91111
      vertex -29.1293 -11 5.79418
      vertex -29.557 -11 2.91111
    endloop
  endfacet
  facet normal -0.941545 0 0.336887
    outer loop
      vertex 27.4392 -11 -11.3657
      vertex 28.4211 11 -8.62145
      vertex 27.4392 11 -11.3657
    endloop
  endfacet
  facet normal -0.941545 0 0.336887
    outer loop
      vertex 28.4211 11 -8.62145
      vertex 27.4392 -11 -11.3657
      vertex 28.4211 -11 -8.62145
    endloop
  endfacet
  facet normal -0.970031 0 0.242982
    outer loop
      vertex 28.4211 -11 -8.62145
      vertex 29.1293 11 -5.79418
      vertex 28.4211 11 -8.62145
    endloop
  endfacet
  facet normal -0.970031 0 0.242982
    outer loop
      vertex 29.1293 11 -5.79418
      vertex 28.4211 -11 -8.62145
      vertex 29.1293 -11 -5.79418
    endloop
  endfacet
  facet normal -0.146743 0 0.989175
    outer loop
      vertex 2.91111 11 -29.557
      vertex 5.79418 -11 -29.1293
      vertex 5.79418 11 -29.1293
    endloop
  endfacet
  facet normal -0.146743 0 0.989175
    outer loop
      vertex 5.79418 -11 -29.1293
      vertex 2.91111 11 -29.557
      vertex 2.91111 -11 -29.557
    endloop
  endfacet
  facet normal -0.242982 0 0.970031
    outer loop
      vertex 5.79418 11 -29.1293
      vertex 8.62145 -11 -28.4211
      vertex 8.62145 11 -28.4211
    endloop
  endfacet
  facet normal -0.242982 0 0.970031
    outer loop
      vertex 8.62145 -11 -28.4211
      vertex 5.79418 11 -29.1293
      vertex 5.79418 -11 -29.1293
    endloop
  endfacet
  facet normal -0.336887 0 0.941545
    outer loop
      vertex 8.62145 11 -28.4211
      vertex 11.3657 -11 -27.4392
      vertex 11.3657 11 -27.4392
    endloop
  endfacet
  facet normal -0.336887 0 0.941545
    outer loop
      vertex 11.3657 -11 -27.4392
      vertex 8.62145 11 -28.4211
      vertex 8.62145 -11 -28.4211
    endloop
  endfacet
  facet normal -0.67155 0 0.740959
    outer loop
      vertex 18.8415 11 -22.9584
      vertex 21.0011 -11 -21.0011
      vertex 21.0011 11 -21.0011
    endloop
  endfacet
  facet normal -0.67155 0 0.740959
    outer loop
      vertex 21.0011 -11 -21.0011
      vertex 18.8415 11 -22.9584
      vertex 18.8415 -11 -22.9584
    endloop
  endfacet
  facet normal -0.740982 0 0.671524
    outer loop
      vertex 21.0011 -11 -21.0011
      vertex 22.3846 11 -19.4745
      vertex 21.0011 11 -21.0011
    endloop
  endfacet
  facet normal -0.740982 0 0.671524
    outer loop
      vertex 22.3846 11 -19.4745
      vertex 21.0011 -11 -21.0011
      vertex 22.3846 -11 -19.4745
    endloop
  endfacet
  facet normal -0.595682 0 0.80322
    outer loop
      vertex 16.5004 11 -24.6946
      vertex 18.8415 -11 -22.9584
      vertex 18.8415 11 -22.9584
    endloop
  endfacet
  facet normal -0.595682 0 0.80322
    outer loop
      vertex 18.8415 -11 -22.9584
      vertex 16.5004 11 -24.6946
      vertex 16.5004 -11 -24.6946
    endloop
  endfacet
  facet normal 0.146743 0 0.989175
    outer loop
      vertex -5.79418 11 -29.1293
      vertex -2.91111 -11 -29.557
      vertex -2.91111 11 -29.557
    endloop
  endfacet
  facet normal 0.146743 0 0.989175
    outer loop
      vertex -2.91111 -11 -29.557
      vertex -5.79418 11 -29.1293
      vertex -5.79418 -11 -29.1293
    endloop
  endfacet
  facet normal 0.049063 0 0.998796
    outer loop
      vertex -2.91111 11 -29.557
      vertex 0 -11 -29.7
      vertex 0 11 -29.7
    endloop
  endfacet
  facet normal 0.049063 0 0.998796
    outer loop
      vertex 0 -11 -29.7
      vertex -2.91111 11 -29.557
      vertex -2.91111 -11 -29.557
    endloop
  endfacet
  facet normal 0.242982 0 0.970031
    outer loop
      vertex -8.62145 11 -28.4211
      vertex -5.79418 -11 -29.1293
      vertex -5.79418 11 -29.1293
    endloop
  endfacet
  facet normal 0.242982 0 0.970031
    outer loop
      vertex -5.79418 -11 -29.1293
      vertex -8.62145 11 -28.4211
      vertex -8.62145 -11 -28.4211
    endloop
  endfacet
  facet normal 0.514132 0 0.857711
    outer loop
      vertex -16.5004 11 -24.6946
      vertex -14.0005 -11 -26.1931
      vertex -14.0005 11 -26.1931
    endloop
  endfacet
  facet normal 0.514132 0 0.857711
    outer loop
      vertex -14.0005 -11 -26.1931
      vertex -16.5004 11 -24.6946
      vertex -16.5004 -11 -24.6946
    endloop
  endfacet
  facet normal 0.427536 0 0.903998
    outer loop
      vertex -14.0005 11 -26.1931
      vertex -11.3657 -11 -27.4392
      vertex -11.3657 11 -27.4392
    endloop
  endfacet
  facet normal 0.427536 0 0.903998
    outer loop
      vertex -11.3657 -11 -27.4392
      vertex -14.0005 11 -26.1931
      vertex -14.0005 -11 -26.1931
    endloop
  endfacet
  facet normal 0.595682 0 0.80322
    outer loop
      vertex -18.8415 11 -22.9584
      vertex -16.5004 -11 -24.6946
      vertex -16.5004 11 -24.6946
    endloop
  endfacet
  facet normal 0.595682 0 0.80322
    outer loop
      vertex -16.5004 -11 -24.6946
      vertex -18.8415 11 -22.9584
      vertex -18.8415 -11 -22.9584
    endloop
  endfacet
  facet normal 0.970031 -0 0.242982
    outer loop
      vertex -29.1293 -11 -5.79418
      vertex -28.4211 11 -8.62145
      vertex -29.1293 11 -5.79418
    endloop
  endfacet
  facet normal 0.970031 0 0.242982
    outer loop
      vertex -28.4211 11 -8.62145
      vertex -29.1293 -11 -5.79418
      vertex -28.4211 -11 -8.62145
    endloop
  endfacet
  facet normal 0.941545 -0 0.336887
    outer loop
      vertex -28.4211 -11 -8.62145
      vertex -27.4392 11 -11.3657
      vertex -28.4211 11 -8.62145
    endloop
  endfacet
  facet normal 0.941545 0 0.336887
    outer loop
      vertex -27.4392 11 -11.3657
      vertex -28.4211 -11 -8.62145
      vertex -27.4392 -11 -11.3657
    endloop
  endfacet
  facet normal 0.989175 -0 0.146743
    outer loop
      vertex -29.557 -11 -2.91111
      vertex -29.1293 11 -5.79418
      vertex -29.557 11 -2.91111
    endloop
  endfacet
  facet normal 0.989175 0 0.146743
    outer loop
      vertex -29.1293 11 -5.79418
      vertex -29.557 -11 -2.91111
      vertex -29.1293 -11 -5.79418
    endloop
  endfacet
  facet normal 0.903998 -0 0.427536
    outer loop
      vertex -27.4392 -11 -11.3657
      vertex -26.1931 11 -14.0005
      vertex -27.4392 11 -11.3657
    endloop
  endfacet
  facet normal 0.903998 0 0.427536
    outer loop
      vertex -26.1931 11 -14.0005
      vertex -27.4392 -11 -11.3657
      vertex -26.1931 -11 -14.0005
    endloop
  endfacet
  facet normal 0.857711 -0 0.514132
    outer loop
      vertex -26.1931 -11 -14.0005
      vertex -24.6946 11 -16.5004
      vertex -26.1931 11 -14.0005
    endloop
  endfacet
  facet normal 0.857711 0 0.514132
    outer loop
      vertex -24.6946 11 -16.5004
      vertex -26.1931 -11 -14.0005
      vertex -24.6946 -11 -16.5004
    endloop
  endfacet
  facet normal 0.740982 -0 0.671524
    outer loop
      vertex -22.3846 -11 -19.4745
      vertex -21.0011 11 -21.0011
      vertex -22.3846 11 -19.4745
    endloop
  endfacet
  facet normal 0.740982 0 0.671524
    outer loop
      vertex -21.0011 11 -21.0011
      vertex -22.3846 -11 -19.4745
      vertex -21.0011 -11 -21.0011
    endloop
  endfacet
  facet normal -0.903998 0 0.427536
    outer loop
      vertex 26.1931 -11 -14.0005
      vertex 27.4392 11 -11.3657
      vertex 26.1931 11 -14.0005
    endloop
  endfacet
  facet normal -0.903998 0 0.427536
    outer loop
      vertex 27.4392 11 -11.3657
      vertex 26.1931 -11 -14.0005
      vertex 27.4392 -11 -11.3657
    endloop
  endfacet
  facet normal -0.427536 0 0.903998
    outer loop
      vertex 11.3657 11 -27.4392
      vertex 14.0005 -11 -26.1931
      vertex 14.0005 11 -26.1931
    endloop
  endfacet
  facet normal -0.427536 0 0.903998
    outer loop
      vertex 14.0005 -11 -26.1931
      vertex 11.3657 11 -27.4392
      vertex 11.3657 -11 -27.4392
    endloop
  endfacet
  facet normal -0.514132 0 0.857711
    outer loop
      vertex 14.0005 11 -26.1931
      vertex 16.5004 -11 -24.6946
      vertex 16.5004 11 -24.6946
    endloop
  endfacet
  facet normal -0.514132 0 0.857711
    outer loop
      vertex 16.5004 -11 -24.6946
      vertex 14.0005 11 -26.1931
      vertex 14.0005 -11 -26.1931
    endloop
  endfacet
  facet normal -0 0 1
    outer loop
      vertex -29.8373 11 10
      vertex -27.9279 -11 10
      vertex -27.9279 11 10
    endloop
  endfacet
  facet normal 0 0 1
    outer loop
      vertex -27.9279 -11 10
      vertex -29.8373 11 10
      vertex -29.8373 -11 10
    endloop
  endfacet
  facet normal -0 0 1
    outer loop
      vertex 27.9279 11 10
      vertex 29.8373 -11 10
      vertex 29.8373 11 10
    endloop
  endfacet
  facet normal 0 0 1
    outer loop
      vertex 29.8373 -11 10
      vertex 27.9279 11 10
      vertex 27.9279 -11 10
    endloop
  endfacet
endsolid OpenSCAD_Model
